<svg width="56" height="56" viewBox="0 0 56 56" fill="none" xmlns="http://www.w3.org/2000/svg">
<path d="M0 0H56V56H0V0Z" fill="#39B0F8"/>
<path d="M10.1348 10.1759H25.4237V15.2983H10.1348V10.1759Z" fill="white"/>
<path d="M30.4707 40.6686H45.7596V45.791H30.4707V40.6686Z" fill="white"/>
<path d="M35.5547 10.1759H45.7595V15.2983H35.5547V10.1759Z" fill="white"/>
<path d="M15.2559 35.6157H25.425V40.7381H15.2559V35.6157Z" fill="white"/>
<path d="M10.1719 10.1759H15.2917V25.4486H10.1719V10.1759Z" fill="white"/>
<path d="M40.6406 10.1759H45.7604V20.3577H40.6406V10.1759Z" fill="white"/>
<path d="M20.3047 35.6157H25.4245V45.7976H20.3047V35.6157Z" fill="white"/>
<path d="M40.6758 35.6099H45.7956V45.7917H40.6758V35.6099Z" fill="white"/>
<path d="M20.3047 20.3578H25.4245V25.4487H20.3047V20.3578Z" fill="white"/>
<path d="M10.1348 40.7037H15.2546V45.7946H10.1348V40.7037Z" fill="white"/>
<path d="M25.3887 25.4545H30.5085V30.5454H25.3887V25.4545Z" fill="white"/>
<path d="M35.5918 30.5278H40.7116V35.6187H35.5918V30.5278Z" fill="white"/>
<path d="M30.5078 20.3578H35.6276V25.4487H30.5078V20.3578Z" fill="white"/>
<path d="M15.2715 25.4545H40.7388V30.5769H15.2715V25.4545Z" fill="white"/>
<path d="M35.6191 30.5454H40.7389V45.8181H35.6191V30.5454Z" fill="white"/>
<path d="M15.2715 10.2131H20.3913V25.4859H15.2715V10.2131Z" fill="white"/>
</svg>
