<svg width="24" height="24" viewBox="0 0 24 24" xmlns="http://www.w3.org/2000/svg">
    <path
        d="M12.0001 3.99609C15.2041 3.99616 18.2464 5.94838 20.3253 9.33887C21.2251 10.8053 21.2252 13.1964 20.3253 14.6533C19.2813 16.3533 18.0032 17.6891 16.5812 18.6045C15.1592 19.5105 13.6021 19.9961 12.0001 19.9961C8.79615 19.9961 5.75393 18.0531 3.67493 14.6533C2.77498 13.187 2.77509 10.8053 3.67493 9.33887C4.71893 7.63893 5.99707 6.30305 7.41907 5.3877C8.84106 4.48169 10.3981 3.99609 12.0001 3.99609ZM11.9952 7.13477C9.32217 7.13497 7.14295 9.31382 7.1427 12.0039C7.1427 14.6772 9.32202 16.8572 11.9952 16.8574C14.6686 16.8574 16.8654 14.6773 16.8654 12.0039C16.8651 9.33072 14.6685 7.13477 11.9952 7.13477Z" />
    <path
        d="M11.9979 8.44719C10.0213 8.44719 8.40991 10.0586 8.40991 12.0477C8.40991 14.0242 10.0213 15.6357 11.9979 15.6357C13.9744 15.6357 15.5984 14.0242 15.5984 12.0477C15.5984 10.0712 13.9744 8.44719 11.9979 8.44719Z" />
    <circle cx="13.7963" cy="9.69278" r="1.79712" fill="#FAFAFA" />
</svg>