<svg xmlns="http://www.w3.org/2000/svg" width="16" height="17" viewBox="0 0 16 17">
    <path
        d="M12.7836 4.58533C12.7835 4.07575 12.5687 3.58063 12.1762 3.21033C11.7825 2.83905 11.2424 2.62544 10.6732 2.62537C10.1039 2.62537 9.56308 2.83898 9.16933 3.21033L3.11758 8.91736C2.47805 9.52066 2.1255 10.3322 2.12539 11.1713C2.12539 12.0105 2.47789 12.8227 3.11758 13.4261C3.75843 14.0306 4.63433 14.3754 5.55312 14.3754C6.47192 14.3754 7.34781 14.0306 7.98867 13.4261L14.0395 7.71912C14.2504 7.52019 14.5827 7.5297 14.7816 7.7406C14.9806 7.95154 14.9711 8.28385 14.7602 8.48279L8.7084 14.1898C7.86655 14.9837 6.73116 15.4252 5.55312 15.4252C4.37508 15.4252 3.23969 14.9838 2.39785 14.1898C1.55495 13.3949 1.07461 12.3096 1.07461 11.1713C1.07472 10.0331 1.55506 8.94855 2.39785 8.15369L8.44961 2.44568C9.0443 1.88501 9.84483 1.57458 10.6732 1.57458C11.5017 1.57466 12.3022 1.88488 12.8969 2.44568C13.4926 3.00753 13.8333 3.7767 13.8334 4.58533C13.8334 5.39397 13.4926 6.16309 12.8969 6.72498L6.83828 12.433L6.8373 12.432C6.48974 12.7596 6.02519 12.9398 5.54629 12.9398C5.06726 12.9397 4.60185 12.7598 4.2543 12.432C3.90584 12.1032 3.70351 11.6502 3.70351 11.1713C3.70362 10.6923 3.90573 10.2393 4.2543 9.91052H4.25527L9.84512 4.64392C10.0561 4.4452 10.3885 4.45551 10.5873 4.66638C10.786 4.87735 10.7766 5.20973 10.5658 5.40857L4.975 10.6752C4.82964 10.8123 4.75441 10.9914 4.7543 11.1713C4.7543 11.3513 4.82948 11.531 4.975 11.6683C5.12156 11.8066 5.32655 11.889 5.54629 11.889C5.76613 11.889 5.97193 11.8066 6.11855 11.6683L12.1762 5.9613C12.5689 5.59094 12.7836 5.09505 12.7836 4.58533Z" />
</svg>