<svg width="16" height="16" viewBox="0 0 16 16" fill="none" xmlns="http://www.w3.org/2000/svg">
<path d="M14.3996 7.60024L8.34806 13.3076C7.6067 14.0068 6.6012 14.3996 5.55276 14.3996C4.50432 14.3996 3.49882 14.0068 2.75746 13.3076C2.0161 12.6084 1.59961 11.6601 1.59961 10.6713C1.59961 9.68248 2.0161 8.73417 2.75746 8.03497L8.80901 2.32761C9.30325 1.86148 9.97358 1.59961 10.6725 1.59961C11.3715 1.59961 12.0418 1.86148 12.5361 2.32761C13.0303 2.79374 13.308 3.42595 13.308 4.08515C13.308 4.74436 13.0303 5.37657 12.5361 5.8427L6.47794 11.5501C6.23082 11.7831 5.89566 11.9141 5.54618 11.9141C5.1967 11.9141 4.86153 11.7831 4.61441 11.5501C4.36729 11.317 4.22846 11.0009 4.22846 10.6713C4.22846 10.3417 4.36729 10.0256 4.61441 9.79252L10.205 4.52609" stroke="white" stroke-width="1.05" stroke-linecap="round" stroke-linejoin="round"/>
</svg>
