<svg xmlns="http://www.w3.org/2000/svg" width="25" height="24" viewBox="0 0 25 24">
    <path
        d="M21.9561 3.15892C21.9561 3.15892 24.0653 2.37977 23.8896 4.27191C23.8309 5.05116 23.3037 7.77816 22.8935 10.7277L21.4874 19.4653C21.4874 19.4653 21.3704 20.7453 20.3157 20.968C19.2611 21.1905 17.6792 20.1888 17.3863 19.9662C17.1519 19.7992 12.9922 17.2948 11.5275 16.0705C11.1174 15.7365 10.6487 15.0687 11.5861 14.2895L17.7379 8.72423C18.4408 8.05641 19.1439 6.49812 16.2145 8.39026L8.01229 13.6773C8.01229 13.6773 7.07488 14.2338 5.31724 13.733L1.50897 12.6199C1.50897 12.6199 0.102854 11.7852 2.50502 10.9503C8.36382 8.33466 15.5701 5.66327 21.9561 3.15892Z" />
</svg>