<svg width="56" height="56" viewBox="0 0 56 56" fill="none" xmlns="http://www.w3.org/2000/svg">
<path d="M0 0H56V56H0V0Z" fill="#4442EE"/>
<path d="M5.02393 5.09094H20.3128V10.2134H5.02393V5.09094Z" fill="white"/>
<path d="M5.02393 45.8181H20.3128V50.9405H5.02393V45.8181Z" fill="white"/>
<path d="M35.6243 5.09094H50.9132V10.2134H35.6243V5.09094Z" fill="white"/>
<path d="M35.6243 45.8181H50.9132V50.9405H35.6243V45.8181Z" fill="white"/>
<path d="M5.02393 5.09094H10.1437V20.3637H5.02393V5.09094Z" fill="white"/>
<path d="M5.02393 35.658H10.1437V50.9307H5.02393V35.658Z" fill="white"/>
<path d="M20.3918 20.3636H25.5116V25.4546H20.3918V20.3636Z" fill="white"/>
<path d="M30.5657 20.3636H35.6855V25.4546H30.5657V20.3636Z" fill="white"/>
<path d="M15.3049 35.6364H20.4247V40.7273H15.3049V35.6364Z" fill="white"/>
<path d="M15.3049 15.2727H20.4247V20.3636H15.3049V15.2727Z" fill="white"/>
<path d="M35.6853 15.2727H40.8051V20.3636H35.6853V15.2727Z" fill="white"/>
<path d="M35.6853 35.658H40.8051V40.7489H35.6853V35.658Z" fill="white"/>
<path d="M20.3918 30.5454H25.5116V35.6363H20.3918V30.5454Z" fill="white"/>
<path d="M45.7932 5.0791H50.913V20.3518H45.7932V5.0791Z" fill="white"/>
<path d="M30.5657 30.5454H35.6855V35.6363H30.5657V30.5454Z" fill="white"/>
<path d="M45.7932 35.6462H50.913V50.919H45.7932V35.6462Z" fill="white"/>
</svg>
