<svg xmlns="http://www.w3.org/2000/svg" width="24" height="24" viewBox="0 0 24 24">


    <path
        d="M15.2376 23.0098V24.0098H8.78644V23.0098H15.2376ZM23.012 15.2354V8.78418C23.012 7.00072 22.9152 5.63573 22.681 4.58203C22.4492 3.5399 22.0966 2.86391 21.6273 2.39453C21.1578 1.92519 20.4819 1.57244 19.4398 1.34082C18.5178 1.13595 17.3572 1.03639 15.887 1.01465L15.2376 1.00977H8.78644C7.00297 1.00977 5.63799 1.10659 4.58429 1.34082C3.54215 1.57254 2.86616 1.92522 2.39679 2.39453C1.92745 2.86398 1.5747 3.53992 1.34308 4.58203C1.10893 5.63573 1.01202 7.001 1.01202 8.78418V15.2354C1.01202 17.0188 1.10885 18.3838 1.34308 19.4375C1.5748 20.4796 1.92747 21.1556 2.39679 21.625C2.86624 22.0943 3.54218 22.4471 4.58429 22.6787C5.63799 22.9129 7.00326 23.0098 8.78644 23.0098V24.0098L8.12531 24.0049C1.46699 23.9072 0.0120239 22.2358 0.0120239 15.2354V8.78418C0.0120239 1.78598 1.46477 0.112445 8.12531 0.0146484L8.78644 0.00976562H15.2376C22.4616 0.00976562 24.012 1.55778 24.012 8.78418V15.2354C24.012 22.4594 22.464 24.0098 15.2376 24.0098V23.0098C17.0211 23.0098 18.3861 22.9129 19.4398 22.6787C20.4819 22.447 21.1579 22.0943 21.6273 21.625C22.0966 21.1556 22.4493 20.4796 22.681 19.4375C22.9151 18.3838 23.012 17.0185 23.012 15.2354Z" />
    <path
        d="M12.9073 24.0098H15.1945C22.2841 24.0098 23.9353 22.5338 24.0073 15.7346L24.0097 15.2354V8.78417C24.0097 8.60177 24.0097 8.42417 24.0073 8.24657C23.9281 1.48097 22.2721 0.00976562 15.1945 0.00976562H12.9073C5.6473 0.00976562 4.0921 1.56017 4.0921 8.78417V15.2354C4.0921 22.4594 5.6473 24.0098 12.9073 24.0098Z" />
    <path
        d="M15.1946 23.0098V24.0098H12.9075V23.0098H15.1946ZM23.0101 8.78418C23.0101 8.60061 23.0094 8.42947 23.0071 8.25977V8.25781C22.9673 4.85853 22.5094 3.21832 21.5452 2.32422C20.5579 1.40874 18.7667 1.00978 15.1946 1.00977H12.9075C11.1153 1.00977 9.74254 1.1063 8.68292 1.34082C7.63456 1.57287 6.95487 1.92645 6.48273 2.39648C6.01096 2.86617 5.65668 3.54154 5.42413 4.58301C5.189 5.63626 5.0921 7.00112 5.0921 8.78418V15.2354C5.0921 17.0184 5.189 18.3833 5.42413 19.4365C5.65668 20.478 6.01096 21.1534 6.48273 21.623C6.95487 22.0931 7.63456 22.4467 8.68292 22.6787C9.74254 22.9132 11.1153 23.0098 12.9075 23.0098V24.0098L12.2435 24.0049C5.55165 23.9071 4.0921 22.2337 4.0921 15.2354V8.78418C4.0921 1.78586 5.55165 0.11239 12.2435 0.0146484L12.9075 0.00976562H15.1946C22.272 0.00978496 23.9279 1.48094 24.0071 8.24609C24.0095 8.42369 24.0101 8.60178 24.0101 8.78418V15.2354L24.0071 15.7344C23.9351 22.5335 22.2841 24.0097 15.1946 24.0098V23.0098C16.9442 23.0098 18.2946 22.9172 19.345 22.6943C20.3866 22.4733 21.072 22.1368 21.5511 21.6904C22.5156 20.7916 22.971 19.1413 23.0071 15.7236L23.0101 15.2354V8.78418Z" />
    <path
        d="M16.9465 9.9339C18.1585 10.6347 18.7657 10.9851 18.9697 11.4411C19.1473 11.8395 19.1473 12.2955 18.9697 12.6939C18.7657 13.1499 18.1585 13.5003 16.9465 14.2011L13.6225 16.1211C12.4081 16.8243 11.8009 17.1723 11.3041 17.1219C10.8697 17.0763 10.4737 16.8483 10.2193 16.4955C9.92645 16.0899 9.92645 15.3915 9.92645 13.9899V10.1499C9.92645 8.7507 9.92645 8.0499 10.2193 7.6443C10.4761 7.2915 10.8697 7.0635 11.3041 7.0179C11.8033 6.9651 12.4081 7.3155 13.6225 8.0163L16.9465 9.9339Z"
        fill="#161821" />


</svg>