<svg width="52" height="47" viewBox="0 0 52 47" fill="none" xmlns="http://www.w3.org/2000/svg">
<path d="M7.00883 2.2184C5.58914 4.91606 5.21114 7.0203 5.83522 8.77759C5.93728 9.07649 6.08714 9.50391 6.16097 9.7234C6.39479 10.4057 6.86848 11.0795 7.19397 11.1777C7.61172 11.3097 7.97911 11.0733 8.48018 10.3612C8.95141 9.67946 9.23077 8.98155 9.32341 8.22771C9.39034 7.67263 9.37748 6.99273 9.28356 6.58759C9.246 6.41787 9.16445 5.99825 9.09952 5.6559C8.98556 5.02681 8.72072 4.17841 8.41425 3.47317C8.16575 2.89352 7.45466 1.50566 7.41394 1.51731C7.39358 1.52314 7.21361 1.83714 7.00883 2.2184Z" fill="#9C9FB8"/>
<path d="M15.462 0.226088C12.3118 1.64563 10.7977 3.02311 10.2153 4.99995C10.1253 5.3154 10.0988 5.57302 10.0776 6.37217C10.0511 7.30276 10.0564 7.36585 10.1623 7.53409C10.2206 7.62873 10.3317 7.73914 10.4059 7.77068C10.9035 7.99676 12.1795 7.63398 13.053 7.01885C13.4554 6.73494 14.1013 6.06723 14.3925 5.6256C14.6678 5.21025 15.0808 4.3743 15.2767 3.83803C15.5361 3.10723 15.7902 2.05046 15.8061 1.60882C15.8167 1.37223 15.8749 0.935858 15.9332 0.630919C16.0602 0.00527048 16.0602 1.28746e-05 16.0073 1.28746e-05C15.9808 1.28746e-05 15.7373 0.105164 15.462 0.226088Z" fill="#9C9FB8"/>
<path d="M3.69395 8.80642C3.37099 9.87896 3.2757 10.2207 3.15922 10.7517C2.92098 11.8558 2.84685 12.6024 2.88921 13.4856C2.91039 13.9168 2.92627 14.3321 2.92627 14.4057C2.93156 14.9788 3.16981 15.9094 3.4557 16.4824C3.76278 17.0871 4.31868 17.7705 4.76341 18.0913C5.08636 18.3226 5.34049 18.3594 5.62109 18.2174C5.81169 18.1175 6.0764 17.7127 6.267 17.2395C6.57937 16.4614 6.64819 15.9725 6.6429 14.616C6.6429 13.9536 6.62172 13.7222 6.52642 13.37C6.20876 12.1975 5.56285 11.0251 4.43516 9.59505C3.68336 8.64343 3.73101 8.69075 3.69395 8.80642Z" fill="#9C9FB8"/>
<path d="M0.935096 17.2289C0.961568 17.6285 0.982745 18.1122 0.982745 18.3067C0.982745 18.496 0.993334 18.6379 1.00922 18.6116C1.0251 18.5906 1.04098 18.7273 1.04628 18.9166C1.05687 19.3898 1.28982 20.5517 1.51747 21.2352C2.07867 22.9491 3.05283 24.1268 4.46113 24.7893C5.44058 25.2519 5.8959 25.0048 5.97531 23.9586C5.99649 23.722 6.01237 23.1226 6.00708 22.6337C6.00708 21.7662 6.00178 21.7241 5.83237 21.2404C5.35058 19.8419 4.34465 18.6852 2.58693 17.5181C2.13162 17.2131 0.966862 16.5086 0.924507 16.5086C0.90333 16.5086 0.913919 16.8346 0.935096 17.2289Z" fill="#9C9FB8"/>
<path d="M0.425808 25.6612C0.612954 26.0152 0.829577 26.4482 0.908921 26.6258C0.98612 26.7986 1.05369 26.9239 1.05747 26.8934C1.06339 26.8677 1.13365 26.9861 1.21568 27.1567C1.41835 27.5844 2.10496 28.5503 2.5916 29.0815C3.80308 30.4175 5.17287 31.0954 6.7289 31.1259C7.81189 31.1488 8.12682 30.7375 7.77258 29.7498C7.69542 29.5252 7.46546 28.9714 7.26119 28.5272C6.90736 27.7351 6.88537 27.6989 6.5334 27.3263C5.52309 26.246 4.13287 25.6002 2.05194 25.2514C1.51184 25.1587 0.161025 24.9905 0.122353 25.0078C0.103018 25.0165 0.24564 25.3098 0.425808 25.6612Z" fill="#9C9FB8"/>
<path d="M2.63615 33.2221C2.89549 33.5273 3.2007 33.9031 3.31661 34.0593C3.42939 34.2113 3.52247 34.319 3.51957 34.2884C3.51979 34.2621 3.614 34.3624 3.73102 34.5113C4.02146 34.885 4.90086 35.6793 5.49094 36.0926C6.96288 37.1347 8.44695 37.5001 9.97267 37.193C11.035 36.9809 11.2534 36.5112 10.6938 35.6236C10.5698 35.421 10.2254 34.9302 9.92985 34.5407C9.41296 33.844 9.38365 33.8133 8.95939 33.5258C7.73918 32.6897 6.24213 32.3602 4.13505 32.4701C3.58769 32.4965 2.23249 32.6247 2.19848 32.65C2.18147 32.6626 2.3842 32.9181 2.63615 33.2221Z" fill="#9C9FB8"/>
<path d="M14.6527 7.17038C11.7552 8.11786 10.0186 9.36483 9.24282 11.0606C9.10793 11.3462 8.91785 11.7573 8.81799 11.9663C8.51068 12.6187 8.38144 13.4322 8.54663 13.7293C8.75453 14.115 9.18282 14.2012 10.0383 14.039C10.8513 13.8779 11.5378 13.5715 12.1292 13.095C12.5638 12.7432 13.028 12.2463 13.2427 11.8901C13.3339 11.7422 13.5676 11.3842 13.7594 11.0933C14.1157 10.5625 14.5164 9.76916 14.7876 9.0496C15.0129 8.46055 15.469 6.96931 15.4316 6.94932C15.413 6.93933 15.0651 7.03936 14.6527 7.17038Z" fill="#9C9FB8"/>
<path d="M12.8887 13.8164C9.94663 14.6146 8.1486 15.7713 7.28718 17.4252C7.13787 17.7035 6.92704 18.1044 6.81664 18.308C6.4764 18.9439 6.30578 19.7497 6.45557 20.0549C6.6435 20.4506 7.06683 20.5586 7.92952 20.4403C8.74961 20.3209 9.45086 20.0501 10.0659 19.6044C10.5178 19.2753 11.0068 18.8027 11.2395 18.458C11.3381 18.3149 11.5898 17.9693 11.7962 17.6886C12.1791 17.1766 12.6199 16.4048 12.9274 15.7C13.1825 15.1233 13.7142 13.6573 13.6779 13.6354C13.6598 13.6245 13.3073 13.7066 12.8887 13.8164Z" fill="#9C9FB8"/>
<path d="M11.5188 19.4032C9.0374 21.1739 7.75329 22.8833 7.52023 24.7335C7.47694 25.0463 7.41853 25.4955 7.38574 25.7247C7.28767 26.4393 7.40766 27.2541 7.65417 27.4883C7.96791 27.7941 8.40237 27.7482 9.17021 27.3375C9.89772 26.9406 10.4612 26.443 10.883 25.8114C11.1924 25.3457 11.4868 24.7327 11.5851 24.3286C11.6279 24.1601 11.7438 23.7487 11.8398 23.4137C12.021 22.8006 12.1661 21.9237 12.2096 21.156C12.2484 20.5265 12.2376 18.9671 12.196 18.9592C12.1751 18.9553 11.8732 19.1548 11.5188 19.4032Z" fill="#9C9FB8"/>
<path d="M12.7936 25.1288C10.8844 27.0166 9.89504 28.7259 9.76833 30.3546C9.74204 30.643 9.70333 31.089 9.67563 31.3506C9.61553 31.9423 9.677 32.4349 9.88667 32.9386C10.0606 33.3574 10.2575 33.6201 10.4594 33.7028C10.9739 33.9165 12.4016 32.8295 13.0006 31.7749C13.2451 31.3485 13.531 30.604 13.5014 30.4775C13.4926 30.4284 13.5259 30.2738 13.5795 30.1276C13.6271 29.9858 13.7212 29.5267 13.7823 29.1105C13.9059 28.305 13.9206 27.6217 13.8312 26.6999C13.7629 25.9619 13.5276 24.5032 13.4804 24.4963C13.4542 24.4924 13.145 24.7765 12.7936 25.1288Z" fill="#9C9FB8"/>
<path d="M18.6045 32.4211C18.5905 32.4567 18.4913 32.8221 18.3823 33.2342C18.22 33.8682 18.1713 34.2068 18.0436 35.4727C17.8768 37.0887 17.8776 37.5748 18.0263 38.4026C18.2568 39.6503 18.8838 40.7568 19.7918 41.4889C20.3837 41.9687 20.7523 41.9515 21.1001 41.4358C21.3247 41.0931 21.5937 40.4007 21.6543 39.9946C21.6747 39.8381 21.7358 39.4267 21.7902 39.0833C21.9059 38.3814 21.8927 37.9682 21.7457 37.2884C21.5031 36.1663 20.9076 35.0629 19.8112 33.6945C19.1134 32.8242 18.6453 32.3299 18.6045 32.4211Z" fill="#9C9FB8"/>
<path d="M6.57407 39.8646C6.60486 39.8873 6.93247 40.0772 7.30257 40.2886C7.87343 40.6086 8.18811 40.7428 9.37851 41.192C10.8972 41.7692 11.367 41.8934 12.2052 41.9628C13.4702 42.0613 14.7008 41.7401 15.642 41.0512C16.258 40.6028 16.3363 40.2421 15.9274 39.7733C15.654 39.4681 15.0542 39.0299 14.6774 38.8669C14.5314 38.8068 14.1496 38.642 13.8318 38.5009C13.1834 38.2085 12.7806 38.1149 12.0859 38.082C10.9391 38.0276 9.71965 38.319 8.11516 39.0263C7.09456 39.4766 6.49648 39.8017 6.57407 39.8646Z" fill="#9C9FB8"/>
<path d="M12.514 44.0444C12.5462 44.065 12.8862 44.2317 13.27 44.417C13.8617 44.6968 14.1849 44.8089 15.4035 45.1747C16.9584 45.6454 17.4358 45.7369 18.2768 45.7481C19.5455 45.7588 20.751 45.3533 21.6423 44.601C22.2257 44.111 22.2789 43.7457 21.8386 43.3064C21.5447 43.0208 20.9161 42.6251 20.5288 42.4885C20.3791 42.4388 19.9868 42.3007 19.66 42.182C18.9929 41.9351 18.5846 41.8696 17.8893 41.8849C16.7415 41.9099 15.5451 42.285 13.9934 43.1015C13.0064 43.6213 12.4322 43.9871 12.514 44.0444Z" fill="#9C9FB8"/>
<path d="M15.7522 28.5848C15.7266 28.6132 15.5064 28.9213 15.2608 29.2696C14.8878 29.8074 14.7243 30.1079 14.1639 31.2501C13.4448 32.707 13.2764 33.1629 13.1276 33.9907C12.9092 35.2406 13.1118 36.4961 13.708 37.4986C14.0958 38.1545 14.4474 38.2667 14.9529 37.9043C15.2828 37.6612 15.7761 37.1059 15.9742 36.7462C16.0479 36.6066 16.2483 36.2422 16.419 35.9393C16.7718 35.3216 16.9033 34.9296 17.0021 34.2412C17.1654 33.1048 16.9914 31.8631 16.44 30.1986C16.0889 29.1398 15.8221 28.5135 15.7522 28.5848Z" fill="#9C9FB8"/>
<path d="M25.4862 42.8557C25.149 42.9534 24.6432 43.4347 24.5097 43.7905C24.4184 44.0277 24.3973 44.209 24.4324 44.5718C24.4605 44.8299 24.4746 45.1578 24.4746 45.2903C24.4605 45.9531 24.9101 46.6367 25.4932 46.8251C26.4626 47.146 27.4953 46.4623 27.5445 45.4647C27.5515 45.2694 27.6007 44.9694 27.6428 44.7881C27.7131 44.5299 27.7131 44.3695 27.6428 44.0835C27.425 43.1138 26.4697 42.5697 25.4862 42.8557Z" fill="#9C9FB8"/>
<path d="M45.0999 2.2184C46.5196 4.91606 46.8976 7.0203 46.2735 8.77759C46.1715 9.07649 46.0216 9.50391 45.9478 9.7234C45.714 10.4057 45.2403 11.0795 44.9148 11.1777C44.497 11.3097 44.1297 11.0733 43.6286 10.3612C43.1574 9.67946 42.878 8.98155 42.7853 8.22771C42.7184 7.67263 42.7313 6.99273 42.8252 6.58759C42.8628 6.41787 42.9443 5.99825 43.0092 5.6559C43.1232 5.02681 43.388 4.17841 43.6945 3.47317C43.943 2.89352 44.6541 1.50566 44.6948 1.51731C44.7152 1.52314 44.8952 1.83714 45.0999 2.2184Z" fill="#9C9FB8"/>
<path d="M36.6496 0.226088C39.7997 1.64563 41.3139 3.02311 41.8963 4.99995C41.9863 5.3154 42.0128 5.57302 42.034 6.37217C42.0604 7.30276 42.0551 7.36585 41.9492 7.53409C41.891 7.62873 41.7798 7.73914 41.7057 7.77068C41.208 7.99676 39.9321 7.63398 39.0585 7.01885C38.6562 6.73494 38.0103 6.06723 37.7191 5.6256C37.4438 5.21025 37.0308 4.3743 36.8349 3.83803C36.5755 3.10723 36.3214 2.05046 36.3055 1.60882C36.2949 1.37223 36.2366 0.935858 36.1784 0.630919C36.0513 0.00527048 36.0513 1.28746e-05 36.1043 1.28746e-05C36.1308 1.28746e-05 36.3743 0.105164 36.6496 0.226088Z" fill="#9C9FB8"/>
<path d="M48.4148 8.80642C48.7378 9.87896 48.8331 10.2207 48.9495 10.7517C49.1878 11.8558 49.2619 12.6024 49.2196 13.4856C49.1984 13.9168 49.1825 14.3321 49.1825 14.4057C49.1772 14.9788 48.939 15.9094 48.6531 16.4824C48.346 17.0871 47.7901 17.7705 47.3454 18.0913C47.0224 18.3226 46.7683 18.3594 46.4877 18.2174C46.2971 18.1175 46.0324 17.7127 45.8418 17.2395C45.5294 16.4614 45.4606 15.9725 45.4659 14.616C45.4659 13.9536 45.487 13.7222 45.5823 13.37C45.9 12.1975 46.5459 11.0251 47.6736 9.59505C48.4254 8.64343 48.3778 8.69075 48.4148 8.80642Z" fill="#9C9FB8"/>
<path d="M51.1778 17.2289C51.1513 17.6285 51.1302 18.1122 51.1302 18.3067C51.1302 18.496 51.1196 18.6379 51.1037 18.6116C51.0878 18.5906 51.0719 18.7273 51.0666 18.9166C51.056 19.3898 50.8231 20.5517 50.5954 21.2352C50.0342 22.9491 49.0601 24.1268 47.6518 24.7893C46.6723 25.2519 46.217 25.0048 46.1376 23.9586C46.1164 23.722 46.1005 23.1226 46.1058 22.6337C46.1058 21.7662 46.1111 21.7241 46.2806 21.2404C46.7623 19.8419 47.7683 18.6852 49.526 17.5181C49.9813 17.2131 51.1461 16.5086 51.1884 16.5086C51.2096 16.5086 51.199 16.8346 51.1778 17.2289Z" fill="#9C9FB8"/>
<path d="M51.6858 25.6612C51.4986 26.0152 51.282 26.4482 51.2027 26.6258C51.1255 26.7986 51.0579 26.9239 51.0541 26.8934C51.0482 26.8677 50.9779 26.9861 50.8959 27.1567C50.6932 27.5844 50.0066 28.5503 49.52 29.0815C48.3085 30.4175 46.9387 31.0954 45.3827 31.1259C44.2997 31.1488 43.9848 30.7375 44.339 29.7498C44.4162 29.5252 44.6461 28.9714 44.8504 28.5272C45.2042 27.7351 45.2262 27.6989 45.5782 27.3263C46.5885 26.246 47.9787 25.6002 50.0596 25.2514C50.5997 25.1587 51.9505 24.9905 51.9892 25.0078C52.0086 25.0165 51.8659 25.3098 51.6858 25.6612Z" fill="#9C9FB8"/>
<path d="M49.4754 33.2219C49.2161 33.527 48.9109 33.9028 48.795 34.0591C48.6822 34.2111 48.5891 34.3188 48.592 34.2882C48.5918 34.2618 48.4976 34.3622 48.3805 34.511C48.0901 34.8847 47.2107 35.6791 46.6206 36.0923C45.1487 37.1344 43.6646 37.4998 42.1389 37.1927C41.0766 36.9807 40.8582 36.5109 41.4178 35.6234C41.5418 35.4207 41.8861 34.9299 42.1817 34.5404C42.6986 33.8437 42.7279 33.8131 43.1522 33.5256C44.3724 32.6895 45.8694 32.3599 47.9765 32.4699C48.5239 32.4963 49.8791 32.6245 49.9131 32.6497C49.9301 32.6623 49.7274 32.9178 49.4754 33.2219Z" fill="#9C9FB8"/>
<path d="M37.4574 7.17038C40.3549 8.11786 42.0915 9.36483 42.8673 11.0606C43.0022 11.3462 43.1923 11.7573 43.2921 11.9663C43.5994 12.6187 43.7287 13.4322 43.5635 13.7293C43.3556 14.115 42.9273 14.2012 42.0718 14.039C41.2588 13.8779 40.5724 13.5715 39.9809 13.095C39.5464 12.7432 39.0821 12.2463 38.8674 11.8901C38.7762 11.7422 38.5425 11.3842 38.3507 11.0933C37.9944 10.5625 37.5937 9.76916 37.3225 9.0496C37.0972 8.46055 36.6411 6.96931 36.6785 6.94932C36.6972 6.93933 37.045 7.03936 37.4574 7.17038Z" fill="#9C9FB8"/>
<path d="M39.2201 13.8161C42.1621 14.6144 43.9602 15.771 44.8216 17.4249C44.9709 17.7033 45.1817 18.1041 45.2921 18.3077C45.6324 18.9437 45.803 19.7494 45.6532 20.0546C45.4653 20.4504 45.0419 20.5583 44.1792 20.4401C43.3592 20.3207 42.6579 20.0498 42.0429 19.6041C41.5909 19.275 41.1019 18.8025 40.8693 18.4577C40.7706 18.3146 40.519 17.9691 40.3126 17.6883C39.9296 17.1764 39.4889 16.4046 39.1814 15.6998C38.9263 15.123 38.3946 13.657 38.4308 13.6352C38.449 13.6242 38.8015 13.7064 39.2201 13.8161Z" fill="#9C9FB8"/>
<path d="M40.5928 19.4032C43.0742 21.1739 44.3583 22.8833 44.5913 24.7335C44.6346 25.0463 44.693 25.4955 44.7258 25.7247C44.8239 26.4393 44.7039 27.2541 44.4574 27.4883C44.1437 27.7941 43.7092 27.7482 42.9414 27.3375C42.2138 26.9406 41.6504 26.443 41.2286 25.8114C40.9192 25.3457 40.6248 24.7327 40.5265 24.3286C40.4837 24.1601 40.3677 23.7487 40.2718 23.4137C40.0906 22.8006 39.9455 21.9237 39.902 21.156C39.8632 20.5265 39.874 18.9671 39.9156 18.9592C39.9364 18.9553 40.2384 19.1548 40.5928 19.4032Z" fill="#9C9FB8"/>
<path d="M39.3165 25.1285C41.2257 27.0163 42.2151 28.7257 42.3418 30.3544C42.3681 30.6428 42.4068 31.0888 42.4345 31.3504C42.4946 31.942 42.4331 32.4346 42.2234 32.9383C42.0495 33.3571 41.8526 33.6198 41.6507 33.7026C41.1362 33.9163 39.7085 32.8293 39.1095 31.7747C38.865 31.3483 38.5791 30.6038 38.6087 30.4772C38.6176 30.4281 38.5842 30.2736 38.5306 30.1274C38.483 29.9856 38.3889 29.5264 38.3278 29.1103C38.2042 28.3048 38.1895 27.6214 38.2789 26.6996C38.3472 25.9616 38.5825 24.5029 38.6297 24.496C38.6559 24.4922 38.9651 24.7762 39.3165 25.1285Z" fill="#9C9FB8"/>
<path d="M33.5069 32.4211C33.521 32.4567 33.6201 32.8221 33.7291 33.2342C33.8915 33.8682 33.9402 34.2068 34.0678 35.4727C34.2347 37.0887 34.2338 37.5748 34.0851 38.4026C33.8547 39.6503 33.2276 40.7568 32.3197 41.4889C31.7278 41.9687 31.3591 41.9515 31.0114 41.4358C30.7868 41.0931 30.5177 40.4007 30.4572 39.9946C30.4367 39.8381 30.3757 39.4267 30.3212 39.0833C30.2055 38.3814 30.2187 37.9682 30.3658 37.2884C30.6084 36.1663 31.2038 35.0629 32.3002 33.6945C32.998 32.8242 33.4662 32.3299 33.5069 32.4211Z" fill="#9C9FB8"/>
<path d="M45.5375 39.8646C45.5067 39.8873 45.1791 40.0772 44.809 40.2886C44.2381 40.6086 43.9235 40.7428 42.7331 41.192C41.2144 41.7692 40.7445 41.8934 39.9063 41.9628C38.6413 42.0613 37.4108 41.7401 36.4696 41.0512C35.8536 40.6028 35.7753 40.2421 36.1842 39.7733C36.4576 39.4681 37.0573 39.0299 37.4342 38.8669C37.5802 38.8068 37.962 38.642 38.2797 38.5009C38.9282 38.2085 39.331 38.1149 40.0257 38.082C41.1724 38.0276 42.3919 38.319 43.9964 39.0263C45.017 39.4766 45.6151 39.8017 45.5375 39.8646Z" fill="#9C9FB8"/>
<path d="M39.5935 44.0444C39.5612 44.065 39.2212 44.2317 38.8374 44.417C38.2458 44.6968 37.9225 44.8089 36.7039 45.1747C35.149 45.6454 34.6716 45.7369 33.8306 45.7481C32.5619 45.7588 31.3565 45.3533 30.4652 44.601C29.8817 44.111 29.8285 43.7457 30.2688 43.3064C30.5627 43.0208 31.1913 42.6251 31.5786 42.4885C31.7284 42.4388 32.1207 42.3007 32.4474 42.182C33.1146 41.9351 33.5228 41.8696 34.2181 41.8849C35.3659 41.9099 36.5623 42.285 38.1141 43.1015C39.1011 43.6213 39.6752 43.9871 39.5935 44.0444Z" fill="#9C9FB8"/>
<path d="M36.3581 28.5848C36.3837 28.6132 36.6038 28.9213 36.8495 29.2696C37.2224 29.8074 37.3859 30.1079 37.9464 31.2501C38.6654 32.707 38.8338 33.1629 38.9827 33.9907C39.201 35.2406 38.9984 36.4961 38.4022 37.4986C38.0144 38.1545 37.6628 38.2667 37.1573 37.9043C36.8274 37.6612 36.3341 37.1059 36.136 36.7462C36.0623 36.6066 35.8619 36.2422 35.6913 35.9393C35.3384 35.3216 35.2069 34.9296 35.1081 34.2412C34.9448 33.1048 35.1189 31.8631 35.6703 30.1986C36.0213 29.1398 36.2881 28.5135 36.3581 28.5848Z" fill="#9C9FB8"/>
</svg>
