<svg width="1920" height="1237" viewBox="0 0 1920 1237" fill="none" xmlns="http://www.w3.org/2000/svg">
<g clip-path="url(#clip0_4002_21027)">
<path d="M864.269 129.486C878.93 133.451 887.602 148.549 883.638 163.211C762.986 609.438 612.637 834.969 458.009 947.345C445.975 956.091 423.666 965.37 399.541 968.674C375.081 972.024 343.237 969.917 317.024 948.556C290.381 926.845 275.841 890.424 275.133 839.013C274.427 787.729 287.284 717.811 319.497 622.886C335.111 576.874 337.971 549.555 335.456 535.44C334.892 532.277 334.145 530.341 333.589 529.254C333.066 528.232 332.685 527.895 332.598 527.82C332.514 527.747 332.245 527.522 331.472 527.264C330.627 526.982 329.083 526.635 326.582 526.583C315.076 526.343 294.882 532.28 265.86 547.973C237.872 563.107 205.117 585.384 169.678 613.028C98.8746 668.257 19.5709 743.172 -50.3861 820.135C-120.585 897.364 -179.986 975.141 -212.131 1035.97C-219.228 1049.39 -235.867 1054.53 -249.295 1047.43C-262.722 1040.33 -267.855 1023.7 -260.758 1010.27C-225.45 943.457 -162.501 861.708 -91.0858 783.14C-19.4286 704.307 62.1462 627.153 135.851 569.661C172.666 540.943 208.072 516.696 239.699 499.594C270.292 483.051 301.168 471.041 327.729 471.594C341.819 471.888 356.457 475.773 368.508 486.16C380.532 496.524 386.919 510.726 389.603 525.793C394.7 554.405 387.718 593.007 371.58 640.56C340.29 732.766 329.545 795.911 330.127 838.256C330.709 880.472 342.349 898.245 351.769 905.921C361.619 913.947 375.72 916.423 392.078 914.183C408.771 911.896 422.153 905.413 425.674 902.854C565.46 801.264 711.245 590.081 830.545 148.855C834.509 134.194 849.608 125.522 864.269 129.486Z" fill="url(#paint0_radial_4002_21027)" fill-opacity="0.06"/>
</g>
<defs>
<radialGradient id="paint0_radial_4002_21027" cx="0" cy="0" r="1" gradientTransform="matrix(-938.533 990.175 -954.964 -936.187 946.009 110.82)" gradientUnits="userSpaceOnUse">
<stop offset="0.00751582" stop-color="#EFF0F6"/>
<stop offset="0.524695" stop-color="#364D96"/>
<stop offset="1" stop-color="#EFF0F6"/>
</radialGradient>
<clipPath id="clip0_4002_21027">
<rect width="1920" height="1236" fill="white" transform="translate(0 0.0332031)"/>
</clipPath>
</defs>
</svg>
