<svg width="172" height="42" viewBox="0 0 172 42" fill="none" xmlns="http://www.w3.org/2000/svg">
<path d="M64.6847 6.64721L60.3181 15.0889C59.963 15.8218 59.4419 16.4544 58.7995 16.9323C58.2298 17.3425 57.5522 17.5606 56.8588 17.5568C56.2832 17.5484 55.7147 17.4236 55.185 17.1892L55.7575 15.3155C56.0891 15.4337 56.4357 15.5007 56.786 15.5145C57.0646 15.5193 57.3386 15.4425 57.5769 15.2929C57.8408 15.1162 58.0624 14.8793 58.2246 14.6003L58.3119 14.4794L54.2607 6.64721H56.8007L59.5345 12.369L62.351 6.63965L64.6847 6.64721Z" fill="white"/>
<path d="M75.2375 6.64648V17.3118H72.8601V12.9399H68.1929V17.3118H65.8155V6.64648H68.1929V10.8572H72.8601V6.6515L75.2375 6.64648Z" fill="white"/>
<path d="M77.8047 6.64648H80.1675V13.5947L85.0677 6.64648H87.2995V17.3118H84.9513V10.3787L80.051 17.3118H77.8047V6.64648Z" fill="white"/>
<path d="M98.4075 12.6957C98.7488 13.1576 98.9254 13.728 98.9072 14.31C98.9247 14.7381 98.8394 15.1642 98.6591 15.5497C98.4787 15.9352 98.2088 16.2681 97.8738 16.5186C97.1832 17.0475 96.1975 17.3118 94.9167 17.3118H89.8539V6.64648H94.6376C95.8312 6.64648 96.7603 6.88572 97.425 7.36422C97.7461 7.5865 98.0066 7.89103 98.1813 8.24837C98.356 8.60572 98.4389 9.00377 98.422 9.4041C98.4318 9.89816 98.2991 10.384 98.0411 10.7993C97.7735 11.2117 97.4029 11.5407 96.969 11.7512C97.5315 11.9028 98.0344 12.2329 98.4075 12.6957ZM92.2167 11.0662H94.4315C94.8471 11.0961 95.2604 10.9808 95.6056 10.7389C95.7317 10.6146 95.8321 10.465 95.9007 10.2992C95.9694 10.1334 96.0048 9.9548 96.0048 9.77432C96.0048 9.59383 95.9694 9.41524 95.9007 9.24942C95.8321 9.08358 95.7317 8.934 95.6056 8.80977C95.2641 8.56477 94.853 8.44673 94.4388 8.47482H92.224L92.2167 11.0662ZM96.5007 14.111C96.5007 13.2295 95.9428 12.788 94.827 12.7863H92.2167V15.4835H94.827C95.9428 15.4835 96.5007 15.026 96.5007 14.111Z" fill="white"/>
<path d="M108.74 15.3299V17.3118H100.785V6.64648H108.548V8.62845H103.148V10.9428H107.917V12.872H103.148V15.3399L108.74 15.3299Z" fill="white"/>
<path d="M117.477 7.11954C117.942 7.35058 118.355 7.68049 118.69 8.08787C119.024 8.49525 119.272 8.97104 119.418 9.48438C119.564 9.99771 119.605 10.5371 119.536 11.0677C119.469 11.5983 119.294 12.1082 119.025 12.5644C118.648 13.1614 118.11 13.6287 117.477 13.9066C116.727 14.2322 115.919 14.39 115.107 14.37H113.037V17.3115H110.66V6.6461H115.107C115.92 6.62666 116.728 6.78808 117.477 7.11954ZM116.604 11.8793C116.791 11.7123 116.94 11.5024 117.036 11.2661C117.134 11.0297 117.176 10.7733 117.162 10.5169C117.177 10.2578 117.135 9.99845 117.038 9.75908C116.941 9.51972 116.792 9.30675 116.604 9.13677C116.231 8.81777 115.689 8.65829 114.976 8.65829H113.035V12.3678H114.976C115.689 12.3678 116.231 12.205 116.604 11.8793Z" fill="white"/>
<path d="M123.304 16.7872C122.478 16.3349 121.788 15.6554 121.308 14.8229C120.831 13.9575 120.58 12.9779 120.58 11.9809C120.58 10.984 120.831 10.0043 121.308 9.13887C121.789 8.30716 122.478 7.62783 123.304 7.17453C124.116 6.74991 125.006 6.51045 125.915 6.47223C126.823 6.43401 127.728 6.59789 128.571 6.95291C129.274 7.26452 129.895 7.74535 130.383 8.35566L128.857 9.81884C128.547 9.42063 128.153 9.10054 127.706 8.8825C127.258 8.66445 126.77 8.55409 126.276 8.55964C125.684 8.54908 125.099 8.69834 124.578 8.99282C124.086 9.27392 123.682 9.69395 123.411 10.2042C123.138 10.7486 122.996 11.3533 122.996 11.9671C122.996 12.5808 123.138 13.1855 123.411 13.7299C123.682 14.2401 124.086 14.6602 124.578 14.9413C125.099 15.2365 125.684 15.3866 126.276 15.3769C126.77 15.3836 127.26 15.2737 127.707 15.0556C128.154 14.8375 128.547 14.5168 128.857 14.1178L130.383 15.581C129.896 16.2 129.272 16.6867 128.563 16.9988C127.796 17.3328 126.97 17.4982 126.138 17.4848C125.153 17.5026 124.178 17.2626 123.304 16.7872Z" fill="white"/>
<path d="M131.941 6.64648H134.304V13.5947L139.205 6.64648H141.436V17.3118H139.087V10.3787L134.185 17.3118H131.941V6.64648Z" fill="white"/>
<path d="M151.837 8.65925H148.55V17.3124H146.214V8.65925H142.942V6.64453H151.85L151.837 8.65925Z" fill="white"/>
<path d="M161.289 15.3299V17.3118H153.335V6.64648H161.097V8.62845H155.697V10.9428H160.467V12.872H155.697V15.3399L161.289 15.3299Z" fill="white"/>
<path d="M171.063 8.65925H167.776V17.3124H165.428V8.65925H162.155V6.64453H171.063V8.65925Z" fill="white"/>
<path d="M55.4108 24.208H57.7737V31.1563L62.6738 24.208H64.9057V34.8735H62.5574V27.9479L57.6693 34.8785H55.423L55.4108 24.208Z" fill="white"/>
<path d="M76.8805 24.208V34.8735H74.5031V30.504H69.8359V34.8759H67.4609V24.208H69.8359V28.4137H74.5031V24.208H76.8805Z" fill="white"/>
<path d="M88.8687 24.208V34.8735H86.4915V30.504H81.8265V34.8759H79.4492V24.208H81.8265V28.4137H86.4915V24.208H88.8687Z" fill="white"/>
<path d="M93.4565 34.3429C92.6238 33.8907 91.9278 33.2083 91.4455 32.371C90.9686 31.5116 90.7177 30.5373 90.7177 29.5454C90.7177 28.5536 90.9686 27.5792 91.4455 26.7197C91.9284 25.8823 92.6241 25.1991 93.4565 24.7453C94.3488 24.2753 95.3354 24.0303 96.336 24.0303C97.3366 24.0303 98.3231 24.2753 99.2155 24.7453C100.054 25.2088 100.755 25.9003 101.243 26.7456C101.732 27.5908 101.991 28.5582 101.991 29.5441C101.991 30.53 101.732 31.4974 101.243 32.3427C100.755 33.1879 100.054 33.8794 99.2155 34.3429C98.3237 34.8148 97.3369 35.0608 96.336 35.0608C95.3351 35.0608 94.3483 34.8148 93.4565 34.3429ZM97.9832 32.5221C98.4678 32.2368 98.8667 31.8175 99.1355 31.3108C99.4083 30.7663 99.5506 30.1616 99.5506 29.5479C99.5506 28.9342 99.4083 28.3295 99.1355 27.785C98.8667 27.2783 98.4678 26.859 97.9832 26.5737C97.4786 26.2894 96.9137 26.1405 96.3396 26.1405C95.7656 26.1405 95.2007 26.2894 94.6961 26.5737C94.2109 26.8582 93.8119 27.2778 93.5438 27.785C93.2695 28.3291 93.1262 28.9338 93.1262 29.5479C93.1262 30.162 93.2695 30.7668 93.5438 31.3108C93.8119 31.818 94.2109 32.2376 94.6961 32.5221C95.2001 32.808 95.7653 32.9578 96.3396 32.9578C96.914 32.9578 97.4792 32.808 97.9832 32.5221Z" fill="white"/>
<path d="M113.157 24.208V34.8735H110.796V26.2228H106.158V34.8759H103.795V24.208H113.157Z" fill="white"/>
<path d="M117.727 34.3429C116.894 33.8901 116.198 33.2079 115.716 32.371C115.241 31.511 114.991 30.5368 114.991 29.5454C114.991 28.5539 115.241 27.5798 115.716 26.7197C116.199 25.8828 116.895 25.1998 117.727 24.7453C118.62 24.2753 119.606 24.0303 120.606 24.0303C121.607 24.0303 122.594 24.2753 123.486 24.7453C124.316 25.2026 125.011 25.8849 125.497 26.7197C125.867 27.352 126.109 28.056 126.209 28.7887C126.307 29.5215 126.262 30.2675 126.074 30.9812C125.885 31.6948 125.558 32.3611 125.113 32.9391C124.669 33.5172 124.115 33.9949 123.486 34.3429C122.595 34.8148 121.607 35.0608 120.606 35.0608C119.605 35.0608 118.618 34.8148 117.727 34.3429ZM122.253 32.5221C122.739 32.2376 123.138 31.818 123.406 31.3108C123.679 30.7663 123.821 30.1616 123.821 29.5479C123.821 28.9342 123.679 28.3295 123.406 27.785C123.138 27.2778 122.739 26.8582 122.253 26.5737C121.749 26.2894 121.184 26.1405 120.61 26.1405C120.035 26.1405 119.471 26.2894 118.967 26.5737C118.482 26.8582 118.082 27.2778 117.815 27.785C117.542 28.3295 117.399 28.9342 117.399 29.5479C117.399 30.1616 117.542 30.7663 117.815 31.3108C118.082 31.818 118.482 32.2376 118.967 32.5221C119.47 32.808 120.035 32.9578 120.61 32.9578C121.185 32.9578 121.749 32.808 122.253 32.5221Z" fill="white"/>
<path d="M136.928 24.208V34.8735H134.57V26.2228H131.05L130.974 28.4465C130.955 29.6808 130.838 30.9114 130.623 32.1258C130.502 32.9199 130.182 33.6666 129.691 34.2891C129.459 34.5461 129.175 34.7468 128.859 34.8773C128.544 35.0078 128.204 35.065 127.865 35.0447C127.469 35.0347 127.075 34.979 126.691 34.8785L126.839 32.7907C126.977 32.8325 127.12 32.8529 127.263 32.8511C127.831 32.8511 128.228 32.5036 128.452 31.8086C128.677 31.1134 128.818 30.0222 128.877 28.5347L129.024 24.208H136.928Z" fill="white"/>
<path d="M139.497 24.208H141.86V31.1563L146.761 24.208H148.992V34.8735H146.644V27.9479L141.741 34.8785H139.497V24.208Z" fill="white"/>
<path d="M153.562 34.3506C152.735 33.8982 152.045 33.2187 151.565 32.3862C151.09 31.5208 150.84 30.5417 150.84 29.5455C150.84 28.5492 151.09 27.5701 151.565 26.7047C152.045 25.8714 152.735 25.1909 153.562 24.7378C154.374 24.3133 155.264 24.0739 156.173 24.0357C157.082 23.9975 157.988 24.1614 158.831 24.5162C159.532 24.83 160.153 25.3105 160.643 25.919L159.117 27.3822C158.806 26.9839 158.412 26.6638 157.965 26.4458C157.516 26.2277 157.028 26.1175 156.534 26.123C155.941 26.1127 155.356 26.262 154.836 26.5562C154.344 26.8373 153.941 27.2574 153.671 27.7675C153.397 28.3114 153.253 28.9163 153.253 29.5304C153.253 30.1444 153.397 30.7493 153.671 31.2933C153.941 31.8034 154.344 32.2234 154.836 32.5046C155.356 32.7996 155.941 32.9496 156.534 32.9403C157.028 32.9465 157.518 32.8366 157.965 32.6185C158.412 32.4003 158.806 32.0799 159.117 31.6811L160.643 33.1418C160.155 33.7597 159.531 34.2462 158.824 34.5596C158.056 34.8941 157.23 35.0604 156.398 35.0481C155.411 35.0659 154.436 34.8261 153.562 34.3506Z" fill="white"/>
<path d="M12.0528 15.0029H0.937561V41.5442H12.0528V15.0029Z" fill="#27A108"/>
<path d="M29.8364 0V30.0016H26.5009V0H15.3856V41.5408H17.7508H26.5009H29.8364H37.3591H40.9518V0H29.8364Z" fill="#27A108"/>
<path d="M12.0527 0H0.937439V11.5392H12.0527V0Z" fill="#27A108"/>
</svg>
