<svg width="60" height="61" viewBox="0 0 60 61" fill="none" xmlns="http://www.w3.org/2000/svg">
<path d="M26.6585 60.479L23.4151 43.5319L11.2205 54.812L3.79796 46.739L17.4026 37.0237L0 31.6306L2.99858 22.1049L19.8467 29.3367L14.6386 12.6635L25.017 11.2168L28.3032 28.1579L40.4977 16.8778L47.9203 24.9509L34.2729 34.6721L51.7182 40.0592L48.7197 49.5849L31.8716 42.3531L37.0369 59.0323L26.6585 60.479Z" fill="#5CE937"/>
<path d="M52.0905 16.8348L44.6679 8.76172L40.4976 16.8797L47.9201 24.9527L52.0905 16.8348Z" fill="url(#paint0_linear_1863_26311)"/>
<path d="M29.187 3.09863L18.8085 4.54532L14.6382 12.6633L25.0166 11.2166L29.187 3.09863Z" fill="url(#paint1_linear_1863_26311)"/>
<path d="M44.6686 8.76172L32.4741 20.0418L28.3037 28.1598L40.4982 16.8797L44.6686 8.76172Z" fill="url(#paint2_linear_1863_26311)"/>
<path d="M32.4736 20.0397L29.1874 3.09863L25.0171 11.2166L28.3032 28.1577L32.4736 20.0397Z" fill="url(#paint3_linear_1863_26311)"/>
<path d="M38.4433 26.5533L52.0907 16.832L47.9203 24.95L34.2729 34.6712L38.4433 26.5533Z" fill="url(#paint4_linear_1863_26311)"/>
<path d="M18.8085 4.5459L24.0166 21.2191L19.8463 29.337L14.6382 12.6638L18.8085 4.5459Z" fill="url(#paint5_linear_1863_26311)"/>
<path d="M55.8886 31.9399L38.4433 26.5527L34.2729 34.6707L51.7183 40.0578L55.8886 31.9399Z" fill="url(#paint6_linear_1863_26311)"/>
<path d="M52.8901 41.4681L55.8887 31.9424L51.7183 40.0603L48.7197 49.586L52.8901 41.4681Z" fill="url(#paint7_linear_1863_26311)"/>
<path d="M24.0165 21.2171L7.1684 13.9854L2.99805 22.1033L19.8461 29.3351L24.0165 21.2171Z" fill="url(#paint8_linear_1863_26311)"/>
<path d="M36.0424 34.2354L52.8905 41.4671L48.7201 49.5851L31.8721 42.3533L36.0424 34.2354Z" fill="url(#paint9_linear_1863_26311)"/>
<path d="M7.16894 13.9854L4.17036 23.5111L0 31.629L2.99858 22.1033L7.16894 13.9854Z" fill="url(#paint10_linear_1863_26311)"/>
<path d="M4.17036 23.5117L21.573 28.9048L17.4026 37.0227L0 31.6297L4.17036 23.5117Z" fill="url(#paint11_linear_1863_26311)"/>
<path d="M41.2078 50.9145L36.0424 34.2354L31.8721 42.3533L37.0374 59.0325L41.2078 50.9145Z" fill="url(#paint12_linear_1863_26311)"/>
<path d="M21.5724 28.9053L7.96772 38.6206L3.79736 46.7385L17.402 37.0232L21.5724 28.9053Z" fill="url(#paint13_linear_1863_26311)"/>
<path d="M27.5859 35.4141L30.8293 52.3611L26.659 60.4791L23.4155 43.532L27.5859 35.4141Z" fill="url(#paint14_linear_1863_26311)"/>
<path d="M15.3906 46.6942L27.5851 35.4141L23.4147 43.532L11.2202 54.8121L15.3906 46.6942Z" fill="url(#paint15_linear_1863_26311)"/>
<path d="M30.829 52.3617L41.2075 50.915L37.0371 59.033L26.6587 60.4797L30.829 52.3617Z" fill="url(#paint16_linear_1863_26311)"/>
<path d="M7.96772 38.6211L15.3903 46.6942L11.2199 54.8121L3.79736 46.739L7.96772 38.6211Z" fill="url(#paint17_linear_1863_26311)"/>
<path d="M30.8295 52.3621L27.5861 35.415L15.3916 46.6952L7.96899 38.6221L21.5736 28.9068L4.17104 23.5137L7.16962 13.988L24.0177 21.2198L18.8096 4.5466L29.1881 3.09991L32.4742 20.041L44.6687 8.76091L52.0913 16.834L38.444 26.5552L55.8893 31.9423L52.8907 41.468L36.0426 34.2363L41.208 50.9154L30.8295 52.3621Z" fill="#5CE937"/>
<defs>
<linearGradient id="paint0_linear_1863_26311" x1="41.1768" y1="15.5574" x2="50.3309" y2="20.26" gradientUnits="userSpaceOnUse">
<stop stop-color="#1F7B08"/>
<stop offset="1" stop-color="#1F7B08"/>
</linearGradient>
<linearGradient id="paint1_linear_1863_26311" x1="15.2365" y1="11.4986" x2="22.8599" y2="15.4149" gradientUnits="userSpaceOnUse">
<stop stop-color="#57EA32"/>
<stop offset="1" stop-color="#57EA32"/>
</linearGradient>
<linearGradient id="paint2_linear_1863_26311" x1="32.5003" y1="19.9909" x2="37.5637" y2="22.592" gradientUnits="userSpaceOnUse">
<stop stop-color="#A4F88F"/>
<stop offset="1" stop-color="#A4F88F"/>
</linearGradient>
<linearGradient id="paint3_linear_1863_26311" x1="26.6353" y1="8.06656" x2="36.1211" y2="12.9396" gradientUnits="userSpaceOnUse">
<stop stop-color="#39CE14"/>
<stop offset="1" stop-color="#39CE14"/>
</linearGradient>
<linearGradient id="paint4_linear_1863_26311" x1="37.5039" y1="28.3818" x2="44.3504" y2="31.899" gradientUnits="userSpaceOnUse">
<stop stop-color="#94F67B"/>
<stop offset="1" stop-color="#94F67B"/>
</linearGradient>
<linearGradient id="paint5_linear_1863_26311" x1="15.8201" y1="10.3631" x2="26.7176" y2="15.9613" gradientUnits="userSpaceOnUse">
<stop stop-color="#34BE11"/>
<stop offset="1" stop-color="#34BE11"/>
</linearGradient>
<linearGradient id="paint6_linear_1863_26311" x1="32.6771" y1="37.7771" x2="48.6694" y2="45.9927" gradientUnits="userSpaceOnUse">
<stop stop-color="#34BE11"/>
<stop offset="1" stop-color="#34BE11"/>
</linearGradient>
<linearGradient id="paint7_linear_1863_26311" x1="52.7838" y1="37.9863" x2="54.2831" y2="38.7565" gradientUnits="userSpaceOnUse">
<stop stop-color="#6BEF4A"/>
<stop offset="1" stop-color="#6BEF4A"/>
</linearGradient>
<linearGradient id="paint8_linear_1863_26311" x1="1.53778" y1="24.9458" x2="17.8073" y2="33.3038" gradientUnits="userSpaceOnUse">
<stop stop-color="#2EAE0E"/>
<stop offset="1" stop-color="#2EAE0E"/>
</linearGradient>
<linearGradient id="paint9_linear_1863_26311" x1="30.4118" y1="45.1958" x2="46.6813" y2="53.5538" gradientUnits="userSpaceOnUse">
<stop stop-color="#2EAE0E"/>
<stop offset="1" stop-color="#2EAE0E"/>
</linearGradient>
<linearGradient id="paint10_linear_1863_26311" x1="4.06405" y1="20.0293" x2="5.56334" y2="20.7995" gradientUnits="userSpaceOnUse">
<stop stop-color="#6BEF4A"/>
<stop offset="1" stop-color="#6BEF4A"/>
</linearGradient>
<linearGradient id="paint11_linear_1863_26311" x1="-1.58614" y1="34.7172" x2="14.3748" y2="42.9167" gradientUnits="userSpaceOnUse">
<stop stop-color="#34BE11"/>
<stop offset="1" stop-color="#34BE11"/>
</linearGradient>
<linearGradient id="paint12_linear_1863_26311" x1="33.0637" y1="40.0336" x2="43.9298" y2="45.6158" gradientUnits="userSpaceOnUse">
<stop stop-color="#34BE11"/>
<stop offset="1" stop-color="#34BE11"/>
</linearGradient>
<linearGradient id="paint13_linear_1863_26311" x1="7.03561" y1="40.435" x2="13.8507" y2="43.936" gradientUnits="userSpaceOnUse">
<stop stop-color="#94F67B"/>
<stop offset="1" stop-color="#94F67B"/>
</linearGradient>
<linearGradient id="paint14_linear_1863_26311" x1="25.0434" y1="40.3631" x2="34.4978" y2="45.22" gradientUnits="userSpaceOnUse">
<stop stop-color="#3ACF14"/>
<stop offset="1" stop-color="#3ACF14"/>
</linearGradient>
<linearGradient id="paint15_linear_1863_26311" x1="15.4168" y1="46.6432" x2="20.4802" y2="49.2444" gradientUnits="userSpaceOnUse">
<stop stop-color="#A4F88F"/>
<stop offset="1" stop-color="#A4F88F"/>
</linearGradient>
<linearGradient id="paint16_linear_1863_26311" x1="27.257" y1="59.315" x2="34.8804" y2="63.2313" gradientUnits="userSpaceOnUse">
<stop stop-color="#57EA32"/>
<stop offset="1" stop-color="#57EA32"/>
</linearGradient>
<linearGradient id="paint17_linear_1863_26311" x1="4.47664" y1="45.4168" x2="13.6307" y2="50.1194" gradientUnits="userSpaceOnUse">
<stop stop-color="#1F7B08"/>
<stop offset="1" stop-color="#1F7B08"/>
</linearGradient>
</defs>
</svg>
