<svg width="95" height="92" viewBox="0 0 95 92" fill="none" xmlns="http://www.w3.org/2000/svg">
<path d="M74.5078 12.3162C86.854 20.6402 93.995 35.4783 91.7468 51.4752C88.5263 74.3899 67.2599 91.0051 44.2468 88.5863C37.2994 87.8561 30.987 85.4746 25.648 81.875C13.3018 73.5511 6.16081 58.713 8.40904 42.7161C11.6295 19.8014 32.896 3.18622 55.909 5.605C62.8565 6.3352 69.1688 8.71664 74.5078 12.3162Z" fill="#41E225"/>
<path d="M50.9112 2.2339C27.8981 -0.18487 6.63164 16.4303 3.41119 39.345L8.40909 42.7161C11.6295 19.8014 32.896 3.18625 55.9091 5.60502L50.9112 2.2339Z" fill="url(#paint0_linear_4006_19957)"/>
<path d="M3.41129 39.3447C1.16307 55.3417 8.30405 70.1797 20.6502 78.5037L25.6346 81.8657C13.2967 73.54 6.16178 58.7069 8.40918 42.7158L3.41129 39.3447Z" fill="url(#paint1_linear_4006_19957)"/>
<path d="M69.5102 8.94562C64.1712 5.34602 57.8588 2.96458 50.9114 2.23438L55.9093 5.6055C62.8567 6.3357 69.1691 8.71714 74.5081 12.3167L69.5102 8.94562Z" fill="url(#paint2_linear_4006_19957)"/>
<path d="M20.6502 78.5039C25.9892 82.1035 32.3016 84.4849 39.249 85.2152L44.2469 88.5863C37.2995 87.8561 30.9871 85.4746 25.6481 81.875L20.6502 78.5039Z" fill="url(#paint3_linear_4006_19957)"/>
<path d="M86.749 48.1053C88.9964 32.1142 81.8615 17.2811 69.5236 8.95542L74.508 12.3174C86.8542 20.6414 93.9951 35.4794 91.7469 51.4764L86.749 48.1053Z" fill="url(#paint4_linear_4006_19957)"/>
<path d="M39.2489 85.2156C62.262 87.6343 83.5285 71.0191 86.7489 48.1045L91.7468 51.4756C88.5263 74.3903 67.2599 91.0055 44.2468 88.5867L39.2489 85.2156Z" fill="url(#paint5_linear_4006_19957)"/>
<g clip-path="url(#clip0_4006_19957)">
<rect x="1.87994" y="0.753906" width="85" height="85" rx="42.5" fill="url(#paint6_linear_4006_19957)"/>
<mask id="path-9-inside-1_4006_19957" fill="white">
<path d="M69.1408 49.8726C69.7632 48.1832 69.9283 46.3594 69.6192 44.5857C69.31 42.812 68.5377 41.1515 67.3804 39.7723C67.5677 39.3702 67.7197 38.9526 67.8347 38.5242C68.5298 36.6144 68.4378 34.5067 67.5789 32.6647C66.72 30.8228 65.1645 29.3975 63.2547 28.7024L62.8227 28.5451C62.8263 27.2915 62.5223 26.0561 61.9373 24.9472C61.3523 23.8384 60.5042 22.89 59.4674 22.1853C58.4305 21.4806 57.2366 21.041 55.9903 20.9051C54.7441 20.7692 53.4835 20.9411 52.3191 21.4059C51.7259 20.3014 50.8707 19.3594 49.8287 18.6624C48.7866 17.9654 47.5894 17.5347 46.3422 17.4081C45.0949 17.2815 43.8356 17.4629 42.6748 17.9362C41.5139 18.4096 40.4869 19.1606 39.6838 20.1233L39.2518 19.966C37.342 19.2709 35.2343 19.363 33.3924 20.2219C31.5504 21.0808 30.1251 22.6362 29.43 24.546C29.2427 24.9481 29.0907 25.3657 28.9757 25.7942C27.3332 26.0683 25.7826 26.7398 24.4589 27.7502C23.1351 28.7605 22.0784 30.0791 21.3807 31.5911C20.683 33.1031 20.3654 34.7628 20.4556 36.4256C20.5458 38.0884 21.0411 39.7039 21.8983 41.1316C20.5776 42.3125 19.5867 43.8165 19.0228 45.496C18.4589 47.1755 18.3414 48.9728 18.6818 50.7114C19.0222 52.45 19.8089 54.0702 20.9645 55.413C22.1202 56.7559 23.6051 57.7751 25.2736 58.3707L25.7057 58.528C25.702 59.7817 26.0061 61.0171 26.591 62.1259C27.176 63.2347 28.0241 64.1831 29.061 64.8878C30.0978 65.5926 31.2917 66.0322 32.538 66.1681C33.7843 66.304 35.0449 66.132 36.2093 65.6673C36.8025 66.7717 37.6576 67.7137 38.6997 68.4107C39.7418 69.1077 40.9389 69.5384 42.1862 69.665C43.4334 69.7916 44.6927 69.6103 45.8536 69.1369C47.0145 68.6635 48.0414 67.9125 48.8445 66.9498L49.2766 67.1071C50.935 67.6989 52.7181 67.852 54.4532 67.5516C56.1882 67.2513 57.8161 66.5077 59.1791 65.3929C60.5421 64.2781 61.5938 62.83 62.2323 61.189C62.8708 59.548 63.0744 57.7699 62.8233 56.0271C64.2691 55.5382 65.5871 54.7316 66.6803 53.6666C67.7735 52.6016 68.6143 51.3052 69.1408 49.8726ZM44.8779 34.3819C44.464 33.8926 44.0117 33.4371 43.5253 33.0197C42.9947 32.5959 42.3174 32.4002 41.6425 32.4758C40.9676 32.5513 40.3504 32.8918 39.9265 33.4224C39.5027 33.953 39.307 34.6303 39.3825 35.3052C39.458 35.9801 39.7986 36.5974 40.3292 37.0212C41.1316 37.6915 41.709 38.5919 41.9834 39.6008C42.2579 40.6097 42.2161 41.6785 41.8639 42.6629L40.5097 46.3834C40.0958 45.8941 39.6435 45.4386 39.1571 45.0212C38.6265 44.5974 37.9492 44.4017 37.2743 44.4772C36.5994 44.5527 35.9822 44.8933 35.5583 45.4239C35.1345 45.9545 34.9388 46.6318 35.0144 47.3067C35.0899 47.9816 35.4304 48.5988 35.961 49.0226C36.7634 49.693 37.3408 50.5934 37.6152 51.6023C37.8897 52.6112 37.848 53.68 37.4957 54.6644L35.7484 59.465C35.5167 60.1016 35.0416 60.6201 34.4277 60.9064C33.8137 61.1927 33.1111 61.2233 32.4745 60.9916C32.0112 60.8196 31.6078 60.5169 31.3132 60.1201C31.0185 59.7234 30.8453 59.2497 30.8144 58.7565C31.3029 58.6668 31.7842 58.5422 32.2549 58.3837C32.571 58.2703 32.8617 58.0958 33.1104 57.87C33.3591 57.6443 33.5608 57.3718 33.7042 57.068C33.8476 56.7643 33.9297 56.4353 33.9459 56.0999C33.9621 55.7644 33.9121 55.429 33.7987 55.1129C33.6853 54.7967 33.5108 54.506 33.285 54.2573C33.0593 54.0087 32.7868 53.8069 32.483 53.6635C32.1793 53.5202 31.8503 53.438 31.5149 53.4218C31.1794 53.4056 30.844 53.4556 30.5279 53.569C29.3956 53.9832 28.1534 53.9836 27.0209 53.5701C25.7477 53.1067 24.7107 52.1565 24.1381 50.9286C23.5655 49.7006 23.5042 48.2955 23.9676 47.0223C24.3079 46.123 24.8951 45.338 25.6617 44.7575C26.1652 45.0502 26.6939 45.2972 27.2415 45.4956C27.8781 45.7273 28.5807 45.6967 29.1947 45.4104C29.8086 45.1241 30.2837 44.6056 30.5154 43.969C30.7471 43.3324 30.7165 42.6298 30.4302 42.0158C30.1439 41.4018 29.6254 40.9267 28.9888 40.695C28.4206 40.4919 27.8969 40.1813 27.4461 39.7802C26.6962 39.1546 26.1413 38.3272 25.8471 37.396C25.5529 36.4647 25.5318 35.4687 25.7863 34.5258C26.0408 33.583 26.5602 32.7328 27.283 32.0761C28.0058 31.4193 28.9018 30.9835 29.8646 30.8203C30.0915 31.2583 30.3588 31.6741 30.663 32.0623C31.101 32.5822 31.7275 32.9068 32.4049 32.9647C33.0822 33.0226 33.7547 32.809 34.2746 32.3711C34.7945 31.9331 35.1191 31.3065 35.177 30.6292C35.2349 29.9519 35.0214 29.2793 34.5834 28.7594C34.3133 28.45 34.1311 28.0739 34.0556 27.6703C33.974 27.2041 34.0349 26.7242 34.2306 26.2933C34.4623 25.6567 34.9374 25.1382 35.5514 24.8519C36.1654 24.5656 36.8679 24.5349 37.5045 24.7666C37.6802 24.8042 37.8499 24.8659 38.0086 24.9501C37.9953 25.382 38.0105 25.8143 38.054 26.2442C38.1107 26.5763 38.2326 26.894 38.4126 27.1788C38.5925 27.4636 38.8271 27.71 39.1027 27.9038C39.3783 28.0976 39.6895 28.235 40.0184 28.308C40.3474 28.381 40.6875 28.3882 41.0192 28.3292C41.6679 28.2027 42.2423 27.8297 42.6217 27.2886C43.0012 26.7474 43.1561 26.0803 43.054 25.4273C42.9866 24.9858 43.0294 24.5345 43.1787 24.1136C43.4104 23.477 43.8855 22.9585 44.4995 22.6722C45.1135 22.3859 45.8161 22.3552 46.4527 22.5869C47.0893 22.8186 47.6078 23.2937 47.8941 23.9077C48.1804 24.5217 48.211 25.2243 47.9793 25.8609L44.8779 34.3819ZM59.5621 51.4694C58.959 51.487 58.3581 51.3883 57.7923 51.1787C57.1557 50.947 56.4531 50.9776 55.8392 51.2639C55.2252 51.5502 54.7501 52.0687 54.5184 52.7053C54.2867 53.3419 54.3173 54.0445 54.6036 54.6585C54.89 55.2725 55.4084 55.7476 56.045 55.9793C56.592 56.1793 57.1558 56.3299 57.7297 56.4293C57.9438 57.3667 57.8891 58.3455 57.5717 59.2532C57.1083 60.5264 56.1581 61.5633 54.9301 62.1359C53.7022 62.7086 52.297 62.7699 51.0238 62.3065C49.8905 61.8953 48.9392 61.0965 48.3381 60.0514C47.9962 59.4655 47.4356 59.0395 46.7796 58.867C46.1236 58.6945 45.4259 58.7897 44.8401 59.1316C44.2542 59.4735 43.8282 60.0341 43.6557 60.6901C43.4832 61.3461 43.5784 62.0437 43.9203 62.6296C44.1789 63.0535 44.4676 63.4584 44.7841 63.841C44.4435 64.199 44.0063 64.4505 43.5255 64.5651C43.0448 64.6796 42.5412 64.6522 42.0757 64.4862C41.4391 64.2545 40.9206 63.7794 40.6343 63.1654C40.348 62.5514 40.3173 61.8489 40.549 61.2123L42.2963 56.4117C42.6592 55.4311 43.3143 54.5855 44.173 53.9891C45.0318 53.3927 46.0528 53.0741 47.0984 53.0763C47.7773 53.0927 48.4349 52.8388 48.9266 52.3703C49.4182 51.9018 49.7037 51.2572 49.7201 50.5783C49.7365 49.8994 49.4825 49.2418 49.0141 48.7501C48.5456 48.2585 47.901 47.973 47.2221 47.9566C46.5812 47.9637 45.942 48.0219 45.3103 48.1307L46.6645 44.4102C47.0274 43.4297 47.6825 42.5841 48.5412 41.9876C49.3999 41.3912 50.421 41.0726 51.4666 41.0748C52.1455 41.0913 52.8031 40.8373 53.2948 40.3688C53.7864 39.9004 54.0719 39.2558 54.0883 38.5769C54.1047 37.898 53.8507 37.2403 53.3822 36.7487C52.9138 36.257 52.2692 35.9716 51.5903 35.9552C50.9494 35.9623 50.3101 36.0205 49.6785 36.1292L52.7799 27.6081C53.0116 26.9715 53.4867 26.4531 54.1007 26.1668C54.7147 25.8805 55.4173 25.8498 56.0538 26.0815C56.6904 26.3132 57.2089 26.7883 57.4952 27.4023C57.7815 28.0163 57.8122 28.7188 57.5805 29.3554C57.4243 29.7738 57.1671 30.1471 56.8317 30.442C56.5728 30.6564 56.3587 30.9198 56.2018 31.2171C56.045 31.5143 55.9483 31.8397 55.9174 32.1744C55.8864 32.5091 55.9219 32.8466 56.0217 33.1676C56.1215 33.4886 56.2836 33.7867 56.4989 34.0449C56.7151 34.3033 56.9802 34.5164 57.2791 34.6719C57.578 34.8274 57.9047 34.9222 58.2404 34.9509C58.5761 34.9796 58.9142 34.9416 59.2352 34.8391C59.5561 34.7366 59.8536 34.5716 60.1105 34.3537C60.4318 34.0301 60.7301 33.6845 61.0034 33.3195C61.1791 33.3571 61.3487 33.4188 61.5075 33.503C62.1441 33.7347 62.6625 34.2098 62.9488 34.8238C63.2351 35.4377 63.2658 36.1403 63.0341 36.7769C62.8592 37.2461 62.5502 37.6535 62.1456 37.9486C61.8359 38.1886 61.47 38.3455 61.0826 38.4043C60.413 38.5211 59.8171 38.899 59.426 39.4551C59.035 40.0112 58.8809 40.6998 58.9977 41.3695C59.1144 42.0392 59.4923 42.6351 60.0484 43.0261C60.6045 43.4171 61.2931 43.5712 61.9628 43.4545C62.4786 43.3783 62.9839 43.243 63.4687 43.0512C64.1071 43.7881 64.5212 44.6923 64.6622 45.657C64.8032 46.6217 64.6652 47.6066 64.2646 48.4955C63.8639 49.3843 63.2173 50.1399 62.401 50.673C61.5848 51.2062 60.633 51.4947 59.6581 51.5044L59.5621 51.4694Z"/>
</mask>
<path d="M69.1408 49.8726C69.7632 48.1832 69.9283 46.3594 69.6192 44.5857C69.31 42.812 68.5377 41.1515 67.3804 39.7723C67.5677 39.3702 67.7197 38.9526 67.8347 38.5242C68.5298 36.6144 68.4378 34.5067 67.5789 32.6647C66.72 30.8228 65.1645 29.3975 63.2547 28.7024L62.8227 28.5451C62.8263 27.2915 62.5223 26.0561 61.9373 24.9472C61.3523 23.8384 60.5042 22.89 59.4674 22.1853C58.4305 21.4806 57.2366 21.041 55.9903 20.9051C54.7441 20.7692 53.4835 20.9411 52.3191 21.4059C51.7259 20.3014 50.8707 19.3594 49.8287 18.6624C48.7866 17.9654 47.5894 17.5347 46.3422 17.4081C45.0949 17.2815 43.8356 17.4629 42.6748 17.9362C41.5139 18.4096 40.4869 19.1606 39.6838 20.1233L39.2518 19.966C37.342 19.2709 35.2343 19.363 33.3924 20.2219C31.5504 21.0808 30.1251 22.6362 29.43 24.546C29.2427 24.9481 29.0907 25.3657 28.9757 25.7942C27.3332 26.0683 25.7826 26.7398 24.4589 27.7502C23.1351 28.7605 22.0784 30.0791 21.3807 31.5911C20.683 33.1031 20.3654 34.7628 20.4556 36.4256C20.5458 38.0884 21.0411 39.7039 21.8983 41.1316C20.5776 42.3125 19.5867 43.8165 19.0228 45.496C18.4589 47.1755 18.3414 48.9728 18.6818 50.7114C19.0222 52.45 19.8089 54.0702 20.9645 55.413C22.1202 56.7559 23.6051 57.7751 25.2736 58.3707L25.7057 58.528C25.702 59.7817 26.0061 61.0171 26.591 62.1259C27.176 63.2347 28.0241 64.1831 29.061 64.8878C30.0978 65.5926 31.2917 66.0322 32.538 66.1681C33.7843 66.304 35.0449 66.132 36.2093 65.6673C36.8025 66.7717 37.6576 67.7137 38.6997 68.4107C39.7418 69.1077 40.9389 69.5384 42.1862 69.665C43.4334 69.7916 44.6927 69.6103 45.8536 69.1369C47.0145 68.6635 48.0414 67.9125 48.8445 66.9498L49.2766 67.1071C50.935 67.6989 52.7181 67.852 54.4532 67.5516C56.1882 67.2513 57.8161 66.5077 59.1791 65.3929C60.5421 64.2781 61.5938 62.83 62.2323 61.189C62.8708 59.548 63.0744 57.7699 62.8233 56.0271C64.2691 55.5382 65.5871 54.7316 66.6803 53.6666C67.7735 52.6016 68.6143 51.3052 69.1408 49.8726ZM44.8779 34.3819C44.464 33.8926 44.0117 33.4371 43.5253 33.0197C42.9947 32.5959 42.3174 32.4002 41.6425 32.4758C40.9676 32.5513 40.3504 32.8918 39.9265 33.4224C39.5027 33.953 39.307 34.6303 39.3825 35.3052C39.458 35.9801 39.7986 36.5974 40.3292 37.0212C41.1316 37.6915 41.709 38.5919 41.9834 39.6008C42.2579 40.6097 42.2161 41.6785 41.8639 42.6629L40.5097 46.3834C40.0958 45.8941 39.6435 45.4386 39.1571 45.0212C38.6265 44.5974 37.9492 44.4017 37.2743 44.4772C36.5994 44.5527 35.9822 44.8933 35.5583 45.4239C35.1345 45.9545 34.9388 46.6318 35.0144 47.3067C35.0899 47.9816 35.4304 48.5988 35.961 49.0226C36.7634 49.693 37.3408 50.5934 37.6152 51.6023C37.8897 52.6112 37.848 53.68 37.4957 54.6644L35.7484 59.465C35.5167 60.1016 35.0416 60.6201 34.4277 60.9064C33.8137 61.1927 33.1111 61.2233 32.4745 60.9916C32.0112 60.8196 31.6078 60.5169 31.3132 60.1201C31.0185 59.7234 30.8453 59.2497 30.8144 58.7565C31.3029 58.6668 31.7842 58.5422 32.2549 58.3837C32.571 58.2703 32.8617 58.0958 33.1104 57.87C33.3591 57.6443 33.5608 57.3718 33.7042 57.068C33.8476 56.7643 33.9297 56.4353 33.9459 56.0999C33.9621 55.7644 33.9121 55.429 33.7987 55.1129C33.6853 54.7967 33.5108 54.506 33.285 54.2573C33.0593 54.0087 32.7868 53.8069 32.483 53.6635C32.1793 53.5202 31.8503 53.438 31.5149 53.4218C31.1794 53.4056 30.844 53.4556 30.5279 53.569C29.3956 53.9832 28.1534 53.9836 27.0209 53.5701C25.7477 53.1067 24.7107 52.1565 24.1381 50.9286C23.5655 49.7006 23.5042 48.2955 23.9676 47.0223C24.3079 46.123 24.8951 45.338 25.6617 44.7575C26.1652 45.0502 26.6939 45.2972 27.2415 45.4956C27.8781 45.7273 28.5807 45.6967 29.1947 45.4104C29.8086 45.1241 30.2837 44.6056 30.5154 43.969C30.7471 43.3324 30.7165 42.6298 30.4302 42.0158C30.1439 41.4018 29.6254 40.9267 28.9888 40.695C28.4206 40.4919 27.8969 40.1813 27.4461 39.7802C26.6962 39.1546 26.1413 38.3272 25.8471 37.396C25.5529 36.4647 25.5318 35.4687 25.7863 34.5258C26.0408 33.583 26.5602 32.7328 27.283 32.0761C28.0058 31.4193 28.9018 30.9835 29.8646 30.8203C30.0915 31.2583 30.3588 31.6741 30.663 32.0623C31.101 32.5822 31.7275 32.9068 32.4049 32.9647C33.0822 33.0226 33.7547 32.809 34.2746 32.3711C34.7945 31.9331 35.1191 31.3065 35.177 30.6292C35.2349 29.9519 35.0214 29.2793 34.5834 28.7594C34.3133 28.45 34.1311 28.0739 34.0556 27.6703C33.974 27.2041 34.0349 26.7242 34.2306 26.2933C34.4623 25.6567 34.9374 25.1382 35.5514 24.8519C36.1654 24.5656 36.8679 24.5349 37.5045 24.7666C37.6802 24.8042 37.8499 24.8659 38.0086 24.9501C37.9953 25.382 38.0105 25.8143 38.054 26.2442C38.1107 26.5763 38.2326 26.894 38.4126 27.1788C38.5925 27.4636 38.8271 27.71 39.1027 27.9038C39.3783 28.0976 39.6895 28.235 40.0184 28.308C40.3474 28.381 40.6875 28.3882 41.0192 28.3292C41.6679 28.2027 42.2423 27.8297 42.6217 27.2886C43.0012 26.7474 43.1561 26.0803 43.054 25.4273C42.9866 24.9858 43.0294 24.5345 43.1787 24.1136C43.4104 23.477 43.8855 22.9585 44.4995 22.6722C45.1135 22.3859 45.8161 22.3552 46.4527 22.5869C47.0893 22.8186 47.6078 23.2937 47.8941 23.9077C48.1804 24.5217 48.211 25.2243 47.9793 25.8609L44.8779 34.3819ZM59.5621 51.4694C58.959 51.487 58.3581 51.3883 57.7923 51.1787C57.1557 50.947 56.4531 50.9776 55.8392 51.2639C55.2252 51.5502 54.7501 52.0687 54.5184 52.7053C54.2867 53.3419 54.3173 54.0445 54.6036 54.6585C54.89 55.2725 55.4084 55.7476 56.045 55.9793C56.592 56.1793 57.1558 56.3299 57.7297 56.4293C57.9438 57.3667 57.8891 58.3455 57.5717 59.2532C57.1083 60.5264 56.1581 61.5633 54.9301 62.1359C53.7022 62.7086 52.297 62.7699 51.0238 62.3065C49.8905 61.8953 48.9392 61.0965 48.3381 60.0514C47.9962 59.4655 47.4356 59.0395 46.7796 58.867C46.1236 58.6945 45.4259 58.7897 44.8401 59.1316C44.2542 59.4735 43.8282 60.0341 43.6557 60.6901C43.4832 61.3461 43.5784 62.0437 43.9203 62.6296C44.1789 63.0535 44.4676 63.4584 44.7841 63.841C44.4435 64.199 44.0063 64.4505 43.5255 64.5651C43.0448 64.6796 42.5412 64.6522 42.0757 64.4862C41.4391 64.2545 40.9206 63.7794 40.6343 63.1654C40.348 62.5514 40.3173 61.8489 40.549 61.2123L42.2963 56.4117C42.6592 55.4311 43.3143 54.5855 44.173 53.9891C45.0318 53.3927 46.0528 53.0741 47.0984 53.0763C47.7773 53.0927 48.4349 52.8388 48.9266 52.3703C49.4182 51.9018 49.7037 51.2572 49.7201 50.5783C49.7365 49.8994 49.4825 49.2418 49.0141 48.7501C48.5456 48.2585 47.901 47.973 47.2221 47.9566C46.5812 47.9637 45.942 48.0219 45.3103 48.1307L46.6645 44.4102C47.0274 43.4297 47.6825 42.5841 48.5412 41.9876C49.3999 41.3912 50.421 41.0726 51.4666 41.0748C52.1455 41.0913 52.8031 40.8373 53.2948 40.3688C53.7864 39.9004 54.0719 39.2558 54.0883 38.5769C54.1047 37.898 53.8507 37.2403 53.3822 36.7487C52.9138 36.257 52.2692 35.9716 51.5903 35.9552C50.9494 35.9623 50.3101 36.0205 49.6785 36.1292L52.7799 27.6081C53.0116 26.9715 53.4867 26.4531 54.1007 26.1668C54.7147 25.8805 55.4173 25.8498 56.0538 26.0815C56.6904 26.3132 57.2089 26.7883 57.4952 27.4023C57.7815 28.0163 57.8122 28.7188 57.5805 29.3554C57.4243 29.7738 57.1671 30.1471 56.8317 30.442C56.5728 30.6564 56.3587 30.9198 56.2018 31.2171C56.045 31.5143 55.9483 31.8397 55.9174 32.1744C55.8864 32.5091 55.9219 32.8466 56.0217 33.1676C56.1215 33.4886 56.2836 33.7867 56.4989 34.0449C56.7151 34.3033 56.9802 34.5164 57.2791 34.6719C57.578 34.8274 57.9047 34.9222 58.2404 34.9509C58.5761 34.9796 58.9142 34.9416 59.2352 34.8391C59.5561 34.7366 59.8536 34.5716 60.1105 34.3537C60.4318 34.0301 60.7301 33.6845 61.0034 33.3195C61.1791 33.3571 61.3487 33.4188 61.5075 33.503C62.1441 33.7347 62.6625 34.2098 62.9488 34.8238C63.2351 35.4377 63.2658 36.1403 63.0341 36.7769C62.8592 37.2461 62.5502 37.6535 62.1456 37.9486C61.8359 38.1886 61.47 38.3455 61.0826 38.4043C60.413 38.5211 59.8171 38.899 59.426 39.4551C59.035 40.0112 58.8809 40.6998 58.9977 41.3695C59.1144 42.0392 59.4923 42.6351 60.0484 43.0261C60.6045 43.4171 61.2931 43.5712 61.9628 43.4545C62.4786 43.3783 62.9839 43.243 63.4687 43.0512C64.1071 43.7881 64.5212 44.6923 64.6622 45.657C64.8032 46.6217 64.6652 47.6066 64.2646 48.4955C63.8639 49.3843 63.2173 50.1399 62.401 50.673C61.5848 51.2062 60.633 51.4947 59.6581 51.5044L59.5621 51.4694Z" fill="black" stroke="#41E225" mask="url(#path-9-inside-1_4006_19957)"/>
</g>
<defs>
<linearGradient id="paint0_linear_4006_19957" x1="7.85973" y1="42.3455" x2="39.9172" y2="-5.18163" gradientUnits="userSpaceOnUse">
<stop stop-color="#2EB516"/>
<stop offset="0.5" stop-color="#49ED2C"/>
<stop offset="1" stop-color="#269412"/>
</linearGradient>
<linearGradient id="paint1_linear_4006_19957" x1="-0.246513" y1="64.4087" x2="12.5167" y2="45.4864" gradientUnits="userSpaceOnUse">
<stop stop-color="#135608"/>
<stop offset="0.5" stop-color="#19690A"/>
<stop offset="1" stop-color="#2EB516"/>
</linearGradient>
<linearGradient id="paint2_linear_4006_19957" x1="60.6926" y1="8.83192" x2="63.3971" y2="4.82234" gradientUnits="userSpaceOnUse">
<stop stop-color="#269412"/>
<stop offset="0.5" stop-color="#1C740C"/>
<stop offset="1" stop-color="#135608"/>
</linearGradient>
<linearGradient id="paint3_linear_4006_19957" x1="30.4315" y1="85.1015" x2="33.136" y2="81.0919" gradientUnits="userSpaceOnUse">
<stop stop-color="#135608"/>
<stop offset="0.5" stop-color="#1C740C"/>
<stop offset="1" stop-color="#269412"/>
</linearGradient>
<linearGradient id="paint4_linear_4006_19957" x1="66.1349" y1="34.2009" x2="78.8981" y2="15.2786" gradientUnits="userSpaceOnUse">
<stop stop-color="#2EB516"/>
<stop offset="0.5" stop-color="#19690A"/>
<stop offset="1" stop-color="#135608"/>
</linearGradient>
<linearGradient id="paint5_linear_4006_19957" x1="43.8059" y1="88.2893" x2="75.8634" y2="40.7621" gradientUnits="userSpaceOnUse">
<stop stop-color="#269412"/>
<stop offset="0.5" stop-color="#49ED2C"/>
<stop offset="1" stop-color="#2EB516"/>
</linearGradient>
<linearGradient id="paint6_linear_4006_19957" x1="-0.215482" y1="14.7078" x2="93.3422" y2="18.1407" gradientUnits="userSpaceOnUse">
<stop stop-color="#25DD00"/>
<stop offset="0.504808" stop-color="#20E31D"/>
<stop offset="1" stop-color="#6EE130"/>
</linearGradient>
<clipPath id="clip0_4006_19957">
<rect x="1.87994" y="0.753906" width="85" height="85" rx="42.5" fill="white"/>
</clipPath>
</defs>
</svg>
