<svg width="95" height="92" viewBox="0 0 95 92" fill="none" xmlns="http://www.w3.org/2000/svg">
<path d="M74.5081 12.3162C86.8543 20.6402 93.9952 35.4783 91.747 51.4752C88.5266 74.3899 67.2601 91.0051 44.247 88.5863C37.2996 87.8561 30.9872 85.4746 25.6482 81.875C13.302 73.5511 6.16106 58.713 8.40928 42.7161C11.6297 19.8014 32.8962 3.18622 55.9093 5.605C62.8567 6.3352 69.1691 8.71664 74.5081 12.3162Z" fill="#41E225"/>
<path d="M50.9111 2.2339C27.8981 -0.18487 6.63158 16.4303 3.41113 39.345L8.40902 42.7161C11.6295 19.8014 32.8959 3.18625 55.909 5.60502L50.9111 2.2339Z" fill="url(#paint0_linear_1950_53063)"/>
<path d="M3.41123 39.3447C1.16301 55.3417 8.30399 70.1797 20.6502 78.5037L25.6345 81.8657C13.2967 73.54 6.16172 58.7069 8.40912 42.7158L3.41123 39.3447Z" fill="url(#paint1_linear_1950_53063)"/>
<path d="M69.5099 8.94562C64.1709 5.34602 57.8586 2.96458 50.9111 2.23438L55.909 5.6055C62.8564 6.3357 69.1688 8.71714 74.5078 12.3167L69.5099 8.94562Z" fill="url(#paint2_linear_1950_53063)"/>
<path d="M20.6504 78.5039C25.9894 82.1035 32.3018 84.4849 39.2492 85.2152L44.2471 88.5863C37.2996 87.8561 30.9873 85.4746 25.6483 81.875L20.6504 78.5039Z" fill="url(#paint3_linear_1950_53063)"/>
<path d="M86.7487 48.1053C88.9961 32.1142 81.8612 17.2811 69.5233 8.95542L74.5077 12.3174C86.8539 20.6414 93.9948 35.4794 91.7466 51.4764L86.7487 48.1053Z" fill="url(#paint4_linear_1950_53063)"/>
<path d="M39.249 85.2156C62.2621 87.6343 83.5286 71.0191 86.749 48.1045L91.7469 51.4756C88.5265 74.3903 67.26 91.0055 44.2469 88.5867L39.249 85.2156Z" fill="url(#paint5_linear_1950_53063)"/>
<rect x="1.87988" y="0.753906" width="85" height="85" rx="42.5" fill="url(#paint6_linear_1950_53063)"/>
<g clip-path="url(#clip0_1950_53063)">
<path d="M28.4796 24.7366C29.5782 21.7291 32.9092 20.1873 35.9151 21.2776C38.2626 22.1291 39.7273 24.3378 39.7364 26.6975L51.7081 31.0393L58.2725 27.9895C58.7519 27.7668 59.3 27.743 59.797 27.9231L66.9454 30.5159C67.9838 30.8925 68.5203 32.04 68.1436 33.0784C67.767 34.1164 66.6203 34.6529 65.5821 34.2766L59.2091 31.9651L54.464 34.1692L56.6729 38.8909L63.0431 41.2014C64.0814 41.5781 64.6179 42.7256 64.2413 43.7639C63.8646 44.8022 62.7171 45.3388 61.6788 44.9622L54.5304 42.3694C54.032 42.1886 53.6262 41.8164 53.4015 41.3362L50.3419 34.7981L38.3673 30.4554C37.8511 31.0653 37.218 31.5534 36.5157 31.9016L37.9132 47.2132L57.2716 54.2346C58.2423 54.5869 59.0352 55.3095 59.4737 56.2464C59.9123 57.1838 59.9597 58.2575 59.6046 59.2298L57.3282 65.4632C56.9498 66.4989 55.8043 67.0324 54.7677 66.6565L20.8136 54.3411C20.3142 54.16 19.9072 53.7874 19.6827 53.3059C19.4583 52.8245 19.4341 52.2736 19.6163 51.7747L21.8927 45.5413C22.2477 44.5694 22.9754 43.7804 23.9122 43.345L24.089 43.2679C24.9227 42.9293 25.8482 42.8889 26.7081 43.1536L26.8907 43.2151L33.7589 45.7063L32.5382 32.3401C32.3411 32.2912 32.1443 32.2322 31.9493 32.1614C28.9402 31.0698 27.3799 27.7475 28.4796 24.7366ZM24.0616 51.2639L54.255 62.2161L55.8097 57.9583L25.6153 47.0061L24.0616 51.2639ZM34.5509 25.0374C33.6091 24.6961 32.5748 25.1832 32.2364 26.1096C31.8996 27.0328 32.3751 28.0613 33.3136 28.4016C34.2553 28.7431 35.2896 28.2559 35.628 27.3294C35.965 26.4062 35.4894 25.3778 34.5509 25.0374Z" fill="black"/>
</g>
<defs>
<linearGradient id="paint0_linear_1950_53063" x1="7.85967" y1="42.3455" x2="39.9172" y2="-5.18163" gradientUnits="userSpaceOnUse">
<stop stop-color="#2EB516"/>
<stop offset="0.5" stop-color="#49ED2C"/>
<stop offset="1" stop-color="#269412"/>
</linearGradient>
<linearGradient id="paint1_linear_1950_53063" x1="-0.246574" y1="64.4087" x2="12.5166" y2="45.4864" gradientUnits="userSpaceOnUse">
<stop stop-color="#135608"/>
<stop offset="0.5" stop-color="#19690A"/>
<stop offset="1" stop-color="#2EB516"/>
</linearGradient>
<linearGradient id="paint2_linear_1950_53063" x1="60.6924" y1="8.83192" x2="63.3969" y2="4.82234" gradientUnits="userSpaceOnUse">
<stop stop-color="#269412"/>
<stop offset="0.5" stop-color="#1C740C"/>
<stop offset="1" stop-color="#135608"/>
</linearGradient>
<linearGradient id="paint3_linear_1950_53063" x1="30.4317" y1="85.1015" x2="33.1362" y2="81.0919" gradientUnits="userSpaceOnUse">
<stop stop-color="#135608"/>
<stop offset="0.5" stop-color="#1C740C"/>
<stop offset="1" stop-color="#269412"/>
</linearGradient>
<linearGradient id="paint4_linear_1950_53063" x1="66.1346" y1="34.2009" x2="78.8978" y2="15.2786" gradientUnits="userSpaceOnUse">
<stop stop-color="#2EB516"/>
<stop offset="0.5" stop-color="#19690A"/>
<stop offset="1" stop-color="#135608"/>
</linearGradient>
<linearGradient id="paint5_linear_1950_53063" x1="43.806" y1="88.2893" x2="75.8635" y2="40.7621" gradientUnits="userSpaceOnUse">
<stop stop-color="#269412"/>
<stop offset="0.5" stop-color="#49ED2C"/>
<stop offset="1" stop-color="#2EB516"/>
</linearGradient>
<linearGradient id="paint6_linear_1950_53063" x1="-0.215543" y1="14.7078" x2="93.3422" y2="18.1407" gradientUnits="userSpaceOnUse">
<stop stop-color="#25DD00"/>
<stop offset="0.504808" stop-color="#20E31D"/>
<stop offset="1" stop-color="#6EE130"/>
</linearGradient>
<clipPath id="clip0_1950_53063">
<rect width="58.3212" height="58.3212" fill="white" transform="translate(26.6406 6.18848) rotate(20)"/>
</clipPath>
</defs>
</svg>
