<svg width="95" height="92" viewBox="0 0 95 92" fill="none" xmlns="http://www.w3.org/2000/svg">
<path d="M74.5081 12.3162C86.8543 20.6402 93.9952 35.4783 91.747 51.4752C88.5266 74.3899 67.2601 91.0051 44.247 88.5863C37.2996 87.8561 30.9872 85.4746 25.6482 81.875C13.302 73.5511 6.16106 58.713 8.40928 42.7161C11.6297 19.8014 32.8962 3.18622 55.9093 5.605C62.8567 6.3352 69.1691 8.71664 74.5081 12.3162Z" fill="#41E225"/>
<path d="M50.9111 2.2339C27.8981 -0.18487 6.63158 16.4303 3.41113 39.345L8.40902 42.7161C11.6295 19.8014 32.8959 3.18625 55.909 5.60502L50.9111 2.2339Z" fill="url(#paint0_linear_1950_53121)"/>
<path d="M3.41123 39.3447C1.16301 55.3417 8.30399 70.1797 20.6502 78.5037L25.6345 81.8657C13.2967 73.54 6.16172 58.7069 8.40912 42.7158L3.41123 39.3447Z" fill="url(#paint1_linear_1950_53121)"/>
<path d="M69.5099 8.94562C64.1709 5.34602 57.8586 2.96458 50.9111 2.23438L55.909 5.6055C62.8564 6.3357 69.1688 8.71714 74.5078 12.3167L69.5099 8.94562Z" fill="url(#paint2_linear_1950_53121)"/>
<path d="M20.6504 78.5039C25.9894 82.1035 32.3018 84.4849 39.2492 85.2152L44.2471 88.5863C37.2996 87.8561 30.9873 85.4746 25.6483 81.875L20.6504 78.5039Z" fill="url(#paint3_linear_1950_53121)"/>
<path d="M86.7487 48.1053C88.9961 32.1142 81.8612 17.2811 69.5233 8.95542L74.5077 12.3174C86.8539 20.6414 93.9948 35.4794 91.7466 51.4764L86.7487 48.1053Z" fill="url(#paint4_linear_1950_53121)"/>
<path d="M39.249 85.2156C62.2621 87.6343 83.5286 71.0191 86.749 48.1045L91.7469 51.4756C88.5265 74.3903 67.26 91.0055 44.2469 88.5867L39.249 85.2156Z" fill="url(#paint5_linear_1950_53121)"/>
<rect x="1.87988" y="0.753906" width="85" height="85" rx="42.5" fill="url(#paint6_linear_1950_53121)"/>
<g clip-path="url(#clip0_1950_53121)">
<path d="M61.8212 54.9068L59.7069 54.1372L68.1718 30.8802C68.3759 30.3194 68.3489 29.7006 68.0967 29.1597C67.8445 28.6189 67.3878 28.2004 66.827 27.9963L37.2267 17.2227C36.666 17.0186 36.0471 17.0456 35.5063 17.2978C34.9655 17.55 34.547 18.0067 34.3429 18.5674L25.878 41.8245L23.7637 41.055C23.2029 40.8509 22.5841 40.8779 22.0432 41.1301C21.5024 41.3822 21.0839 41.8389 20.8798 42.3997C20.6757 42.9604 20.7028 43.5793 20.955 44.1201C21.2072 44.6609 21.6639 45.0794 22.2246 45.2835L39.1391 51.4399L38.2541 53.8713L26.3254 56.7127C25.8418 56.8134 25.4048 57.0703 25.0818 57.444C24.7587 57.8177 24.5676 58.2873 24.538 58.7803C24.5083 59.2734 24.6417 59.7625 24.9176 60.1722C25.1935 60.5819 25.5966 60.8895 26.0646 61.0474C26.4786 61.2034 26.931 61.2257 27.3583 61.1112L36.4072 58.9456L35.2914 62.0113C35.0873 62.572 35.1143 63.1909 35.3665 63.7317C35.6187 64.2725 36.0754 64.691 36.6362 64.8951C37.1969 65.0992 37.8158 65.0722 38.3566 64.82C38.8974 64.5678 39.3159 64.1111 39.52 63.5504L40.6358 60.4847L46.1757 67.9601C46.4294 68.3225 46.7903 68.5963 47.2077 68.7428C47.6607 68.9037 48.1533 68.9154 48.6134 68.776C49.0735 68.6366 49.4768 68.3535 49.7643 67.9682C50.0517 67.5829 50.2083 67.1157 50.2109 66.635C50.2135 66.1543 50.0621 65.6853 49.7788 65.2969L42.4673 55.4527L43.3677 52.979L60.2822 59.1353C60.8429 59.3394 61.4618 59.3124 62.0026 59.0602C62.5434 58.808 62.9619 58.3513 63.166 57.7906C63.3701 57.2299 63.3431 56.611 63.0909 56.0702C62.8387 55.5294 62.382 55.1109 61.8212 54.9068ZM55.4783 52.5981L30.1066 43.3636L37.802 22.2208L63.1737 31.4553L55.4783 52.5981ZM37.9886 41.4437C38.3375 41.5686 38.7119 41.6054 39.0784 41.5509C39.445 41.4963 39.7924 41.3521 40.0898 41.131L44.4409 37.9259L45.9528 41.2058C46.0934 41.5097 46.3 41.7785 46.5577 41.9924C46.8154 42.2063 47.1176 42.36 47.4422 42.4422C47.7664 42.5215 48.1041 42.5277 48.4309 42.4603C48.7578 42.3929 49.0656 42.2536 49.3319 42.0526L55.8691 37.2488C56.2871 36.8752 56.5506 36.3591 56.6079 35.8014C56.6653 35.2437 56.5123 34.6847 56.1791 34.2339C55.8459 33.7831 55.3563 33.4729 54.8064 33.3641C54.2564 33.2553 53.6857 33.3557 53.2059 33.6457L48.8548 36.8507L47.3429 33.5709C47.2023 33.2669 46.9956 32.9982 46.7379 32.7843C46.4803 32.5704 46.1781 32.4167 45.8535 32.3344C45.5293 32.2552 45.1915 32.249 44.8647 32.3164C44.5379 32.3838 44.2301 32.523 43.9637 32.7241L37.4265 37.5278C36.9508 37.8826 36.6346 38.4108 36.5466 38.9977C36.4585 39.5845 36.6059 40.1823 36.9566 40.661C37.2102 41.0234 37.5712 41.2971 37.9886 41.4437Z" fill="black"/>
<path d="M67.701 30.7084C67.8597 30.2723 67.8385 29.791 67.6424 29.3704C67.4462 28.9498 67.0912 28.6242 66.6551 28.4654L37.0547 17.6918C36.6186 17.5331 36.1373 17.5542 35.7167 17.7504C35.2961 17.9465 34.9705 18.3016 34.8117 18.7377L26.1757 42.465L23.5916 41.5244C23.1556 41.3657 22.6744 41.3861 22.2539 41.5821C21.8332 41.7782 21.5073 42.1342 21.3486 42.5703C21.19 43.0064 21.2111 43.4879 21.4072 43.9084C21.6033 44.3289 21.9585 44.6546 22.3945 44.8133L39.7788 51.1407L38.6308 54.2947L38.369 54.3574L26.4408 57.198L26.4336 57.2006L26.4262 57.201C26.0503 57.2793 25.7107 57.4795 25.4594 57.7699C25.2082 58.0606 25.0593 58.4265 25.0362 58.81C25.0132 59.1933 25.1168 59.5736 25.3313 59.8922C25.5459 60.2109 25.8598 60.4496 26.2238 60.5724L26.2403 60.5785C26.5563 60.6975 26.9014 60.7144 27.2276 60.6271L27.2412 60.6237L37.194 58.2425L35.7604 62.1812C35.6017 62.6172 35.623 63.0986 35.819 63.5192C36.0152 63.9399 36.3702 64.2654 36.8063 64.4242C37.2425 64.5829 37.7237 64.5617 38.1444 64.3656C38.5649 64.1694 38.8906 63.8143 39.0493 63.3782L40.4829 59.4396L46.5762 67.6621L46.5849 67.6725C46.7785 67.9491 47.0538 68.158 47.3724 68.2699L47.3742 68.2706C47.7265 68.3957 48.1096 68.4048 48.4674 68.2964C48.8252 68.188 49.1387 67.9677 49.3623 67.6681C49.5858 67.3685 49.7074 67.0054 49.7094 66.6315C49.7114 66.2589 49.5952 65.8952 49.3763 65.5937L42.0647 55.7503L41.9044 55.534L43.0677 52.3378L60.4521 58.6652C60.8881 58.8239 61.3695 58.8026 61.7901 58.6066C62.2106 58.4105 62.5363 58.0552 62.6951 57.6192C62.8538 57.1831 62.8329 56.7009 62.6368 56.2803C62.4406 55.8598 62.0851 55.5349 61.6491 55.3762L59.065 54.4357L67.701 30.7084ZM63.8135 31.1558L55.776 53.2386L29.4647 43.662L37.5021 21.5793L63.8135 31.1558ZM30.7464 43.0644L55.1784 51.9569L62.5318 31.7535L38.0998 22.861L30.7464 43.0644ZM54.9027 32.8728C55.5746 33.0058 56.1727 33.3847 56.5799 33.9354C56.9872 34.4863 57.1747 35.17 57.1047 35.8515C57.0346 36.533 56.7126 37.1645 56.2018 37.6211L56.1835 37.6373L56.1639 37.6509L49.6267 42.4548C49.3023 42.6983 48.9283 42.8678 48.531 42.9497C48.1315 43.0321 47.7183 43.0244 47.3221 42.9275L47.3184 42.9262C46.9217 42.8256 46.552 42.6381 46.2371 42.3767C45.9616 42.148 45.7341 41.8678 45.5663 41.5527L45.4981 41.4146L44.2426 38.691L40.3858 41.5325C40.0226 41.8022 39.5984 41.9778 39.1509 42.0444C38.7037 42.1109 38.2472 42.0659 37.8214 41.9138L37.8193 41.9141L37.8187 41.9128C37.3073 41.7325 36.8649 41.398 36.5523 40.9551C36.1239 40.3702 35.9436 39.6399 36.0511 38.9229C36.1587 38.2057 36.5455 37.5604 37.1268 37.1268L43.6615 32.3241C43.987 32.0785 44.3632 31.9083 44.7626 31.8259C45.162 31.7436 45.5752 31.7513 45.9714 31.8481L45.9754 31.8486C46.3722 31.9491 46.7415 32.1375 47.0565 32.399C47.3319 32.6277 47.5595 32.9078 47.7272 33.223L47.7957 33.3602L49.0504 36.0834L52.9081 33.2422L52.9264 33.2291L52.9465 33.2167C53.5328 32.8624 54.2307 32.7399 54.9027 32.8728ZM55.7762 34.5303C55.5171 34.1798 55.1364 33.9387 54.7088 33.854C54.2862 33.7703 53.847 33.845 53.4766 34.0643L48.6566 37.6164L46.8884 33.7802L46.7961 33.6084C46.6954 33.4422 46.5681 33.2931 46.4179 33.1684C46.2182 33.0026 45.9841 32.8823 45.7327 32.8182L45.7333 32.8194C45.4813 32.7579 45.219 32.7535 44.965 32.8058C44.7108 32.8583 44.4709 32.9658 44.2638 33.1222L44.259 33.1267L37.7217 37.9305C37.3535 38.2064 37.1089 38.6159 37.0406 39.071C36.9722 39.5272 37.0862 39.992 37.3587 40.3642L37.3655 40.374C37.5592 40.6505 37.8345 40.8595 38.153 40.9714L38.1558 40.9724C38.4271 41.0695 38.7186 41.0979 39.0037 41.0555C39.2888 41.013 39.5595 40.9008 39.7908 40.7288L39.7924 40.7273L44.6373 37.1584L44.8936 37.7162L46.4061 40.9957C46.5154 41.232 46.6757 41.4401 46.876 41.6064C47.0264 41.7312 47.1965 41.83 47.3787 41.8984L47.5643 41.9567C47.815 42.0173 48.0759 42.0218 48.3285 41.9698C48.5827 41.9174 48.8229 41.8089 49.0301 41.6526L49.0345 41.649L55.5469 36.8621C55.8644 36.5725 56.0659 36.1771 56.1099 35.7492C56.1544 35.3156 56.0353 34.8809 55.7762 34.5303ZM60.3467 53.838L61.9911 54.4365C62.6764 54.6859 63.2347 55.1969 63.543 55.8577C63.8512 56.5187 63.8842 57.2759 63.6347 57.9612C63.3852 58.6464 62.8736 59.2046 62.2127 59.5128C61.5517 59.8209 60.7953 59.8543 60.11 59.6048L43.6654 53.6195L43.0285 55.3695L50.1791 64.9984L50.1821 65.0016C50.5283 65.4763 50.7134 66.0498 50.7102 66.6373C50.7069 67.2247 50.5153 67.7956 50.164 68.2665C49.8126 68.7374 49.3193 69.0836 48.757 69.254C48.1952 69.4241 47.594 69.4086 47.0408 69.2123L47.0395 69.2129L47.039 69.2117C46.5284 69.0318 46.0861 68.6991 45.7734 68.2574L40.787 61.528L39.989 63.7203C39.7396 64.4056 39.2276 64.9645 38.5666 65.2727C37.9057 65.5808 37.1495 65.6133 36.4643 65.3639C35.7791 65.1145 35.2207 64.6035 34.9125 63.9427C34.6042 63.2817 34.5713 62.5245 34.8207 61.8392L35.6187 59.6468L27.4732 61.5967C26.9542 61.7329 26.4064 61.705 25.9032 61.5189L25.9038 61.5201C25.9004 61.519 25.8974 61.5167 25.894 61.5156C25.8919 61.5148 25.8894 61.5149 25.8873 61.5141C25.3225 61.3195 24.8363 60.9467 24.5023 60.451C24.1652 59.9503 24.0014 59.3524 24.0375 58.7499C24.0738 58.1473 24.308 57.573 24.7028 57.1163C25.0975 56.6597 25.6313 56.3457 26.2222 56.2226L37.8755 53.4462L38.4971 51.7384L22.0525 45.753C21.3672 45.5036 20.8092 44.9918 20.501 44.3309C20.1928 43.6701 20.1596 42.9136 20.4089 42.2283C20.6583 41.543 21.1703 40.9841 21.8313 40.6759C22.4922 40.3678 23.2484 40.3353 23.9336 40.5847L25.5781 41.1833L33.872 18.3957C34.1215 17.7104 34.6331 17.1524 35.2941 16.8442C35.9551 16.536 36.7114 16.5027 37.3968 16.7521L66.9971 27.5257C67.6824 27.7752 68.2404 28.2868 68.5486 28.9478C68.8568 29.6088 68.8901 30.3651 68.6407 31.0505L60.3467 53.838Z" fill="#20E31D"/>
</g>
<defs>
<linearGradient id="paint0_linear_1950_53121" x1="7.85967" y1="42.3455" x2="39.9172" y2="-5.18163" gradientUnits="userSpaceOnUse">
<stop stop-color="#2EB516"/>
<stop offset="0.5" stop-color="#49ED2C"/>
<stop offset="1" stop-color="#269412"/>
</linearGradient>
<linearGradient id="paint1_linear_1950_53121" x1="-0.246574" y1="64.4087" x2="12.5166" y2="45.4864" gradientUnits="userSpaceOnUse">
<stop stop-color="#135608"/>
<stop offset="0.5" stop-color="#19690A"/>
<stop offset="1" stop-color="#2EB516"/>
</linearGradient>
<linearGradient id="paint2_linear_1950_53121" x1="60.6924" y1="8.83192" x2="63.3969" y2="4.82234" gradientUnits="userSpaceOnUse">
<stop stop-color="#269412"/>
<stop offset="0.5" stop-color="#1C740C"/>
<stop offset="1" stop-color="#135608"/>
</linearGradient>
<linearGradient id="paint3_linear_1950_53121" x1="30.4317" y1="85.1015" x2="33.1362" y2="81.0919" gradientUnits="userSpaceOnUse">
<stop stop-color="#135608"/>
<stop offset="0.5" stop-color="#1C740C"/>
<stop offset="1" stop-color="#269412"/>
</linearGradient>
<linearGradient id="paint4_linear_1950_53121" x1="66.1346" y1="34.2009" x2="78.8978" y2="15.2786" gradientUnits="userSpaceOnUse">
<stop stop-color="#2EB516"/>
<stop offset="0.5" stop-color="#19690A"/>
<stop offset="1" stop-color="#135608"/>
</linearGradient>
<linearGradient id="paint5_linear_1950_53121" x1="43.806" y1="88.2893" x2="75.8635" y2="40.7621" gradientUnits="userSpaceOnUse">
<stop stop-color="#269412"/>
<stop offset="0.5" stop-color="#49ED2C"/>
<stop offset="1" stop-color="#2EB516"/>
</linearGradient>
<linearGradient id="paint6_linear_1950_53121" x1="-0.215543" y1="14.7078" x2="93.3422" y2="18.1407" gradientUnits="userSpaceOnUse">
<stop stop-color="#25DD00"/>
<stop offset="0.504808" stop-color="#20E31D"/>
<stop offset="1" stop-color="#6EE130"/>
</linearGradient>
<clipPath id="clip0_1950_53121">
<rect width="58.3212" height="58.3212" fill="white" transform="translate(26.6406 6.18848) rotate(20)"/>
</clipPath>
</defs>
</svg>
