<svg width="95" height="92" viewBox="0 0 95 92" fill="none" xmlns="http://www.w3.org/2000/svg">
<path d="M74.5081 12.3162C86.8543 20.6402 93.9952 35.4783 91.747 51.4752C88.5266 74.3899 67.2601 91.0051 44.247 88.5863C37.2996 87.8561 30.9872 85.4746 25.6482 81.875C13.302 73.5511 6.16106 58.713 8.40928 42.7161C11.6297 19.8014 32.8962 3.18622 55.9093 5.605C62.8567 6.3352 69.1691 8.71664 74.5081 12.3162Z" fill="#41E225"/>
<path d="M50.9111 2.2339C27.8981 -0.18487 6.63158 16.4303 3.41113 39.345L8.40902 42.7161C11.6295 19.8014 32.8959 3.18625 55.909 5.60502L50.9111 2.2339Z" fill="url(#paint0_linear_1950_53176)"/>
<path d="M3.41123 39.3447C1.16301 55.3417 8.30399 70.1797 20.6502 78.5037L25.6345 81.8657C13.2967 73.54 6.16172 58.7069 8.40912 42.7158L3.41123 39.3447Z" fill="url(#paint1_linear_1950_53176)"/>
<path d="M69.5099 8.94562C64.1709 5.34602 57.8586 2.96458 50.9111 2.23438L55.909 5.6055C62.8564 6.3357 69.1688 8.71714 74.5078 12.3167L69.5099 8.94562Z" fill="url(#paint2_linear_1950_53176)"/>
<path d="M20.6504 78.5039C25.9894 82.1035 32.3018 84.4849 39.2492 85.2152L44.2471 88.5863C37.2996 87.8561 30.9873 85.4746 25.6483 81.875L20.6504 78.5039Z" fill="url(#paint3_linear_1950_53176)"/>
<path d="M86.7487 48.1053C88.9961 32.1142 81.8612 17.2811 69.5233 8.95542L74.5077 12.3174C86.8539 20.6414 93.9948 35.4794 91.7466 51.4764L86.7487 48.1053Z" fill="url(#paint4_linear_1950_53176)"/>
<path d="M39.249 85.2156C62.2621 87.6343 83.5286 71.0191 86.749 48.1045L91.7469 51.4756C88.5265 74.3903 67.26 91.0055 44.2469 88.5867L39.249 85.2156Z" fill="url(#paint5_linear_1950_53176)"/>
<rect x="1.87988" y="0.753906" width="85" height="85" rx="42.5" fill="url(#paint6_linear_1950_53176)"/>
<g clip-path="url(#clip0_1950_53176)">
<path d="M39.0409 36.4826C38.3498 36.2135 37.5809 36.2257 36.8987 36.5165C36.2166 36.8073 35.6754 37.3537 35.391 38.0386L32.0584 46.1129C31.7723 46.8082 31.7737 47.5886 32.0624 48.2829C32.3511 48.9771 32.9034 49.5285 33.5981 49.816L46.21 55.0216C46.9053 55.3078 47.6857 55.3065 48.38 55.0179C49.0743 54.7294 49.6258 54.1772 49.9134 53.4825L53.2465 45.4073C53.5281 44.7212 53.5299 43.9521 53.2515 43.2648C52.973 42.5774 52.4364 42.0265 51.7567 41.7299L52.3469 40.3001C52.7008 39.4635 52.8856 38.5651 52.8904 37.6568C52.8953 36.7484 52.7202 35.8481 52.3752 35.0078C52.0302 34.1675 51.5222 33.4038 50.8805 32.7609C50.2388 32.118 49.4762 31.6085 48.6365 31.262C47.7969 30.9154 46.8969 30.7386 45.9885 30.7417C45.0802 30.7449 44.1814 30.9279 43.3442 31.2802C42.5069 31.6326 41.7478 32.1473 41.1106 32.7946C40.4733 33.442 39.9706 34.2091 39.6314 35.0518L39.0409 36.4826ZM51.5213 44.6923L48.1872 52.7701C48.0889 53.0074 47.9005 53.1961 47.6632 53.2946C47.426 53.3932 47.1593 53.3936 46.9218 53.2957L34.3104 48.0903C34.073 47.9922 33.8842 47.8038 33.7855 47.5666C33.6868 47.3294 33.6863 47.0627 33.7841 46.8252L37.1171 38.7499C37.2154 38.5125 37.4039 38.3237 37.6412 38.2251C37.8784 38.1265 38.1452 38.126 38.3828 38.2238L50.9947 43.4293C51.2321 43.5276 51.4208 43.7161 51.5195 43.9534C51.6181 44.1906 51.6186 44.4574 51.5208 44.695L51.5213 44.6923ZM50.6203 39.5886L50.0325 41.0125L40.769 37.189L41.3567 35.7651C41.6031 35.1501 41.969 34.5902 42.4332 34.1176C42.8974 33.645 43.4507 33.2691 44.0611 33.0116C44.6715 32.7542 45.3268 32.6204 45.9893 32.6178C46.6517 32.6153 47.3081 32.7441 47.9204 32.9969C48.5328 33.2496 49.0889 33.6212 49.5567 34.0903C50.0245 34.5593 50.3947 35.1165 50.6458 35.7295C50.8969 36.3425 51.024 36.9992 51.0197 37.6616C51.0154 38.3241 50.8793 38.9789 50.6203 39.5886Z" fill="black"/>
<path d="M43.5759 43.1388C43.1998 42.9821 42.7823 42.9539 42.3885 43.0587C41.9947 43.1635 41.6465 43.3955 41.398 43.7185C41.1495 44.0416 41.0147 44.4376 41.0145 44.8452C41.0142 45.2527 41.1485 45.6489 41.3966 45.9723L40.8799 47.2241C40.7854 47.453 40.7858 47.71 40.8808 47.9386C40.9758 48.1672 41.1578 48.3487 41.3866 48.4431C41.6154 48.5376 41.8724 48.5373 42.101 48.4422C42.3296 48.3472 42.5111 48.1653 42.6056 47.9364L43.1223 46.6846C43.5262 46.6303 43.9009 46.4442 44.1882 46.1551C44.4755 45.866 44.6592 45.4902 44.7109 45.0859C44.7627 44.6817 44.6794 44.2717 44.4742 43.9196C44.269 43.5675 43.9532 43.293 43.5759 43.1388Z" fill="black"/>
<path d="M31.9642 46.3765C31.7767 47.0013 31.8092 47.675 32.0618 48.2826C32.3505 48.9768 32.9032 49.5282 33.598 49.8157L46.2095 55.0211C46.8178 55.2715 47.4916 55.3022 48.1156 55.1126L48.3798 55.0178C48.9874 54.7653 49.4856 54.3107 49.7933 53.7355L49.9134 53.4829L53.2466 45.4074C53.493 44.8073 53.5248 44.1433 53.3426 43.5264L53.251 43.2646C52.9725 42.5774 52.4363 42.0263 51.7567 41.7298L52.3469 40.2999C52.6565 39.5681 52.8366 38.7888 52.8801 37.9971L52.8905 37.657C52.8948 36.8622 52.7609 36.0731 52.4964 35.3254L52.3749 35.0079C52.0731 34.2728 51.6466 33.596 51.115 33.0078L50.8799 32.7607C50.3185 32.1983 49.6648 31.7375 48.9476 31.399L48.6365 31.2621C47.7968 30.9156 46.8966 30.7386 45.9882 30.7417L45.6483 30.7514C44.8563 30.7933 44.076 30.9719 43.3434 31.2802L43.0334 31.4195C42.3186 31.7629 41.6679 32.2284 41.1104 32.7947L40.8779 33.0432C40.3502 33.6351 39.9283 34.3144 39.6316 35.0516L39.041 36.4824C38.35 36.2133 37.5805 36.2253 36.8983 36.5161C36.2162 36.8069 35.6753 37.3537 35.3909 38.0386L32.0582 46.1132L31.9642 46.3765ZM47.1506 52.7409L46.9219 53.2951L34.3103 48.0897L34.5391 47.5355L47.1506 52.7409ZM37.1173 38.7501C37.2033 38.5422 37.3582 38.3715 37.5547 38.2661L37.6415 38.2248C37.8786 38.1264 38.1452 38.1256 38.3827 38.2233L50.9942 43.4287C51.2316 43.527 51.4208 43.7157 51.5195 43.9529C51.6181 44.1902 51.6184 44.4574 51.5206 44.695L51.5208 44.6919L48.1866 52.7701L48.1455 52.8567C48.0404 53.053 47.8702 53.2083 47.6627 53.2945L47.5731 53.3273C47.3599 53.3921 47.1297 53.3807 46.9219 53.2951L47.1506 52.7409C47.2411 52.778 47.3427 52.7777 47.433 52.7401C47.523 52.7027 47.5947 52.6313 47.6323 52.5414L50.9655 44.4659C51.0026 44.3753 51.0023 44.2739 50.9647 44.1835C50.9365 44.1157 50.8895 44.058 50.8293 44.0177L50.7651 43.9838L38.1545 38.7788L38.0842 38.7572C38.0132 38.7434 37.939 38.751 37.8712 38.7792C37.8034 38.8074 37.7457 38.8545 37.7054 38.9146L37.6715 38.9788L34.3387 47.0534L34.3175 47.1228C34.3036 47.1938 34.3113 47.268 34.3394 47.3358C34.377 47.4261 34.4487 47.498 34.5391 47.5355L34.3103 48.0897C34.1026 48.0038 33.9315 47.8495 33.826 47.6532L33.7856 47.5668C33.6993 47.3593 33.6882 47.1292 33.7521 46.9159L33.7841 46.8255L37.1173 38.7501ZM43.1225 46.6844C43.4758 46.6368 43.8064 46.488 44.076 46.2581L44.1881 46.1554C44.4396 45.9023 44.6114 45.5823 44.6851 45.2354L44.711 45.0855C44.7562 44.7318 44.6981 44.3735 44.5453 44.0536L44.4739 43.9195C44.2944 43.6116 44.0302 43.3631 43.7144 43.2025L43.5758 43.1389C43.1998 42.9822 42.7824 42.9541 42.3887 43.0589L42.2426 43.1031C41.9088 43.2221 41.6155 43.4356 41.3982 43.7181L41.3099 43.8423C41.1175 44.1401 41.0145 44.4887 41.0142 44.8454C41.0141 45.2528 41.1485 45.6487 41.3965 45.972L40.8797 47.224L40.8492 47.3107C40.7872 47.5164 40.7974 47.7384 40.8806 47.9385C40.9638 48.1384 41.1134 48.3021 41.3026 48.4033L41.3865 48.4432C41.5869 48.5258 41.8089 48.5357 42.0144 48.4731L42.1011 48.4423C42.3012 48.3591 42.4651 48.209 42.5662 48.0194L42.6057 47.9364L43.1225 46.6844ZM50.0677 39.3539C50.2958 38.8169 50.4154 38.2403 50.4192 37.6575C50.423 37.0744 50.311 36.4966 50.09 35.957C49.8689 35.4174 49.5435 34.9263 49.1317 34.5134C48.72 34.1007 48.2304 33.7738 47.6916 33.5514C47.1526 33.3289 46.5744 33.215 45.9912 33.2172C45.4082 33.2195 44.831 33.338 44.2938 33.5646C43.7566 33.7912 43.2695 34.1219 42.8609 34.5378C42.4524 34.9539 42.1305 35.447 41.9136 35.9883L41.5526 36.863L49.7066 40.2286L50.0677 39.3539ZM43.16 48.1652C43.0048 48.541 42.7066 48.8396 42.3311 48.9958C41.9557 49.1518 41.5336 49.1525 41.1578 48.9974C40.7818 48.8423 40.4824 48.5438 40.3263 48.1682C40.1704 47.7928 40.1704 47.371 40.3255 46.9952L40.7227 46.033C40.522 45.6709 40.4141 45.2628 40.4143 44.845C40.4147 44.3053 40.5934 43.7806 40.9225 43.3527C41.2515 42.9249 41.7126 42.6173 42.2342 42.4785C42.7554 42.3398 43.308 42.3768 43.8059 42.5842C44.3042 42.7886 44.7215 43.1517 44.9928 43.6171C45.2646 44.0834 45.3744 44.6267 45.3059 45.162C45.2374 45.6973 44.9941 46.1954 44.6136 46.5783C44.3191 46.8746 43.9546 47.0877 43.5571 47.2029L43.16 48.1652ZM50.4677 53.7117C50.1192 54.5532 49.4509 55.2217 48.6098 55.5713C47.7688 55.9208 46.8235 55.9233 45.9812 55.5766L33.3679 50.3704C32.5265 50.0221 31.858 49.3535 31.5083 48.5126C31.1807 47.7244 31.1584 46.8446 31.4423 46.0439L31.503 45.884L34.8361 37.8085C35.1806 36.9789 35.8368 36.3171 36.6632 35.9647C37.3066 35.6904 38.0137 35.6212 38.6904 35.7577L39.0764 34.8225C39.4451 33.9083 39.9916 33.0758 40.6832 32.3733C41.3759 31.6697 42.2011 31.1099 43.1112 30.7269C44.0215 30.3438 44.9989 30.1453 45.9864 30.1419C46.974 30.1386 47.9528 30.3302 48.8656 30.707C49.7784 31.0838 50.6075 31.6383 51.3051 32.3372C52.0026 33.0361 52.5548 33.8661 52.9298 34.7795C53.3048 35.6931 53.4958 36.672 53.4906 37.6596C53.4853 38.6454 53.2846 39.6205 52.9012 40.5287L52.5159 41.462C53.0922 41.8426 53.5451 42.3906 53.8078 43.0391C54.1452 43.8718 54.1424 44.8041 53.8012 45.6353L50.4677 53.7117ZM50.0317 41.0125L40.7683 37.189L41.3562 35.7646C41.5718 35.2266 41.8792 34.7308 42.2635 34.2986L42.4334 34.1173C42.8975 33.6448 43.4503 33.2683 44.0606 33.0109C44.5948 32.7856 45.1636 32.6557 45.7413 32.6249L45.9895 32.6174C46.6518 32.615 47.3081 32.7444 47.9203 32.9971L48.1474 33.0972C48.6704 33.344 49.1476 33.6796 49.5569 34.0899C50.0246 34.5589 50.3947 35.1161 50.6458 35.7289C50.8969 36.3419 51.0241 36.9989 51.0198 37.6614C51.0155 38.3237 50.8787 38.9784 50.6197 39.588L50.0317 41.0125Z" fill="black"/>
<path d="M53.8016 45.6355C54.1428 44.8043 54.1456 43.872 53.8082 43.0393C53.5455 42.3908 53.0925 41.8428 52.5163 41.4622L52.9015 40.5289C53.237 39.7344 53.4328 38.8886 53.48 38.0292L53.4909 37.6598C53.4962 36.6722 53.3052 35.6932 52.9302 34.7797C52.5551 33.8663 52.003 33.0363 51.3055 32.3374C50.6079 31.6385 49.7787 31.084 48.866 30.7072C47.9531 30.3304 46.9743 30.1387 45.9868 30.1421C44.9992 30.1455 44.0218 30.344 43.1116 30.7271C42.2014 31.1101 41.3763 31.6699 40.6835 32.3735L40.4307 32.6431C39.8579 33.2855 39.3994 34.0229 39.0768 34.8227L38.6908 35.7579C38.014 35.6214 37.307 35.6906 36.6635 35.9649C35.8372 36.3173 35.181 36.979 34.8365 37.8087L31.5034 45.8842L31.4427 46.044C31.1588 46.8448 31.181 47.7246 31.5087 48.5128C31.8583 49.3537 32.5269 50.0223 33.3683 50.3706L45.9816 55.5768C46.8238 55.9235 47.7691 55.921 48.6102 55.5715C49.4512 55.2219 50.1196 54.5534 50.468 53.7119L53.8016 45.6355ZM46.2478 54.9292L46.2098 55.0213L33.5983 49.8159L33.6363 49.7238L46.2478 54.9292ZM53.1549 45.3696C53.3925 44.7907 53.4227 44.1497 53.2469 43.5545L53.2473 43.5536L53.159 43.3017L53.1586 43.3026C52.89 42.6396 52.3729 42.1074 51.7173 41.8213L51.6278 41.7822L52.2556 40.2612C52.5607 39.54 52.7373 38.772 52.7802 37.9918L52.7806 37.9909L52.7906 37.657L52.786 37.3635C52.76 36.6798 52.6309 36.0034 52.4028 35.3586L52.4032 35.3577L52.2829 35.045L52.2825 35.0459C51.9854 34.3222 51.566 33.6556 51.0428 33.0763L50.8073 32.8301L50.8077 32.8292C50.2549 32.2759 49.6113 31.8225 48.9055 31.4894L48.9058 31.4885L48.5979 31.354C47.7713 31.013 46.8851 30.8383 45.9909 30.8411L45.6515 30.8521L45.651 30.8508C44.8715 30.8924 44.1038 31.0692 43.3829 31.3726L43.3823 31.3713L43.0765 31.5082L43.0771 31.5094C42.3727 31.8478 41.7314 32.3074 41.182 32.8655L40.9526 33.1089C40.4326 33.6923 40.0168 34.3625 39.7244 35.0889L39.0962 36.6109L39.0052 36.5754C38.3385 36.3158 37.5958 36.3279 36.9378 36.6085C36.2799 36.889 35.7577 37.4162 35.4834 38.0768L32.1525 46.1468L32.0604 46.4057L32.0024 46.6332C31.8905 47.1695 31.9407 47.7316 32.154 48.2446C32.4324 48.9143 32.9661 49.4464 33.6363 49.7238L33.5983 49.8159C32.9036 49.5283 32.3508 48.977 32.0622 48.2827C31.8096 47.6752 31.777 47.0015 31.9646 46.3767L32.0585 46.1134L35.3913 38.0388C35.6756 37.3539 36.2166 36.8071 36.8987 36.5163C37.5809 36.2255 38.3504 36.2135 39.0414 36.4826L39.6319 35.0518C39.9287 34.3146 40.3506 33.6353 40.8782 33.0434L41.1107 32.7949C41.6683 32.2286 42.319 31.7631 43.0338 31.4197L43.3438 31.2804C44.0764 30.9721 44.8566 30.7935 45.6486 30.7516L45.9886 30.7419C46.8969 30.7387 47.7972 30.9158 48.6368 31.2623L48.948 31.3992C49.6651 31.7376 50.3188 32.1985 50.8803 32.7609L51.1153 33.008C51.647 33.5962 52.0735 34.273 52.3752 35.0081L52.4967 35.3256C52.7613 36.0733 52.8951 36.8624 52.8909 37.6572L52.8804 37.9973C52.8369 38.789 52.6569 39.5683 52.3473 40.3001L51.7571 41.73C52.4367 42.0265 52.9729 42.5776 53.2513 43.2648L53.343 43.5266C53.5251 44.1435 53.4933 44.8075 53.2469 45.4076L49.9138 53.4831L49.7937 53.7357C49.4859 54.3109 48.9878 54.7655 48.3801 55.018L48.116 55.1128C47.492 55.3024 46.8181 55.2717 46.2098 55.0213L46.2478 54.9292C46.8334 55.1702 47.4816 55.1991 48.0824 55.0176L48.3462 54.9237C48.9303 54.6797 49.4092 54.2421 49.7053 53.6886L49.8217 53.4451L53.1549 45.3696ZM51.0326 43.3368C51.2944 43.4452 51.5028 43.6532 51.6117 43.9149C51.7205 44.1767 51.7209 44.4712 51.6131 44.7332L51.6122 44.7329L48.2771 52.8129L48.2361 52.8995L48.2342 52.904C48.1182 53.1205 47.9301 53.2915 47.7012 53.3865L47.697 53.389L47.6965 53.3877L47.6078 53.4209L47.6027 53.423C47.3672 53.4946 47.1132 53.4817 46.8842 53.3874L34.2727 48.182C34.0438 48.0873 33.8547 47.9173 33.7383 47.7004L33.7358 47.6962L33.8264 47.6534C33.9318 47.8497 34.1029 48.004 34.3107 48.0899L46.9222 53.2953C47.1301 53.3809 47.3602 53.3923 47.5735 53.3275L47.6631 53.2947C47.8705 53.2085 48.0407 53.0532 48.1459 52.8569L48.1869 52.7703L51.5212 44.6921L51.521 44.6952C51.6188 44.4576 51.6185 44.1904 51.5199 43.9531C51.4212 43.7159 51.232 43.5272 50.9946 43.4289L51.0326 43.3368ZM37.0255 38.7122C37.1204 38.4831 37.2911 38.2945 37.508 38.1782L37.5122 38.1757L37.599 38.1344L37.6041 38.1323C37.8654 38.024 38.1592 38.0237 38.4211 38.1314L38.3831 38.2235C38.1456 38.1258 37.879 38.1266 37.6419 38.225L37.5551 38.2663C37.3586 38.3717 37.2037 38.5424 37.1176 38.7502L33.7845 46.8257L33.7525 46.9161C33.6886 47.1294 33.6997 47.3595 33.786 47.5669L33.8264 47.6534L33.7361 47.6953L33.6957 47.6089L33.6941 47.6051C33.599 47.3763 33.5862 47.1224 33.6567 46.8871L33.6585 46.8826L33.6905 46.7922L33.6915 46.7874L33.6924 46.7877L37.0255 38.7122ZM50.8737 44.4281C50.9008 44.362 50.9007 44.2878 50.8733 44.2219C50.8529 44.1729 50.8189 44.1318 50.7767 44.1028L50.7184 44.0724L38.1258 38.8748L38.0613 38.8545C38.0111 38.8456 37.9582 38.851 37.9097 38.8712C37.8611 38.8914 37.82 38.925 37.791 38.9669L37.7602 39.026L34.4349 47.0826L34.4153 47.1453C34.4061 47.1957 34.4113 47.2488 34.4316 47.2978C34.4591 47.3638 34.5117 47.4163 34.5775 47.4436L47.189 52.649L47.24 52.6637C47.2916 52.6737 47.3458 52.669 47.3952 52.6485C47.4446 52.6279 47.4861 52.5928 47.5154 52.5492L47.5406 52.5036L50.8737 44.4281ZM43.5575 47.2031C43.955 47.0879 44.3195 46.8748 44.614 46.5784C44.9944 46.1956 45.2378 45.6975 45.3063 45.1622C45.3748 44.6269 45.2649 44.0836 44.9932 43.6173C44.7219 43.1519 44.3045 42.7888 43.8062 42.5844C43.3083 42.377 42.7557 42.34 42.2345 42.4787C41.7129 42.6175 41.2519 42.9251 40.9228 43.3529C40.5938 43.7808 40.415 44.3055 40.4147 44.8452C40.4145 45.263 40.5224 45.6711 40.723 46.0332L40.3259 46.9954C40.1708 47.3712 40.1707 47.793 40.3266 48.1684C40.4827 48.544 40.7822 48.8424 41.1581 48.9976C41.534 49.1527 41.956 49.152 42.3315 48.9959C42.707 48.8398 43.0052 48.5412 43.1603 48.1653L43.5575 47.2031ZM43.0527 46.5933L43.11 46.5852C43.4439 46.5402 43.7567 46.3994 44.0117 46.1819L44.1172 46.085C44.3549 45.8458 44.5174 45.5432 44.5872 45.2151L44.5876 45.2142L44.612 45.0732L44.6239 44.9471C44.64 44.654 44.5815 44.3614 44.4551 44.0967L44.4555 44.0958L44.3861 43.9668L44.3865 43.9659C44.2168 43.6764 43.967 43.4431 43.6696 43.2918L43.6699 43.2909L43.5364 43.2305C43.1821 43.0832 42.7887 43.0554 42.4177 43.1533L42.4183 43.1546L42.2764 43.1964L42.2769 43.1976C41.9613 43.3102 41.6835 43.5122 41.4778 43.7796L41.3939 43.896C41.2119 44.1777 41.1151 44.5083 41.1149 44.8458C41.1148 45.2309 41.2417 45.6051 41.4761 45.9108L41.5109 45.9569L40.974 47.2577L40.9454 47.3399L40.9161 47.4799C40.8988 47.6216 40.9171 47.7667 40.9728 47.9006C41.047 48.0789 41.1811 48.2248 41.35 48.3151L41.3491 48.3147L41.4262 48.3508C41.6038 48.4238 41.8 48.4324 41.9825 48.3775L42.0675 48.3482C42.244 48.2735 42.3886 48.1404 42.4782 47.9725L42.514 47.8986L43.0527 46.5933ZM51.0326 43.3368L50.9946 43.4289L38.3831 38.2235L38.4211 38.1314L51.0326 43.3368ZM47.9605 32.906L48.1876 33.006L48.1903 33.0072C48.7234 33.2588 49.2105 33.6005 49.6279 34.0189C50.1049 34.4972 50.4827 35.0662 50.7388 35.6913C50.9949 36.3165 51.1244 36.9871 51.1201 37.6626C51.1156 38.3379 50.9759 39.0049 50.7121 39.6262L50.0862 41.1428L40.6386 37.2433L41.2645 35.7268C41.4844 35.1784 41.7972 34.6725 42.1889 34.232L42.1906 34.2306L42.3605 34.0493L42.3621 34.0478C42.8354 33.566 43.3994 33.1815 44.0219 32.9189C44.4988 32.7178 45.003 32.5911 45.5162 32.5416L45.7384 32.5255L45.9866 32.518L45.99 32.5174C46.6654 32.5149 47.3345 32.6476 47.9587 32.9052L47.9605 32.906ZM49.9763 39.3151C50.1993 38.7903 50.3159 38.2262 50.3196 37.6566C50.3233 37.0869 50.2136 36.5222 49.9976 35.995C49.7816 35.4677 49.4636 34.9882 49.0615 34.5849C48.7093 34.2318 48.2985 33.9426 47.8485 33.7303L47.6539 33.6436C47.1271 33.4262 46.5613 33.3155 45.9914 33.3177C45.4219 33.32 44.8581 33.4356 44.3332 33.657C43.8083 33.8784 43.3321 34.2014 42.9329 34.6077C42.5336 35.0143 42.2184 35.4966 42.0064 36.0256L41.683 36.8091L49.6529 40.0987L49.9763 39.3151ZM43.2524 48.2034C43.0871 48.6038 42.7696 48.9215 42.3697 49.0878C41.9697 49.254 41.5205 49.2549 41.1201 49.0897C40.7197 48.9244 40.4011 48.6067 40.2348 48.2066C40.0687 47.8066 40.0686 47.3576 40.2338 46.9574L40.6134 46.0376C40.4198 45.6719 40.3142 45.2635 40.3144 44.845C40.3148 44.2833 40.5011 43.7369 40.8435 43.2917C41.1859 42.8466 41.666 42.5269 42.2087 42.3824C42.7511 42.2381 43.3261 42.2766 43.8443 42.4923L44.0344 42.5792C44.4689 42.8007 44.8322 43.1434 45.0793 43.5673C45.3621 44.0525 45.477 44.6177 45.4057 45.1747C45.3344 45.7318 45.0811 46.2506 44.6852 46.6491C44.3902 46.9459 44.0272 47.1608 43.6321 47.2835L43.2524 48.2034ZM42.6061 47.9366L42.5665 48.0196C42.4654 48.2091 42.3015 48.3593 42.1014 48.4425L42.0148 48.4733C41.8092 48.5359 41.5872 48.526 41.3869 48.4434L41.303 48.4035C41.1137 48.3023 40.9641 48.1386 40.881 47.9387C40.7978 47.7386 40.7876 47.5166 40.8496 47.3109L40.8801 47.2242L41.3969 45.9722C41.1489 45.6489 41.0144 45.253 41.0146 44.8456C41.0148 44.4889 41.1179 44.1403 41.3103 43.8425L41.3985 43.7183C41.6159 43.4358 41.9092 43.2223 42.2429 43.1033L42.389 43.059C42.7828 42.9543 43.2001 42.9824 43.5762 43.1391L43.7148 43.2027C44.0306 43.3633 44.2947 43.6118 44.4743 43.9197L44.5457 44.0538C44.6985 44.3737 44.7566 44.732 44.7114 45.0857L44.6855 45.2356C44.6118 45.5825 44.4399 45.9025 44.1885 46.1556L44.0763 46.2583C43.8067 46.4882 43.4761 46.637 43.1228 46.6845L42.6061 47.9366ZM47.6327 52.5416C47.5951 52.6315 47.5234 52.7029 47.4334 52.7403C47.3431 52.7778 47.2414 52.7782 47.151 52.7411L34.5395 47.5357C34.4491 47.4982 34.3774 47.4263 34.3398 47.336C34.3116 47.2682 34.3039 47.194 34.3178 47.123L34.3391 47.0536L37.6719 38.979L37.7058 38.9148C37.746 38.8547 37.8038 38.8076 37.8715 38.7794C37.9393 38.7512 38.0135 38.7436 38.0845 38.7574L38.1548 38.779L50.7654 43.984L50.8296 44.0179C50.8898 44.0582 50.9369 44.1159 50.9651 44.1837C51.0027 44.2741 51.003 44.3755 50.9658 44.4661L47.6327 52.5416ZM50.5601 53.7499C50.2015 54.6159 49.5138 55.3036 48.6484 55.6633C47.7829 56.0229 46.8104 56.0257 45.9436 55.6689L33.3303 50.4627C32.4644 50.1042 31.7766 49.4162 31.4169 48.551C31.0797 47.7398 31.0566 46.8346 31.3487 46.0106L31.3495 46.0088L31.4102 45.8489L34.7444 37.7707C35.0989 36.9169 35.7741 36.2353 36.6244 35.8727C37.261 35.6014 37.9577 35.5267 38.6293 35.6459L38.9847 34.7847C39.3584 33.8585 39.9117 33.0146 40.6123 32.3029C41.3142 31.59 42.1504 31.023 43.0725 30.6349C43.995 30.2467 44.9862 30.0453 45.987 30.0418C46.9875 30.0385 47.979 30.2333 48.904 30.6151C49.8288 30.9969 50.6692 31.5581 51.3761 32.2662C52.0829 32.9744 52.6428 33.8163 53.0229 34.7419C53.4028 35.6675 53.5965 36.6594 53.5912 37.6599C53.5859 38.6587 53.382 39.6468 52.9936 40.5669L52.6389 41.4262C53.1993 41.8153 53.641 42.36 53.9009 43.0015C54.2481 43.8585 54.2448 44.8182 53.8936 45.6735L50.5601 53.7499ZM50.0321 41.0127L50.62 39.5882C50.8467 39.0548 50.9792 38.4869 51.0118 37.9096L51.0202 37.6616C51.0244 36.9991 50.8972 36.3421 50.6461 35.7291C50.395 35.1163 50.025 34.5591 49.5573 34.0901C49.148 33.6798 48.6707 33.3442 48.1478 33.0974L47.9207 32.9973C47.3085 32.7446 46.6521 32.6152 45.9898 32.6176L45.7416 32.6251C45.164 32.6559 44.5951 32.7858 44.061 33.0111C43.4507 33.2685 42.8979 33.645 42.4337 34.1175L42.2638 34.2988L42.1229 34.4636C41.8037 34.8553 41.5452 35.2941 41.3566 35.7648L40.7687 37.1892L50.0321 41.0127ZM49.707 40.2288L41.553 36.8632L41.914 35.9885C42.1038 35.5148 42.3738 35.0778 42.7121 34.6973L42.8613 34.538C43.2188 34.1741 43.6366 33.8757 44.0953 33.6549L44.2941 33.5648C44.8314 33.3382 45.4085 33.2197 45.9916 33.2174C46.5747 33.2152 47.1529 33.3291 47.6919 33.5516C48.2308 33.774 48.7204 34.1009 49.1321 34.5136C49.5439 34.9265 49.8693 35.4176 50.0903 35.9572C50.3113 36.4968 50.4233 37.0746 50.4195 37.6577C50.4158 38.2405 50.2962 38.817 50.068 39.354L49.707 40.2288Z" fill="black"/>
<path d="M50.6489 20.5235C51.0957 20.5374 51.6042 20.5426 52.1022 20.6678C52.5024 20.7684 52.8859 20.9267 53.2413 21.1364C53.6835 21.3975 54.0491 21.7512 54.3767 22.0555L64.3843 31.3517C65.6661 32.5425 66.7015 33.4629 67.2839 34.6425C67.7649 35.617 68.0015 36.6942 67.973 37.7806C67.9386 39.0957 67.3837 40.3646 66.7188 41.983L62.384 52.5349C59.8874 58.6118 54.4867 62.3511 49.2999 64.6429C44.0848 66.9472 38.7931 67.9208 36.0451 68.3033C35.5091 68.3779 34.8877 68.4816 34.1549 68.3494C33.5965 68.2485 32.9521 67.9844 32.4842 67.6636C31.8701 67.2425 31.5021 66.7313 31.1734 66.3014C29.4879 64.0975 26.4092 59.6856 24.3202 54.3806C22.2426 49.1043 21.0298 42.6478 23.5264 36.5708L27.8612 26.0198C28.5261 24.4014 29.0248 23.1091 29.9248 22.1495C30.6684 21.3567 31.5939 20.7563 32.6213 20.4014C33.8648 19.9721 35.2479 20.0456 36.9966 20.0999L50.6489 20.5235ZM36.8771 23.9429C34.8145 23.8789 34.2909 23.8927 33.8767 24.0357C33.4395 24.1866 33.0456 24.4423 32.7292 24.7796C32.4293 25.0993 32.2024 25.5709 31.4179 27.4804L27.0831 38.0323C25.1307 42.7849 25.9818 48.1082 27.8972 52.9724C29.8012 57.8075 32.6446 61.8966 34.2271 63.9659C34.4277 64.2282 34.5186 64.3456 34.5924 64.4284C34.6402 64.4822 34.6517 64.4876 34.6591 64.4927C34.6444 64.4826 34.646 64.4846 34.6678 64.496C34.688 64.5065 34.7157 64.5194 34.7474 64.5325C34.7791 64.5455 34.8076 64.5555 34.8293 64.5622C34.8528 64.5694 34.8555 64.5696 34.8379 64.5665C34.8467 64.568 34.8581 64.5718 34.9298 64.5673C35.0405 64.5602 35.1877 64.5409 35.5152 64.4953C38.0953 64.1362 42.9922 63.2267 47.7456 61.1265C52.5273 59.0137 56.8758 55.8261 58.8283 51.0734L63.163 40.5225C63.9475 38.613 64.1178 38.1178 64.1292 37.6796C64.1413 37.2173 64.0405 36.759 63.8357 36.3443C63.6417 35.9513 63.2797 35.5733 61.7674 34.1684L51.7598 24.8722C51.5545 24.6815 51.4426 24.5782 51.3555 24.5038C51.2816 24.4408 51.27 24.4375 51.2865 24.4473C51.2484 24.4248 51.2072 24.4081 51.1644 24.3973C51.1522 24.3956 51.1251 24.3924 51.0758 24.3888C50.9616 24.3805 50.8093 24.3753 50.5293 24.3666L36.8771 23.9429Z" fill="black"/>
</g>
<defs>
<linearGradient id="paint0_linear_1950_53176" x1="7.85967" y1="42.3455" x2="39.9172" y2="-5.18163" gradientUnits="userSpaceOnUse">
<stop stop-color="#2EB516"/>
<stop offset="0.5" stop-color="#49ED2C"/>
<stop offset="1" stop-color="#269412"/>
</linearGradient>
<linearGradient id="paint1_linear_1950_53176" x1="-0.246574" y1="64.4087" x2="12.5166" y2="45.4864" gradientUnits="userSpaceOnUse">
<stop stop-color="#135608"/>
<stop offset="0.5" stop-color="#19690A"/>
<stop offset="1" stop-color="#2EB516"/>
</linearGradient>
<linearGradient id="paint2_linear_1950_53176" x1="60.6924" y1="8.83192" x2="63.3969" y2="4.82234" gradientUnits="userSpaceOnUse">
<stop stop-color="#269412"/>
<stop offset="0.5" stop-color="#1C740C"/>
<stop offset="1" stop-color="#135608"/>
</linearGradient>
<linearGradient id="paint3_linear_1950_53176" x1="30.4317" y1="85.1015" x2="33.1362" y2="81.0919" gradientUnits="userSpaceOnUse">
<stop stop-color="#135608"/>
<stop offset="0.5" stop-color="#1C740C"/>
<stop offset="1" stop-color="#269412"/>
</linearGradient>
<linearGradient id="paint4_linear_1950_53176" x1="66.1346" y1="34.2009" x2="78.8978" y2="15.2786" gradientUnits="userSpaceOnUse">
<stop stop-color="#2EB516"/>
<stop offset="0.5" stop-color="#19690A"/>
<stop offset="1" stop-color="#135608"/>
</linearGradient>
<linearGradient id="paint5_linear_1950_53176" x1="43.806" y1="88.2893" x2="75.8635" y2="40.7621" gradientUnits="userSpaceOnUse">
<stop stop-color="#269412"/>
<stop offset="0.5" stop-color="#49ED2C"/>
<stop offset="1" stop-color="#2EB516"/>
</linearGradient>
<linearGradient id="paint6_linear_1950_53176" x1="-0.215543" y1="14.7078" x2="93.3422" y2="18.1407" gradientUnits="userSpaceOnUse">
<stop stop-color="#25DD00"/>
<stop offset="0.504808" stop-color="#20E31D"/>
<stop offset="1" stop-color="#6EE130"/>
</linearGradient>
<clipPath id="clip0_1950_53176">
<rect width="58.3212" height="58.3212" fill="white" transform="translate(26.6406 6.18848) rotate(20)"/>
</clipPath>
</defs>
</svg>
