<svg width="95" height="92" viewBox="0 0 95 92" fill="none" xmlns="http://www.w3.org/2000/svg">
<path d="M74.5081 12.3162C86.8543 20.6402 93.9952 35.4783 91.747 51.4752C88.5266 74.3899 67.2601 91.0051 44.247 88.5863C37.2996 87.8561 30.9872 85.4746 25.6482 81.875C13.302 73.5511 6.16106 58.713 8.40928 42.7161C11.6297 19.8014 32.8962 3.18622 55.9093 5.605C62.8567 6.3352 69.1691 8.71664 74.5081 12.3162Z" fill="#41E225"/>
<path d="M50.9111 2.2339C27.8981 -0.18487 6.63158 16.4303 3.41113 39.345L8.40902 42.7161C11.6295 19.8014 32.8959 3.18625 55.909 5.60502L50.9111 2.2339Z" fill="url(#paint0_linear_1950_53234)"/>
<path d="M3.41123 39.3447C1.16301 55.3417 8.30399 70.1797 20.6502 78.5037L25.6345 81.8657C13.2967 73.54 6.16172 58.7069 8.40912 42.7158L3.41123 39.3447Z" fill="url(#paint1_linear_1950_53234)"/>
<path d="M69.5099 8.94562C64.1709 5.34602 57.8586 2.96458 50.9111 2.23438L55.909 5.6055C62.8564 6.3357 69.1688 8.71714 74.5078 12.3167L69.5099 8.94562Z" fill="url(#paint2_linear_1950_53234)"/>
<path d="M20.6504 78.5039C25.9894 82.1035 32.3018 84.4849 39.2492 85.2152L44.2471 88.5863C37.2996 87.8561 30.9873 85.4746 25.6483 81.875L20.6504 78.5039Z" fill="url(#paint3_linear_1950_53234)"/>
<path d="M86.7487 48.1053C88.9961 32.1142 81.8612 17.2811 69.5233 8.95542L74.5077 12.3174C86.8539 20.6414 93.9948 35.4794 91.7466 51.4764L86.7487 48.1053Z" fill="url(#paint4_linear_1950_53234)"/>
<path d="M39.249 85.2156C62.2621 87.6343 83.5286 71.0191 86.749 48.1045L91.7469 51.4756C88.5265 74.3903 67.26 91.0055 44.2469 88.5867L39.249 85.2156Z" fill="url(#paint5_linear_1950_53234)"/>
<rect x="1.87988" y="0.753906" width="85" height="85" rx="42.5" fill="url(#paint6_linear_1950_53234)"/>
<g clip-path="url(#clip0_1950_53234)">
<path d="M64.1882 30.4044L36.9806 20.5016C34.8428 19.7235 32.4571 20.836 31.6791 22.9737L21.7763 50.1814C20.9982 52.3191 22.1107 54.7048 24.2484 55.4829L51.4561 65.3856C53.5938 66.1637 55.9795 65.0512 56.7576 62.9135L66.6603 35.7059C67.4384 33.5681 66.3259 31.1824 64.1882 30.4044ZM53.2952 60.3328C53.0608 60.9768 52.3487 61.3088 51.7047 61.0744L26.8291 52.0205C26.1852 51.7861 25.8531 51.074 26.0875 50.43L35.1415 25.5544C35.3759 24.9105 36.0879 24.5784 36.7319 24.8128L61.6075 33.8668C62.2515 34.1012 62.5835 34.8132 62.3491 35.4572L53.2952 60.3328Z" fill="black"/>
<path d="M37.9637 41.9876C38.1981 41.3436 37.866 40.6316 37.2221 40.3972L35.6673 39.8313C35.0233 39.5969 34.3113 39.929 34.0769 40.5729L31.389 47.9579C31.1546 48.6019 31.4866 49.3139 32.1306 49.5483L33.6854 50.1142C34.3293 50.3486 35.0414 50.0165 35.2758 49.3726L37.9637 41.9876Z" fill="black"/>
<path d="M57.0476 37.9293C57.282 37.2854 56.95 36.5733 56.306 36.3389L54.7513 35.773C54.1073 35.5386 53.3952 35.8707 53.1608 36.5147L46.9362 53.6166C46.7018 54.2606 47.0339 54.9727 47.6779 55.2071L49.2326 55.7729C49.8766 56.0073 50.5886 55.6753 50.823 55.0313L57.0476 37.9293Z" fill="black"/>
<path d="M44.3226 48.7038C44.557 48.0598 44.225 47.3477 43.581 47.1134L42.0263 46.5475C41.3823 46.3131 40.6702 46.6451 40.4358 47.2891L39.1626 50.7872C38.9282 51.4312 39.2603 52.1433 39.9042 52.3777L41.459 52.9436C42.103 53.178 42.815 52.8459 43.0494 52.2019L44.3226 48.7038Z" fill="black"/>
<path d="M47.152 40.9302C47.3864 40.2862 47.0543 39.5741 46.4104 39.3397L44.8556 38.7739C44.2116 38.5395 43.4996 38.8715 43.2652 39.5155L42.6993 41.0702C42.4649 41.7142 42.797 42.4263 43.4409 42.6607L44.9957 43.2265C45.6397 43.4609 46.3517 43.1289 46.5861 42.4849L47.152 40.9302Z" fill="black"/>
</g>
<defs>
<linearGradient id="paint0_linear_1950_53234" x1="7.85967" y1="42.3455" x2="39.9172" y2="-5.18163" gradientUnits="userSpaceOnUse">
<stop stop-color="#2EB516"/>
<stop offset="0.5" stop-color="#49ED2C"/>
<stop offset="1" stop-color="#269412"/>
</linearGradient>
<linearGradient id="paint1_linear_1950_53234" x1="-0.246574" y1="64.4087" x2="12.5166" y2="45.4864" gradientUnits="userSpaceOnUse">
<stop stop-color="#135608"/>
<stop offset="0.5" stop-color="#19690A"/>
<stop offset="1" stop-color="#2EB516"/>
</linearGradient>
<linearGradient id="paint2_linear_1950_53234" x1="60.6924" y1="8.83192" x2="63.3969" y2="4.82234" gradientUnits="userSpaceOnUse">
<stop stop-color="#269412"/>
<stop offset="0.5" stop-color="#1C740C"/>
<stop offset="1" stop-color="#135608"/>
</linearGradient>
<linearGradient id="paint3_linear_1950_53234" x1="30.4317" y1="85.1015" x2="33.1362" y2="81.0919" gradientUnits="userSpaceOnUse">
<stop stop-color="#135608"/>
<stop offset="0.5" stop-color="#1C740C"/>
<stop offset="1" stop-color="#269412"/>
</linearGradient>
<linearGradient id="paint4_linear_1950_53234" x1="66.1346" y1="34.2009" x2="78.8978" y2="15.2786" gradientUnits="userSpaceOnUse">
<stop stop-color="#2EB516"/>
<stop offset="0.5" stop-color="#19690A"/>
<stop offset="1" stop-color="#135608"/>
</linearGradient>
<linearGradient id="paint5_linear_1950_53234" x1="43.806" y1="88.2893" x2="75.8635" y2="40.7621" gradientUnits="userSpaceOnUse">
<stop stop-color="#269412"/>
<stop offset="0.5" stop-color="#49ED2C"/>
<stop offset="1" stop-color="#2EB516"/>
</linearGradient>
<linearGradient id="paint6_linear_1950_53234" x1="-0.215543" y1="14.7078" x2="93.3422" y2="18.1407" gradientUnits="userSpaceOnUse">
<stop stop-color="#25DD00"/>
<stop offset="0.504808" stop-color="#20E31D"/>
<stop offset="1" stop-color="#6EE130"/>
</linearGradient>
<clipPath id="clip0_1950_53234">
<rect width="58.3212" height="58.3212" fill="white" transform="translate(26.79 5.56836) rotate(20)"/>
</clipPath>
</defs>
</svg>
