<svg width="95" height="92" viewBox="0 0 95 92" fill="none" xmlns="http://www.w3.org/2000/svg">
<path d="M74.5081 12.3162C86.8543 20.6402 93.9952 35.4783 91.747 51.4752C88.5266 74.3899 67.2601 91.0051 44.247 88.5863C37.2996 87.8561 30.9872 85.4746 25.6482 81.875C13.302 73.5511 6.16106 58.713 8.40928 42.7161C11.6297 19.8014 32.8962 3.18622 55.9093 5.605C62.8567 6.3352 69.1691 8.71664 74.5081 12.3162Z" fill="#41E225"/>
<path d="M50.9111 2.2339C27.8981 -0.18487 6.63158 16.4303 3.41113 39.345L8.40902 42.7161C11.6295 19.8014 32.8959 3.18625 55.909 5.60502L50.9111 2.2339Z" fill="url(#paint0_linear_1950_53291)"/>
<path d="M3.41123 39.3447C1.16301 55.3417 8.30399 70.1797 20.6502 78.5037L25.6345 81.8657C13.2967 73.54 6.16172 58.7069 8.40912 42.7158L3.41123 39.3447Z" fill="url(#paint1_linear_1950_53291)"/>
<path d="M69.5099 8.94562C64.1709 5.34602 57.8586 2.96458 50.9111 2.23438L55.909 5.6055C62.8564 6.3357 69.1688 8.71714 74.5078 12.3167L69.5099 8.94562Z" fill="url(#paint2_linear_1950_53291)"/>
<path d="M20.6504 78.5039C25.9894 82.1035 32.3018 84.4849 39.2492 85.2152L44.2471 88.5863C37.2996 87.8561 30.9873 85.4746 25.6483 81.875L20.6504 78.5039Z" fill="url(#paint3_linear_1950_53291)"/>
<path d="M86.7487 48.1053C88.9961 32.1142 81.8612 17.2811 69.5233 8.95542L74.5077 12.3174C86.8539 20.6414 93.9948 35.4794 91.7466 51.4764L86.7487 48.1053Z" fill="url(#paint4_linear_1950_53291)"/>
<path d="M39.249 85.2156C62.2621 87.6343 83.5286 71.0191 86.749 48.1045L91.7469 51.4756C88.5265 74.3903 67.26 91.0055 44.2469 88.5867L39.249 85.2156Z" fill="url(#paint5_linear_1950_53291)"/>
<rect x="1.87988" y="0.753906" width="85" height="85" rx="42.5" fill="url(#paint6_linear_1950_53291)"/>
<g clip-path="url(#clip0_1950_53291)">
<path d="M51.5266 20.9151C51.9725 20.9481 52.4802 20.9751 52.9724 21.1215C53.368 21.2392 53.7443 21.4137 54.0904 21.6385C54.5211 21.9183 54.8712 22.2873 55.1854 22.6053L64.7859 32.3214C66.0156 33.5659 67.0106 34.5298 67.542 35.7332C67.9809 36.7274 68.1712 37.8138 68.0962 38.8979C68.0055 40.2104 67.3968 41.4544 66.6633 43.0428L61.8808 53.3995C59.1264 59.364 53.5705 62.8686 48.2904 64.9363C42.9814 67.0153 37.653 67.7615 34.8911 68.026C34.3524 68.0776 33.7271 68.1547 33.0007 67.9912C32.4471 67.8665 31.8146 67.5751 31.3608 67.2345C30.7653 66.7875 30.4195 66.261 30.1095 65.8175C28.5199 63.5434 25.6329 59.0038 23.7729 53.6142C21.923 48.2538 20.9877 41.7514 23.7422 35.7867L28.5245 25.431C29.2581 23.8425 29.8116 22.5727 30.7519 21.6526C31.5288 20.8924 32.4792 20.3321 33.5208 20.0215C34.7815 19.6458 36.1602 19.7784 37.905 19.9075L51.5266 20.9151ZM37.6211 23.742C35.5631 23.5897 35.0394 23.5811 34.6194 23.7061C34.1763 23.8383 33.7717 24.0769 33.4412 24.4003C33.1279 24.7068 32.881 25.1684 32.0155 27.0424L27.233 37.3992C25.0789 42.0638 25.7014 47.4187 27.4068 52.3604C29.1021 57.2726 31.7679 61.4796 33.2604 63.6148C33.4496 63.8855 33.5354 64.0066 33.6055 64.0925C33.651 64.1483 33.6623 64.1542 33.6695 64.1596C33.6552 64.1489 33.6566 64.1509 33.678 64.1633C33.6977 64.1747 33.7248 64.1887 33.756 64.2031C33.7871 64.2175 33.8151 64.2287 33.8365 64.2363C33.8597 64.2446 33.8624 64.2449 33.8449 64.2409C33.8537 64.2429 33.8649 64.2472 33.9366 64.2457C34.0476 64.2434 34.1955 64.2304 34.5246 64.1989C37.1178 63.9505 42.0491 63.2514 46.888 61.3566C51.7558 59.4504 56.2367 56.4519 58.3909 51.7872L63.1733 41.4314C64.0388 39.5572 64.23 39.0698 64.2603 38.6325C64.2921 38.1711 64.211 37.7089 64.0242 37.2858C63.8471 36.8849 63.5017 36.4917 62.0509 35.0234L52.4503 25.3074C52.2535 25.1081 52.146 25 52.0622 24.9221C51.9911 24.8559 51.9796 24.8521 51.9957 24.8626C51.9586 24.8385 51.9182 24.8201 51.8758 24.8075C51.8637 24.8052 51.8368 24.8009 51.7877 24.7952C51.674 24.782 51.5221 24.7702 51.2427 24.7496L37.6211 23.742ZM48.813 34.044C49.8093 33.6772 50.9142 34.1883 51.2811 35.1847C51.6477 36.1809 51.1376 37.2861 50.1414 37.6529L43.1473 40.2265L48.1441 46.4759C48.5298 46.9584 48.6601 47.5967 48.4943 48.1918C48.3285 48.7871 47.8864 49.2665 47.3065 49.48L37.8096 52.9769C36.8134 53.3433 35.7083 52.8324 35.3415 51.8362C34.9751 50.84 35.486 49.7349 36.4822 49.3681L43.4754 46.7924L38.4794 40.5451C38.0937 40.0626 37.9626 39.4242 38.1283 38.8291C38.2941 38.234 38.7364 37.7545 39.3161 37.5409L48.813 34.044Z" fill="black"/>
</g>
<defs>
<linearGradient id="paint0_linear_1950_53291" x1="7.85967" y1="42.3455" x2="39.9172" y2="-5.18163" gradientUnits="userSpaceOnUse">
<stop stop-color="#2EB516"/>
<stop offset="0.5" stop-color="#49ED2C"/>
<stop offset="1" stop-color="#269412"/>
</linearGradient>
<linearGradient id="paint1_linear_1950_53291" x1="-0.246574" y1="64.4087" x2="12.5166" y2="45.4864" gradientUnits="userSpaceOnUse">
<stop stop-color="#135608"/>
<stop offset="0.5" stop-color="#19690A"/>
<stop offset="1" stop-color="#2EB516"/>
</linearGradient>
<linearGradient id="paint2_linear_1950_53291" x1="60.6924" y1="8.83192" x2="63.3969" y2="4.82234" gradientUnits="userSpaceOnUse">
<stop stop-color="#269412"/>
<stop offset="0.5" stop-color="#1C740C"/>
<stop offset="1" stop-color="#135608"/>
</linearGradient>
<linearGradient id="paint3_linear_1950_53291" x1="30.4317" y1="85.1015" x2="33.1362" y2="81.0919" gradientUnits="userSpaceOnUse">
<stop stop-color="#135608"/>
<stop offset="0.5" stop-color="#1C740C"/>
<stop offset="1" stop-color="#269412"/>
</linearGradient>
<linearGradient id="paint4_linear_1950_53291" x1="66.1346" y1="34.2009" x2="78.8978" y2="15.2786" gradientUnits="userSpaceOnUse">
<stop stop-color="#2EB516"/>
<stop offset="0.5" stop-color="#19690A"/>
<stop offset="1" stop-color="#135608"/>
</linearGradient>
<linearGradient id="paint5_linear_1950_53291" x1="43.806" y1="88.2893" x2="75.8635" y2="40.7621" gradientUnits="userSpaceOnUse">
<stop stop-color="#269412"/>
<stop offset="0.5" stop-color="#49ED2C"/>
<stop offset="1" stop-color="#2EB516"/>
</linearGradient>
<linearGradient id="paint6_linear_1950_53291" x1="-0.215543" y1="14.7078" x2="93.3422" y2="18.1407" gradientUnits="userSpaceOnUse">
<stop stop-color="#25DD00"/>
<stop offset="0.504808" stop-color="#20E31D"/>
<stop offset="1" stop-color="#6EE130"/>
</linearGradient>
<clipPath id="clip0_1950_53291">
<rect width="58.3212" height="58.3212" fill="white" transform="translate(26.6406 6.18848) rotate(20)"/>
</clipPath>
</defs>
</svg>
