<svg width="96" height="92" viewBox="0 0 96 92" fill="none" xmlns="http://www.w3.org/2000/svg">
<path d="M74.844 12.3162C87.1902 20.6402 94.3312 35.4783 92.083 51.4752C88.8625 74.3899 67.596 91.0051 44.583 88.5863C37.6355 87.8561 31.3232 85.4746 25.9842 81.875C13.638 73.5511 6.49699 58.713 8.74522 42.7161C11.9657 19.8014 33.2321 3.18622 56.2452 5.605C63.1926 6.3352 69.505 8.71664 74.844 12.3162Z" fill="#41E225"/>
<path d="M51.2471 2.2339C28.234 -0.18487 6.96751 16.4303 3.74707 39.345L8.74496 42.7161C11.9654 19.8014 33.2319 3.18625 56.245 5.60502L51.2471 2.2339Z" fill="url(#paint0_linear_1950_53695)"/>
<path d="M3.74717 39.3447C1.49895 55.3417 8.63993 70.1797 20.9861 78.5037L25.9705 81.8657C13.6326 73.54 6.49766 58.7069 8.74506 42.7158L3.74717 39.3447Z" fill="url(#paint1_linear_1950_53695)"/>
<path d="M69.8459 8.94562C64.5069 5.34602 58.1945 2.96458 51.2471 2.23438L56.245 5.6055C63.1924 6.3357 69.5048 8.71714 74.8437 12.3167L69.8459 8.94562Z" fill="url(#paint2_linear_1950_53695)"/>
<path d="M20.9863 78.5039C26.3253 82.1035 32.6377 84.4849 39.5851 85.2152L44.583 88.5863C37.6356 87.8561 31.3232 85.4746 25.9842 81.875L20.9863 78.5039Z" fill="url(#paint3_linear_1950_53695)"/>
<path d="M87.0847 48.1053C89.3321 32.1142 82.1971 17.2811 69.8592 8.95542L74.8436 12.3174C87.1898 20.6414 94.3308 35.4794 92.0825 51.4764L87.0847 48.1053Z" fill="url(#paint4_linear_1950_53695)"/>
<path d="M39.585 85.2156C62.598 87.6343 83.8645 71.0191 87.085 48.1045L92.0829 51.4756C88.8624 74.3903 67.5959 91.0055 44.5829 88.5867L39.585 85.2156Z" fill="url(#paint5_linear_1950_53695)"/>
<rect x="2.21582" y="0.753906" width="85" height="85" rx="42.5" fill="url(#paint6_linear_1950_53695)"/>
<g clip-path="url(#clip0_1950_53695)">
<path d="M25.5373 55.703L23.0325 54.7914C19.8047 53.6165 18.1404 50.0475 19.3153 46.8197L27.2163 25.1116C28.3912 21.8838 31.9602 20.2195 35.188 21.3944L37.6928 22.306M62.7404 31.4241L65.2452 32.3358C68.473 33.5106 70.1373 37.0797 68.9624 40.3075L61.0614 62.0155C59.8865 65.2433 56.3175 66.9076 53.0897 65.7328L50.5849 64.8211M40.5321 46.9789L47.7141 40.0151M50.2093 52.8643L56.7373 49.8203C57.8491 49.3018 58.3301 47.9802 57.8117 46.8684L54.7677 40.3404M33.5101 46.7869L30.4661 40.2589C29.9476 39.1471 30.4287 37.8255 31.5405 37.307L38.0684 34.263" stroke="black" stroke-width="4" stroke-linecap="round" stroke-dasharray="0.46 0.46"/>
</g>
<defs>
<linearGradient id="paint0_linear_1950_53695" x1="8.19561" y1="42.3455" x2="40.2531" y2="-5.18163" gradientUnits="userSpaceOnUse">
<stop stop-color="#2EB516"/>
<stop offset="0.5" stop-color="#49ED2C"/>
<stop offset="1" stop-color="#269412"/>
</linearGradient>
<linearGradient id="paint1_linear_1950_53695" x1="0.0893637" y1="64.4087" x2="12.8526" y2="45.4864" gradientUnits="userSpaceOnUse">
<stop stop-color="#135608"/>
<stop offset="0.5" stop-color="#19690A"/>
<stop offset="1" stop-color="#2EB516"/>
</linearGradient>
<linearGradient id="paint2_linear_1950_53695" x1="61.0283" y1="8.83192" x2="63.7328" y2="4.82234" gradientUnits="userSpaceOnUse">
<stop stop-color="#269412"/>
<stop offset="0.5" stop-color="#1C740C"/>
<stop offset="1" stop-color="#135608"/>
</linearGradient>
<linearGradient id="paint3_linear_1950_53695" x1="30.7676" y1="85.1015" x2="33.4721" y2="81.0919" gradientUnits="userSpaceOnUse">
<stop stop-color="#135608"/>
<stop offset="0.5" stop-color="#1C740C"/>
<stop offset="1" stop-color="#269412"/>
</linearGradient>
<linearGradient id="paint4_linear_1950_53695" x1="66.4705" y1="34.2009" x2="79.2338" y2="15.2786" gradientUnits="userSpaceOnUse">
<stop stop-color="#2EB516"/>
<stop offset="0.5" stop-color="#19690A"/>
<stop offset="1" stop-color="#135608"/>
</linearGradient>
<linearGradient id="paint5_linear_1950_53695" x1="44.1419" y1="88.2893" x2="76.1994" y2="40.7621" gradientUnits="userSpaceOnUse">
<stop stop-color="#269412"/>
<stop offset="0.5" stop-color="#49ED2C"/>
<stop offset="1" stop-color="#2EB516"/>
</linearGradient>
<linearGradient id="paint6_linear_1950_53695" x1="0.120395" y1="14.7078" x2="93.6781" y2="18.1407" gradientUnits="userSpaceOnUse">
<stop stop-color="#25DD00"/>
<stop offset="0.504808" stop-color="#20E31D"/>
<stop offset="1" stop-color="#6EE130"/>
</linearGradient>
<clipPath id="clip0_1950_53695">
<rect width="58.3212" height="58.3212" fill="white" transform="translate(26.9766 6.18848) rotate(20)"/>
</clipPath>
</defs>
</svg>
