<svg width="96" height="93" viewBox="0 0 96 93" fill="none" xmlns="http://www.w3.org/2000/svg">
<path d="M74.844 13.0565C87.1902 21.3804 94.3312 36.2185 92.083 52.2154C88.8625 75.1301 67.596 91.7453 44.583 89.3265C37.6355 88.5963 31.3232 86.2149 25.9842 82.6153C13.638 74.2913 6.49699 59.4532 8.74522 43.4563C11.9657 20.5416 33.2321 3.92646 56.2452 6.34523C63.1926 7.07543 69.505 9.45687 74.844 13.0565Z" fill="#41E225"/>
<path d="M51.2471 2.97414C28.234 0.555365 6.96751 17.1706 3.74707 40.0852L8.74496 43.4563C11.9654 20.5417 33.2319 3.92648 56.245 6.34526L51.2471 2.97414Z" fill="url(#paint0_linear_1950_53814)"/>
<path d="M3.74717 40.085C1.49895 56.0819 8.63993 70.92 20.9861 79.2439L25.9705 82.6059C13.6326 74.2802 6.49766 59.4472 8.74506 43.4561L3.74717 40.085Z" fill="url(#paint1_linear_1950_53814)"/>
<path d="M69.8459 9.68586C64.5069 6.08625 58.1945 3.70481 51.2471 2.97461L56.245 6.34573C63.1924 7.07593 69.5048 9.45737 74.8437 13.057L69.8459 9.68586Z" fill="url(#paint2_linear_1950_53814)"/>
<path d="M20.9863 79.2441C26.3253 82.8437 32.6377 85.2252 39.5851 85.9554L44.583 89.3265C37.6356 88.5963 31.3232 86.2149 25.9842 82.6153L20.9863 79.2441Z" fill="url(#paint3_linear_1950_53814)"/>
<path d="M87.0847 48.8455C89.3321 32.8544 82.1971 18.0213 69.8592 9.69565L74.8436 13.0576C87.1898 21.3816 94.3308 36.2197 92.0825 52.2166L87.0847 48.8455Z" fill="url(#paint4_linear_1950_53814)"/>
<path d="M39.585 85.9558C62.598 88.3746 83.8645 71.7594 87.085 48.8447L92.0829 52.2158C88.8624 75.1305 67.5959 91.7457 44.5829 89.3269L39.585 85.9558Z" fill="url(#paint5_linear_1950_53814)"/>
<g clip-path="url(#clip0_1950_53814)">
<rect x="2.21582" y="1.49414" width="85" height="85" rx="42.5" fill="url(#paint6_linear_1950_53814)"/>
<mask id="path-9-inside-1_1950_53814" fill="white">
<path d="M69.4771 50.6129C70.0996 48.9235 70.2646 47.0996 69.9555 45.3259C69.6464 43.5523 68.8741 41.8918 67.7168 40.5126C67.904 40.1104 68.056 39.6928 68.1711 39.2644C68.8662 37.3546 68.7742 35.2469 67.9152 33.405C67.0563 31.563 65.5009 30.1377 63.5911 29.4426L63.159 29.2854C63.1627 28.0317 62.8587 26.7963 62.2737 25.6875C61.6887 24.5786 60.8406 23.6303 59.8037 22.9255C58.7669 22.2208 57.573 21.7812 56.3267 21.6453C55.0804 21.5094 53.8198 21.6814 52.6555 22.1461C52.0622 21.0417 51.2071 20.0996 50.165 19.4026C49.123 18.7056 47.9258 18.275 46.6785 18.1484C45.4313 18.0217 44.172 18.2031 43.0111 18.6765C41.8503 19.1499 40.8233 19.9008 40.0202 20.8635L39.5882 20.7063C37.6784 20.0112 35.5707 20.1032 33.7287 20.9621C31.8868 21.821 30.4615 23.3765 29.7664 25.2862C29.5791 25.6884 29.4271 26.106 29.3121 26.5344C27.6696 26.8086 26.119 27.4801 24.7952 28.4904C23.4715 29.5007 22.4148 30.8193 21.7171 32.3313C21.0193 33.8434 20.7018 35.503 20.792 37.1658C20.8822 38.8286 21.3775 40.4442 22.2347 41.8718C20.914 43.0527 19.9231 44.5567 19.3592 46.2362C18.7953 47.9157 18.6778 49.713 19.0182 51.4516C19.3586 53.1902 20.1452 54.8105 21.3009 56.1533C22.4565 57.4961 23.9415 58.5153 25.61 59.111L26.042 59.2682C26.0384 60.5219 26.3424 61.7573 26.9274 62.8661C27.5124 63.975 28.3605 64.9233 29.3973 65.6281C30.4342 66.3328 31.6281 66.7724 32.8744 66.9083C34.1207 67.0442 35.3813 66.8722 36.5456 66.4075C37.1389 67.5119 37.994 68.454 39.0361 69.151C40.0781 69.848 41.2753 70.2786 42.5225 70.4052C43.7698 70.5319 45.0291 70.3505 46.19 69.8771C47.3508 69.4037 48.3778 68.6528 49.1809 67.6901L49.6129 67.8473C51.2713 68.4391 53.0545 68.5922 54.7895 68.2919C56.5245 67.9915 58.1525 67.2479 59.5154 66.1331C60.8784 65.0183 61.9302 63.5702 62.5687 61.9292C63.2072 60.2883 63.4108 58.5101 63.1597 56.7673C64.6055 56.2784 65.9234 55.4719 67.0167 54.4068C68.1099 53.3418 68.9506 52.0454 69.4771 50.6129ZM45.2143 35.1222C44.8003 34.6329 44.348 34.1774 43.8617 33.76C43.331 33.3362 42.6538 33.1405 41.9789 33.216C41.304 33.2915 40.6867 33.632 40.2629 34.1627C39.8391 34.6933 39.6434 35.3705 39.7189 36.0454C39.7944 36.7203 40.1349 37.3376 40.6656 37.7614C41.468 38.4317 42.0453 39.3321 42.3198 40.341C42.5942 41.3499 42.5525 42.4187 42.2002 43.4032L40.8461 47.1236C40.4322 46.6343 39.9798 46.1788 39.4935 45.7615C38.9629 45.3376 38.2856 45.1419 37.6107 45.2175C36.9358 45.293 36.3185 45.6335 35.8947 46.1641C35.4709 46.6947 35.2752 47.372 35.3507 48.0469C35.4262 48.7218 35.7668 49.3391 36.2974 49.7629C37.0998 50.4332 37.6772 51.3336 37.9516 52.3425C38.2261 53.3514 38.1843 54.4202 37.8321 55.4046L36.0848 60.2052C35.8531 60.8418 35.378 61.3603 34.764 61.6466C34.15 61.9329 33.4475 61.9636 32.8109 61.7319C32.3476 61.5598 31.9442 61.2571 31.6495 60.8604C31.3549 60.4636 31.1816 59.9899 31.1508 59.4967C31.6392 59.407 32.1206 59.2824 32.5912 59.1239C32.9074 59.0105 33.1981 58.836 33.4467 58.6103C33.6954 58.3845 33.8972 58.112 34.0406 57.8083C34.1839 57.5045 34.2661 57.1756 34.2823 56.8401C34.2985 56.5046 34.2485 56.1692 34.1351 55.8531C34.0217 55.537 33.8471 55.2463 33.6214 54.9976C33.3957 54.7489 33.1231 54.5471 32.8194 54.4038C32.5157 54.2604 32.1867 54.1783 31.8512 54.162C31.5158 54.1458 31.1804 54.1958 30.8642 54.3092C29.732 54.7234 28.4898 54.7238 27.3573 54.3104C26.0841 53.847 25.0471 52.8968 24.4745 51.6688C23.9019 50.4409 23.8405 49.0357 24.3039 47.7625C24.6443 46.8632 25.2315 46.0782 25.9981 45.4978C26.5016 45.7905 27.0303 46.0375 27.5779 46.2359C28.2145 46.4676 28.917 46.4369 29.531 46.1506C30.145 45.8643 30.6201 45.3458 30.8518 44.7092C31.0835 44.0726 31.0528 43.37 30.7665 42.7561C30.4802 42.1421 29.9617 41.667 29.3251 41.4353C28.757 41.2322 28.2332 40.9216 27.7825 40.5204C27.0326 39.8949 26.4776 39.0675 26.1834 38.1362C25.8893 37.205 25.8682 36.2089 26.1227 35.2661C26.3772 34.3232 26.8966 33.473 27.6194 32.8163C28.3422 32.1596 29.2381 31.7238 30.201 31.5605C30.4278 31.9985 30.6951 32.4143 30.9993 32.8025C31.4373 33.3224 32.0639 33.647 32.7412 33.7049C33.4185 33.7628 34.0911 33.5493 34.611 33.1113C35.1309 32.6733 35.4555 32.0467 35.5134 31.3694C35.5713 30.6921 35.3578 30.0195 34.9198 29.4996C34.6497 29.1903 34.4675 28.8142 34.392 28.4105C34.3103 27.9444 34.3713 27.4644 34.567 27.0335C34.7987 26.3969 35.2738 25.8784 35.8877 25.5921C36.5017 25.3058 37.2043 25.2752 37.8409 25.5069C38.0166 25.5444 38.1862 25.6061 38.3449 25.6903C38.3316 26.1222 38.3468 26.5545 38.3904 26.9845C38.4471 27.3166 38.5689 27.6342 38.7489 27.919C38.9289 28.2038 39.1634 28.4503 39.4391 28.644C39.7147 28.8378 40.0259 28.9752 40.3548 29.0482C40.6837 29.1212 41.0238 29.1284 41.3556 29.0694C42.0042 28.943 42.5787 28.5699 42.9581 28.0288C43.3375 27.4877 43.4925 26.8205 43.3903 26.1676C43.3229 25.7261 43.3658 25.2748 43.5151 24.8538C43.7468 24.2172 44.2219 23.6988 44.8359 23.4125C45.4499 23.1262 46.1524 23.0955 46.789 23.3272C47.4256 23.5589 47.9441 24.034 48.2304 24.648C48.5167 25.2619 48.5474 25.9645 48.3157 26.6011L45.2143 35.1222ZM59.8984 52.2097C59.2953 52.2273 58.6945 52.1285 58.1287 51.9189C57.4921 51.6872 56.7895 51.7179 56.1755 52.0042C55.5615 52.2905 55.0864 52.809 54.8547 53.4456C54.623 54.0822 54.6537 54.7847 54.94 55.3987C55.2263 56.0127 55.7448 56.4878 56.3814 56.7195C56.9284 56.9195 57.4922 57.0701 58.066 57.1695C58.2802 58.1069 58.2254 59.0858 57.9081 59.9934C57.4447 61.2666 56.4945 62.3036 55.2665 62.8762C54.0385 63.4488 52.6334 63.5101 51.3602 63.0467C50.2269 62.6355 49.2755 61.8367 48.6744 60.7916C48.3325 60.2058 47.7719 59.7798 47.1159 59.6073C46.4599 59.4348 45.7623 59.5299 45.1764 59.8718C44.5906 60.2137 44.1646 60.7743 43.9921 61.4303C43.8196 62.0863 43.9148 62.784 44.2567 63.3698C44.5153 63.7937 44.804 64.1986 45.1205 64.5813C44.7798 64.9393 44.3426 65.1908 43.8619 65.3053C43.3812 65.4198 42.8775 65.3924 42.412 65.2264C41.7754 64.9947 41.257 64.5196 40.9707 63.9056C40.6844 63.2917 40.6537 62.5891 40.8854 61.9525L42.6327 57.1519C42.9956 56.1714 43.6506 55.3258 44.5094 54.7293C45.3681 54.1329 46.3892 53.8143 47.4347 53.8166C48.1137 53.833 48.7713 53.579 49.2629 53.1105C49.7546 52.6421 50.04 51.9975 50.0564 51.3186C50.0729 50.6397 49.8189 49.982 49.3504 49.4904C48.882 48.9987 48.2374 48.7133 47.5585 48.6969C46.9176 48.704 46.2783 48.7622 45.6467 48.8709L47.0008 45.1504C47.3638 44.1699 48.0188 43.3243 48.8776 42.7279C49.7363 42.1314 50.7574 41.8128 51.8029 41.8151C52.4818 41.8315 53.1395 41.5775 53.6311 41.1091C54.1228 40.6406 54.4082 39.996 54.4246 39.3171C54.441 38.6382 54.1871 37.9806 53.7186 37.4889C53.2501 36.9972 52.6056 36.7118 51.9266 36.6954C51.2858 36.7025 50.6465 36.7607 50.0149 36.8694L53.1163 28.3484C53.348 27.7118 53.8231 27.1933 54.4371 26.907C55.051 26.6207 55.7536 26.59 56.3902 26.8217C57.0268 27.0534 57.5453 27.5285 57.8316 28.1425C58.1179 28.7565 58.1486 29.4591 57.9169 30.0957C57.7607 30.5141 57.5034 30.8873 57.168 31.1822C56.9091 31.3966 56.6951 31.66 56.5382 31.9573C56.3813 32.2546 56.2846 32.5799 56.2537 32.9146C56.2228 33.2493 56.2583 33.5868 56.3581 33.9078C56.4578 34.2288 56.62 34.5269 56.8352 34.7851C57.0514 35.0436 57.3166 35.2566 57.6155 35.4121C57.9144 35.5676 58.2411 35.6625 58.5768 35.6912C58.9125 35.7199 59.2506 35.6819 59.5715 35.5794C59.8925 35.4769 60.19 35.3119 60.4469 35.0939C60.7681 34.7703 61.0665 34.4248 61.3398 34.0598C61.5155 34.0973 61.6851 34.159 61.8438 34.2432C62.4804 34.4749 62.9989 34.95 63.2852 35.564C63.5715 36.178 63.6022 36.8805 63.3705 37.5171C63.1955 37.9863 62.8866 38.3938 62.4819 38.6888C62.1723 38.9288 61.8064 39.0857 61.419 39.1446C60.7493 39.2613 60.1534 39.6393 59.7624 40.1953C59.3714 40.7514 59.2173 41.44 59.334 42.1097C59.4507 42.7794 59.8287 43.3753 60.3848 43.7663C60.9409 44.1573 61.6295 44.3114 62.2992 44.1947C62.815 44.1185 63.3203 43.9832 63.8051 43.7914C64.4434 44.5284 64.8575 45.4326 64.9986 46.3973C65.1396 47.362 65.0016 48.3469 64.6009 49.2357C64.2003 50.1245 63.5536 50.8801 62.7374 51.4133C61.9211 51.9464 60.9694 52.2349 59.9945 52.2446L59.8984 52.2097Z"/>
</mask>
<path d="M69.4771 50.6129C70.0996 48.9235 70.2646 47.0996 69.9555 45.3259C69.6464 43.5523 68.8741 41.8918 67.7168 40.5126C67.904 40.1104 68.056 39.6928 68.1711 39.2644C68.8662 37.3546 68.7742 35.2469 67.9152 33.405C67.0563 31.563 65.5009 30.1377 63.5911 29.4426L63.159 29.2854C63.1627 28.0317 62.8587 26.7963 62.2737 25.6875C61.6887 24.5786 60.8406 23.6303 59.8037 22.9255C58.7669 22.2208 57.573 21.7812 56.3267 21.6453C55.0804 21.5094 53.8198 21.6814 52.6555 22.1461C52.0622 21.0417 51.2071 20.0996 50.165 19.4026C49.123 18.7056 47.9258 18.275 46.6785 18.1484C45.4313 18.0217 44.172 18.2031 43.0111 18.6765C41.8503 19.1499 40.8233 19.9008 40.0202 20.8635L39.5882 20.7063C37.6784 20.0112 35.5707 20.1032 33.7287 20.9621C31.8868 21.821 30.4615 23.3765 29.7664 25.2862C29.5791 25.6884 29.4271 26.106 29.3121 26.5344C27.6696 26.8086 26.119 27.4801 24.7952 28.4904C23.4715 29.5007 22.4148 30.8193 21.7171 32.3313C21.0193 33.8434 20.7018 35.503 20.792 37.1658C20.8822 38.8286 21.3775 40.4442 22.2347 41.8718C20.914 43.0527 19.9231 44.5567 19.3592 46.2362C18.7953 47.9157 18.6778 49.713 19.0182 51.4516C19.3586 53.1902 20.1452 54.8105 21.3009 56.1533C22.4565 57.4961 23.9415 58.5153 25.61 59.111L26.042 59.2682C26.0384 60.5219 26.3424 61.7573 26.9274 62.8661C27.5124 63.975 28.3605 64.9233 29.3973 65.6281C30.4342 66.3328 31.6281 66.7724 32.8744 66.9083C34.1207 67.0442 35.3813 66.8722 36.5456 66.4075C37.1389 67.5119 37.994 68.454 39.0361 69.151C40.0781 69.848 41.2753 70.2786 42.5225 70.4052C43.7698 70.5319 45.0291 70.3505 46.19 69.8771C47.3508 69.4037 48.3778 68.6528 49.1809 67.6901L49.6129 67.8473C51.2713 68.4391 53.0545 68.5922 54.7895 68.2919C56.5245 67.9915 58.1525 67.2479 59.5154 66.1331C60.8784 65.0183 61.9302 63.5702 62.5687 61.9292C63.2072 60.2883 63.4108 58.5101 63.1597 56.7673C64.6055 56.2784 65.9234 55.4719 67.0167 54.4068C68.1099 53.3418 68.9506 52.0454 69.4771 50.6129ZM45.2143 35.1222C44.8003 34.6329 44.348 34.1774 43.8617 33.76C43.331 33.3362 42.6538 33.1405 41.9789 33.216C41.304 33.2915 40.6867 33.632 40.2629 34.1627C39.8391 34.6933 39.6434 35.3705 39.7189 36.0454C39.7944 36.7203 40.1349 37.3376 40.6656 37.7614C41.468 38.4317 42.0453 39.3321 42.3198 40.341C42.5942 41.3499 42.5525 42.4187 42.2002 43.4032L40.8461 47.1236C40.4322 46.6343 39.9798 46.1788 39.4935 45.7615C38.9629 45.3376 38.2856 45.1419 37.6107 45.2175C36.9358 45.293 36.3185 45.6335 35.8947 46.1641C35.4709 46.6947 35.2752 47.372 35.3507 48.0469C35.4262 48.7218 35.7668 49.3391 36.2974 49.7629C37.0998 50.4332 37.6772 51.3336 37.9516 52.3425C38.2261 53.3514 38.1843 54.4202 37.8321 55.4046L36.0848 60.2052C35.8531 60.8418 35.378 61.3603 34.764 61.6466C34.15 61.9329 33.4475 61.9636 32.8109 61.7319C32.3476 61.5598 31.9442 61.2571 31.6495 60.8604C31.3549 60.4636 31.1816 59.9899 31.1508 59.4967C31.6392 59.407 32.1206 59.2824 32.5912 59.1239C32.9074 59.0105 33.1981 58.836 33.4467 58.6103C33.6954 58.3845 33.8972 58.112 34.0406 57.8083C34.1839 57.5045 34.2661 57.1756 34.2823 56.8401C34.2985 56.5046 34.2485 56.1692 34.1351 55.8531C34.0217 55.537 33.8471 55.2463 33.6214 54.9976C33.3957 54.7489 33.1231 54.5471 32.8194 54.4038C32.5157 54.2604 32.1867 54.1783 31.8512 54.162C31.5158 54.1458 31.1804 54.1958 30.8642 54.3092C29.732 54.7234 28.4898 54.7238 27.3573 54.3104C26.0841 53.847 25.0471 52.8968 24.4745 51.6688C23.9019 50.4409 23.8405 49.0357 24.3039 47.7625C24.6443 46.8632 25.2315 46.0782 25.9981 45.4978C26.5016 45.7905 27.0303 46.0375 27.5779 46.2359C28.2145 46.4676 28.917 46.4369 29.531 46.1506C30.145 45.8643 30.6201 45.3458 30.8518 44.7092C31.0835 44.0726 31.0528 43.37 30.7665 42.7561C30.4802 42.1421 29.9617 41.667 29.3251 41.4353C28.757 41.2322 28.2332 40.9216 27.7825 40.5204C27.0326 39.8949 26.4776 39.0675 26.1834 38.1362C25.8893 37.205 25.8682 36.2089 26.1227 35.2661C26.3772 34.3232 26.8966 33.473 27.6194 32.8163C28.3422 32.1596 29.2381 31.7238 30.201 31.5605C30.4278 31.9985 30.6951 32.4143 30.9993 32.8025C31.4373 33.3224 32.0639 33.647 32.7412 33.7049C33.4185 33.7628 34.0911 33.5493 34.611 33.1113C35.1309 32.6733 35.4555 32.0467 35.5134 31.3694C35.5713 30.6921 35.3578 30.0195 34.9198 29.4996C34.6497 29.1903 34.4675 28.8142 34.392 28.4105C34.3103 27.9444 34.3713 27.4644 34.567 27.0335C34.7987 26.3969 35.2738 25.8784 35.8877 25.5921C36.5017 25.3058 37.2043 25.2752 37.8409 25.5069C38.0166 25.5444 38.1862 25.6061 38.3449 25.6903C38.3316 26.1222 38.3468 26.5545 38.3904 26.9845C38.4471 27.3166 38.5689 27.6342 38.7489 27.919C38.9289 28.2038 39.1634 28.4503 39.4391 28.644C39.7147 28.8378 40.0259 28.9752 40.3548 29.0482C40.6837 29.1212 41.0238 29.1284 41.3556 29.0694C42.0042 28.943 42.5787 28.5699 42.9581 28.0288C43.3375 27.4877 43.4925 26.8205 43.3903 26.1676C43.3229 25.7261 43.3658 25.2748 43.5151 24.8538C43.7468 24.2172 44.2219 23.6988 44.8359 23.4125C45.4499 23.1262 46.1524 23.0955 46.789 23.3272C47.4256 23.5589 47.9441 24.034 48.2304 24.648C48.5167 25.2619 48.5474 25.9645 48.3157 26.6011L45.2143 35.1222ZM59.8984 52.2097C59.2953 52.2273 58.6945 52.1285 58.1287 51.9189C57.4921 51.6872 56.7895 51.7179 56.1755 52.0042C55.5615 52.2905 55.0864 52.809 54.8547 53.4456C54.623 54.0822 54.6537 54.7847 54.94 55.3987C55.2263 56.0127 55.7448 56.4878 56.3814 56.7195C56.9284 56.9195 57.4922 57.0701 58.066 57.1695C58.2802 58.1069 58.2254 59.0858 57.9081 59.9934C57.4447 61.2666 56.4945 62.3036 55.2665 62.8762C54.0385 63.4488 52.6334 63.5101 51.3602 63.0467C50.2269 62.6355 49.2755 61.8367 48.6744 60.7916C48.3325 60.2058 47.7719 59.7798 47.1159 59.6073C46.4599 59.4348 45.7623 59.5299 45.1764 59.8718C44.5906 60.2137 44.1646 60.7743 43.9921 61.4303C43.8196 62.0863 43.9148 62.784 44.2567 63.3698C44.5153 63.7937 44.804 64.1986 45.1205 64.5813C44.7798 64.9393 44.3426 65.1908 43.8619 65.3053C43.3812 65.4198 42.8775 65.3924 42.412 65.2264C41.7754 64.9947 41.257 64.5196 40.9707 63.9056C40.6844 63.2917 40.6537 62.5891 40.8854 61.9525L42.6327 57.1519C42.9956 56.1714 43.6506 55.3258 44.5094 54.7293C45.3681 54.1329 46.3892 53.8143 47.4347 53.8166C48.1137 53.833 48.7713 53.579 49.2629 53.1105C49.7546 52.6421 50.04 51.9975 50.0564 51.3186C50.0729 50.6397 49.8189 49.982 49.3504 49.4904C48.882 48.9987 48.2374 48.7133 47.5585 48.6969C46.9176 48.704 46.2783 48.7622 45.6467 48.8709L47.0008 45.1504C47.3638 44.1699 48.0188 43.3243 48.8776 42.7279C49.7363 42.1314 50.7574 41.8128 51.8029 41.8151C52.4818 41.8315 53.1395 41.5775 53.6311 41.1091C54.1228 40.6406 54.4082 39.996 54.4246 39.3171C54.441 38.6382 54.1871 37.9806 53.7186 37.4889C53.2501 36.9972 52.6056 36.7118 51.9266 36.6954C51.2858 36.7025 50.6465 36.7607 50.0149 36.8694L53.1163 28.3484C53.348 27.7118 53.8231 27.1933 54.4371 26.907C55.051 26.6207 55.7536 26.59 56.3902 26.8217C57.0268 27.0534 57.5453 27.5285 57.8316 28.1425C58.1179 28.7565 58.1486 29.4591 57.9169 30.0957C57.7607 30.5141 57.5034 30.8873 57.168 31.1822C56.9091 31.3966 56.6951 31.66 56.5382 31.9573C56.3813 32.2546 56.2846 32.5799 56.2537 32.9146C56.2228 33.2493 56.2583 33.5868 56.3581 33.9078C56.4578 34.2288 56.62 34.5269 56.8352 34.7851C57.0514 35.0436 57.3166 35.2566 57.6155 35.4121C57.9144 35.5676 58.2411 35.6625 58.5768 35.6912C58.9125 35.7199 59.2506 35.6819 59.5715 35.5794C59.8925 35.4769 60.19 35.3119 60.4469 35.0939C60.7681 34.7703 61.0665 34.4248 61.3398 34.0598C61.5155 34.0973 61.6851 34.159 61.8438 34.2432C62.4804 34.4749 62.9989 34.95 63.2852 35.564C63.5715 36.178 63.6022 36.8805 63.3705 37.5171C63.1955 37.9863 62.8866 38.3938 62.4819 38.6888C62.1723 38.9288 61.8064 39.0857 61.419 39.1446C60.7493 39.2613 60.1534 39.6393 59.7624 40.1953C59.3714 40.7514 59.2173 41.44 59.334 42.1097C59.4507 42.7794 59.8287 43.3753 60.3848 43.7663C60.9409 44.1573 61.6295 44.3114 62.2992 44.1947C62.815 44.1185 63.3203 43.9832 63.8051 43.7914C64.4434 44.5284 64.8575 45.4326 64.9986 46.3973C65.1396 47.362 65.0016 48.3469 64.6009 49.2357C64.2003 50.1245 63.5536 50.8801 62.7374 51.4133C61.9211 51.9464 60.9694 52.2349 59.9945 52.2446L59.8984 52.2097Z" fill="black" stroke="#41E225" mask="url(#path-9-inside-1_1950_53814)"/>
</g>
<defs>
<linearGradient id="paint0_linear_1950_53814" x1="8.19561" y1="43.0858" x2="40.2531" y2="-4.4414" gradientUnits="userSpaceOnUse">
<stop stop-color="#2EB516"/>
<stop offset="0.5" stop-color="#49ED2C"/>
<stop offset="1" stop-color="#269412"/>
</linearGradient>
<linearGradient id="paint1_linear_1950_53814" x1="0.0893637" y1="65.1489" x2="12.8526" y2="46.2266" gradientUnits="userSpaceOnUse">
<stop stop-color="#135608"/>
<stop offset="0.5" stop-color="#19690A"/>
<stop offset="1" stop-color="#2EB516"/>
</linearGradient>
<linearGradient id="paint2_linear_1950_53814" x1="61.0283" y1="9.57216" x2="63.7328" y2="5.56257" gradientUnits="userSpaceOnUse">
<stop stop-color="#269412"/>
<stop offset="0.5" stop-color="#1C740C"/>
<stop offset="1" stop-color="#135608"/>
</linearGradient>
<linearGradient id="paint3_linear_1950_53814" x1="30.7676" y1="85.8417" x2="33.4721" y2="81.8321" gradientUnits="userSpaceOnUse">
<stop stop-color="#135608"/>
<stop offset="0.5" stop-color="#1C740C"/>
<stop offset="1" stop-color="#269412"/>
</linearGradient>
<linearGradient id="paint4_linear_1950_53814" x1="66.4705" y1="34.9411" x2="79.2338" y2="16.0188" gradientUnits="userSpaceOnUse">
<stop stop-color="#2EB516"/>
<stop offset="0.5" stop-color="#19690A"/>
<stop offset="1" stop-color="#135608"/>
</linearGradient>
<linearGradient id="paint5_linear_1950_53814" x1="44.1419" y1="89.0295" x2="76.1994" y2="41.5023" gradientUnits="userSpaceOnUse">
<stop stop-color="#269412"/>
<stop offset="0.5" stop-color="#49ED2C"/>
<stop offset="1" stop-color="#2EB516"/>
</linearGradient>
<linearGradient id="paint6_linear_1950_53814" x1="0.120395" y1="15.448" x2="93.6781" y2="18.8809" gradientUnits="userSpaceOnUse">
<stop stop-color="#25DD00"/>
<stop offset="0.504808" stop-color="#20E31D"/>
<stop offset="1" stop-color="#6EE130"/>
</linearGradient>
<clipPath id="clip0_1950_53814">
<rect x="2.21582" y="1.49414" width="85" height="85" rx="42.5" fill="white"/>
</clipPath>
</defs>
</svg>
