<svg width="95" height="92" viewBox="0 0 95 92" fill="none" xmlns="http://www.w3.org/2000/svg">
<path d="M74.5077 12.3162C86.8539 20.6402 93.9949 35.4783 91.7466 51.4752C88.5262 74.3899 67.2597 91.0051 44.2467 88.5863C37.2992 87.8561 30.9868 85.4746 25.6479 81.875C13.3017 73.5511 6.16069 58.713 8.40891 42.7161C11.6294 19.8014 32.8958 3.18622 55.9089 5.605C62.8563 6.3352 69.1687 8.71664 74.5077 12.3162Z" fill="#41E225"/>
<path d="M50.9111 2.2339C27.8981 -0.18487 6.63158 16.4303 3.41113 39.345L8.40902 42.7161C11.6295 19.8014 32.8959 3.18625 55.909 5.60502L50.9111 2.2339Z" fill="url(#paint0_linear_4006_19970)"/>
<path d="M3.41123 39.3447C1.16301 55.3417 8.30399 70.1797 20.6502 78.5037L25.6345 81.8657C13.2967 73.54 6.16172 58.7069 8.40912 42.7158L3.41123 39.3447Z" fill="url(#paint1_linear_4006_19970)"/>
<path d="M69.5102 8.94562C64.1712 5.34602 57.8588 2.96458 50.9114 2.23438L55.9093 5.6055C62.8567 6.3357 69.1691 8.71714 74.5081 12.3167L69.5102 8.94562Z" fill="url(#paint2_linear_4006_19970)"/>
<path d="M20.6501 78.5039C25.9891 82.1035 32.3015 84.4849 39.2489 85.2152L44.2468 88.5863C37.2994 87.8561 30.987 85.4746 25.648 81.875L20.6501 78.5039Z" fill="url(#paint3_linear_4006_19970)"/>
<path d="M86.749 48.1053C88.9964 32.1142 81.8614 17.2811 69.5235 8.95542L74.5079 12.3174C86.8541 20.6414 93.9951 35.4794 91.7469 51.4764L86.749 48.1053Z" fill="url(#paint4_linear_4006_19970)"/>
<path d="M39.2488 85.2156C62.2619 87.6343 83.5283 71.0191 86.7488 48.1045L91.7467 51.4756C88.5262 74.3903 67.2598 91.0055 44.2467 88.5867L39.2488 85.2156Z" fill="url(#paint5_linear_4006_19970)"/>
<g clip-path="url(#clip0_4006_19970)">
<rect x="1.87988" y="0.753906" width="85" height="85" rx="42.5" fill="url(#paint6_linear_4006_19970)"/>
<path d="M58.385 55.9536C57.3673 56.1902 56.2745 56.3338 55.1378 56.395C50.9088 56.6226 45.6528 55.7486 40.3186 53.8072C34.9844 51.8657 30.3965 49.1567 27.3031 46.264C26.4713 45.4861 25.7265 44.6731 25.0987 43.8373L22.4635 51.0777C22.3072 51.507 22.294 52.1544 22.7363 53.1121C23.1837 54.0807 24.0372 55.2189 25.3369 56.4343C27.9307 58.86 31.9966 61.3098 36.9338 63.1068C41.8708 64.9037 46.5596 65.6402 50.1057 65.4494C51.8828 65.3538 53.269 65.0309 54.2343 64.5764C55.1887 64.1271 55.5938 63.6223 55.75 63.1931L58.385 55.9536ZM63.1927 42.7447C62.1749 42.9813 61.0822 43.1249 59.9455 43.1861C55.7164 43.4137 50.4605 42.5397 45.1263 40.5983C39.7921 38.6568 35.2041 35.9478 32.1107 33.0551C31.2789 32.2772 30.5341 31.4642 29.9064 30.6284L27.2711 37.8688C27.1149 38.298 27.102 38.9446 27.5443 39.9023C27.9916 40.871 28.8446 42.0097 30.1446 43.2254C32.7384 45.651 36.8043 48.1009 41.7415 49.8979C46.6784 51.6948 51.3673 52.4313 54.9134 52.2405C56.6906 52.1449 58.077 51.8212 59.0423 51.3666C59.9965 50.9173 60.4015 50.4133 60.5577 49.9841L63.1927 42.7447ZM65.3654 36.7752C65.5214 36.346 65.5352 35.6995 65.0931 34.7421C64.6458 33.7735 63.7915 32.6351 62.4916 31.4195C59.8977 28.9941 55.8325 26.5443 50.8955 24.7474C45.9583 22.9504 41.2689 22.2136 37.7228 22.4044C35.9458 22.5001 34.5604 22.8234 33.5951 23.2778C32.641 23.727 32.2351 24.2308 32.0788 24.6599C31.9225 25.0891 31.9097 25.7357 32.3519 26.6933C32.7992 27.662 33.6522 28.8008 34.9522 30.0165C37.5461 32.4421 41.6119 34.892 46.5492 36.689C51.4861 38.4859 56.175 39.2223 59.721 39.0316C61.4983 38.936 62.8846 38.6122 63.85 38.1577C64.8041 37.7083 65.2091 37.2044 65.3654 36.7752ZM64.4679 51.4073C64.3829 51.6408 64.2839 51.8645 64.1737 52.0786L64.2177 52.0947L59.6602 64.6163C59.0199 66.3756 57.6251 67.5785 56.007 68.3404C54.4 69.0971 52.4404 69.4903 50.3302 69.6039C46.1011 69.8315 40.8452 68.9576 35.511 67.0161C30.1768 65.0746 25.5888 62.3656 22.4954 59.4729C20.9519 58.0295 19.7036 56.4686 18.9589 54.856C18.2091 53.2322 17.9138 51.4142 18.5542 49.6549L23.1117 37.1333L23.1557 37.1493C23.2089 36.9144 23.2769 36.6794 23.3618 36.446L28.1695 23.237C28.8099 21.4779 30.2044 20.2757 31.8224 19.5138C33.4295 18.7572 35.389 18.3639 37.4992 18.2503C41.7283 18.0227 46.9842 18.8966 52.3184 20.8381C57.6526 22.7796 62.2406 25.4886 65.334 28.3813C66.8774 29.8248 68.1258 31.3856 68.8705 32.9982C69.6202 34.6218 69.9157 36.4392 69.2755 38.1984L64.4679 51.4073Z" fill="black"/>
</g>
<defs>
<linearGradient id="paint0_linear_4006_19970" x1="7.85967" y1="42.3455" x2="39.9172" y2="-5.18163" gradientUnits="userSpaceOnUse">
<stop stop-color="#2EB516"/>
<stop offset="0.5" stop-color="#49ED2C"/>
<stop offset="1" stop-color="#269412"/>
</linearGradient>
<linearGradient id="paint1_linear_4006_19970" x1="-0.246574" y1="64.4087" x2="12.5166" y2="45.4864" gradientUnits="userSpaceOnUse">
<stop stop-color="#135608"/>
<stop offset="0.5" stop-color="#19690A"/>
<stop offset="1" stop-color="#2EB516"/>
</linearGradient>
<linearGradient id="paint2_linear_4006_19970" x1="60.6926" y1="8.83192" x2="63.3971" y2="4.82234" gradientUnits="userSpaceOnUse">
<stop stop-color="#269412"/>
<stop offset="0.5" stop-color="#1C740C"/>
<stop offset="1" stop-color="#135608"/>
</linearGradient>
<linearGradient id="paint3_linear_4006_19970" x1="30.4314" y1="85.1015" x2="33.1359" y2="81.0919" gradientUnits="userSpaceOnUse">
<stop stop-color="#135608"/>
<stop offset="0.5" stop-color="#1C740C"/>
<stop offset="1" stop-color="#269412"/>
</linearGradient>
<linearGradient id="paint4_linear_4006_19970" x1="66.1348" y1="34.2009" x2="78.8981" y2="15.2786" gradientUnits="userSpaceOnUse">
<stop stop-color="#2EB516"/>
<stop offset="0.5" stop-color="#19690A"/>
<stop offset="1" stop-color="#135608"/>
</linearGradient>
<linearGradient id="paint5_linear_4006_19970" x1="43.8057" y1="88.2893" x2="75.8632" y2="40.7621" gradientUnits="userSpaceOnUse">
<stop stop-color="#269412"/>
<stop offset="0.5" stop-color="#49ED2C"/>
<stop offset="1" stop-color="#2EB516"/>
</linearGradient>
<linearGradient id="paint6_linear_4006_19970" x1="-0.215543" y1="14.7078" x2="93.3422" y2="18.1407" gradientUnits="userSpaceOnUse">
<stop stop-color="#25DD00"/>
<stop offset="0.504808" stop-color="#20E31D"/>
<stop offset="1" stop-color="#6EE130"/>
</linearGradient>
<clipPath id="clip0_4006_19970">
<rect x="1.87988" y="0.753906" width="85" height="85" rx="42.5" fill="white"/>
</clipPath>
</defs>
</svg>
