<svg width="95" height="93" viewBox="0 0 95 93" fill="none" xmlns="http://www.w3.org/2000/svg">
<path d="M74.5078 13.0565C86.854 21.3804 93.995 36.2185 91.7468 52.2154C88.5263 75.1301 67.2599 91.7453 44.2468 89.3265C37.2994 88.5963 30.987 86.2149 25.648 82.6153C13.3018 74.2913 6.16081 59.4532 8.40904 43.4563C11.6295 20.5416 32.896 3.92646 55.909 6.34523C62.8565 7.07543 69.1688 9.45687 74.5078 13.0565Z" fill="#41E225"/>
<path d="M50.9112 2.97414C27.8981 0.555365 6.63164 17.1706 3.41119 40.0852L8.40909 43.4563C11.6295 20.5417 32.896 3.92648 55.9091 6.34526L50.9112 2.97414Z" fill="url(#paint0_linear_1805_24463)"/>
<path d="M3.41129 40.085C1.16307 56.0819 8.30405 70.92 20.6502 79.2439L25.6346 82.6059C13.2967 74.2802 6.16178 59.4472 8.40918 43.4561L3.41129 40.085Z" fill="url(#paint1_linear_1805_24463)"/>
<path d="M69.5102 9.68586C64.1712 6.08625 57.8588 3.70481 50.9114 2.97461L55.9093 6.34573C62.8567 7.07593 69.1691 9.45737 74.5081 13.057L69.5102 9.68586Z" fill="url(#paint2_linear_1805_24463)"/>
<path d="M20.6502 79.2441C25.9892 82.8437 32.3016 85.2252 39.249 85.9554L44.2469 89.3265C37.2995 88.5963 30.9871 86.2149 25.6481 82.6153L20.6502 79.2441Z" fill="url(#paint3_linear_1805_24463)"/>
<path d="M86.749 48.8455C88.9964 32.8544 81.8615 18.0213 69.5236 9.69565L74.508 13.0576C86.8542 21.3816 93.9951 36.2197 91.7469 52.2166L86.749 48.8455Z" fill="url(#paint4_linear_1805_24463)"/>
<path d="M39.2489 85.9558C62.262 88.3746 83.5285 71.7594 86.7489 48.8447L91.7468 52.2158C88.5263 75.1305 67.2599 91.7457 44.2468 89.3269L39.2489 85.9558Z" fill="url(#paint5_linear_1805_24463)"/>
<rect x="1.87994" y="1.49414" width="85" height="85" rx="42.5" fill="url(#paint6_linear_1805_24463)"/>
<path d="M35.9407 46.8847C35.5029 46.7253 35.0277 46.6994 34.5752 46.8101C34.1226 46.9208 33.7131 47.1633 33.3984 47.5068C33.0836 47.8502 32.8778 48.2793 32.807 48.7398C32.7361 49.2002 32.8034 49.6714 33.0002 50.0936C33.1971 50.5158 33.5148 50.8701 33.9131 51.1118C34.3113 51.3535 34.7723 51.4717 35.2378 51.4513C35.7032 51.431 36.1522 51.2731 36.5279 50.9977C36.9036 50.7222 37.1891 50.3415 37.3485 49.9037C37.5621 49.3167 37.5338 48.6688 37.2698 48.1026C37.0058 47.5364 36.5277 47.0983 35.9407 46.8847ZM21.2522 39.0319C20.6652 38.8182 20.0173 38.8465 19.4511 39.1105C18.885 39.3745 18.4469 39.8526 18.2332 40.4397L16.6219 44.8665C16.4083 45.4536 16.4366 46.1015 16.7006 46.6676C16.9646 47.2338 17.4427 47.6719 18.0297 47.8856C18.6168 48.0993 19.2647 48.071 19.8308 47.807C20.397 47.5429 20.8351 47.0648 21.0488 46.4778L22.6601 42.0509C22.8737 41.4639 22.8454 40.816 22.5814 40.2498C22.3174 39.6836 21.8393 39.2455 21.2522 39.0319ZM65.5209 55.1443C64.9339 54.9307 64.286 54.959 63.7198 55.223C63.1536 55.487 62.7155 55.9651 62.5019 56.5522L60.8906 60.979C60.6769 61.5661 60.7052 62.2139 60.9692 62.7801C61.2333 63.3463 61.7114 63.7844 62.2984 63.9981C62.8855 64.2117 63.5333 64.1835 64.0995 63.9194C64.6657 63.6554 65.1038 63.1773 65.3175 62.5903L66.9287 58.1634C67.1424 57.5764 67.1141 56.9285 66.8501 56.3623C66.5861 55.7961 66.108 55.358 65.5209 55.1443ZM60.0931 35.6222L51.2394 32.3997L52.2706 29.5665C53.0802 29.4238 53.8384 29.0716 54.4698 28.545C55.1012 28.0185 55.5838 27.3359 55.8697 26.565C56.297 25.3909 56.2404 24.0952 55.7124 22.9628C55.1844 21.8305 54.2281 20.9542 53.0541 20.5269C51.88 20.0996 50.5842 20.1561 49.4519 20.6842C48.3195 21.2122 47.4433 22.1684 47.016 23.3425C46.7394 24.1168 46.6703 24.9499 46.8156 25.7591C46.9608 26.5683 47.3152 27.3255 47.8437 27.9553L46.8125 30.7884L37.9588 27.566C36.1977 26.925 34.254 27.0098 32.5555 27.8019C30.8569 28.5939 29.5426 30.0283 28.9016 31.7894L21.651 51.7103C21.01 53.4714 21.0949 55.415 21.8869 57.1136C22.679 58.8121 24.1133 60.1265 25.8744 60.7675L48.0088 68.8237C49.7699 69.4647 51.7135 69.3798 53.412 68.5878C55.1106 67.7957 56.4249 66.3614 57.0659 64.6003L64.3165 44.6794C64.9575 42.9182 64.8727 40.9746 64.0806 39.2761C63.2886 37.5775 61.8542 36.2632 60.0931 35.6222ZM51.2218 37.4066L48.5038 41.4307L43.1031 39.4649L43.6076 34.6353L51.2218 37.4066ZM52.6391 62.989C52.4254 63.5761 51.9873 64.0542 51.4211 64.3182C50.8549 64.5822 50.207 64.6105 49.62 64.3968L27.4857 56.3406C26.8986 56.1269 26.4205 55.6888 26.1565 55.1226C25.8925 54.5564 25.8642 53.9086 26.0779 53.3215L33.3285 33.4006C33.5421 32.8136 33.9803 32.3355 34.5464 32.0715C35.1126 31.8074 35.7605 31.7792 36.3475 31.9928L39.0479 32.9757L38.1642 40.7756C38.1066 41.3108 38.2341 41.8496 38.5254 42.3022C38.8168 42.7549 39.2544 43.0941 39.7653 43.2634L48.6191 46.4859C49.1193 46.6847 49.6726 46.7061 50.1867 46.5466C50.7008 46.3871 51.1448 46.0563 51.4448 45.6093L55.7815 39.0662L58.4819 40.0491C59.0689 40.2627 59.547 40.7008 59.811 41.267C60.0751 41.8332 60.1033 42.4811 59.8897 43.0681L52.6391 62.989ZM49.2213 51.7184C48.7835 51.5591 48.3083 51.5331 47.8558 51.6439C47.4032 51.7546 46.9937 51.997 46.679 52.3405C46.3642 52.684 46.1584 53.1131 46.0876 53.5735C46.0167 54.034 46.084 54.5051 46.2808 54.9273C46.4777 55.3495 46.7954 55.7039 47.1937 55.9456C47.5919 56.1873 48.0529 56.3054 48.5184 56.2851C48.9838 56.2648 49.4328 56.1069 49.8085 55.8314C50.1842 55.5559 50.4697 55.1752 50.6291 54.7375C50.8427 54.1504 50.8144 53.5026 50.5504 52.9364C50.2864 52.3702 49.8083 51.9321 49.2213 51.7184Z" fill="black"/>
<defs>
<linearGradient id="paint0_linear_1805_24463" x1="7.85973" y1="43.0858" x2="39.9172" y2="-4.4414" gradientUnits="userSpaceOnUse">
<stop stop-color="#2EB516"/>
<stop offset="0.5" stop-color="#49ED2C"/>
<stop offset="1" stop-color="#269412"/>
</linearGradient>
<linearGradient id="paint1_linear_1805_24463" x1="-0.246513" y1="65.1489" x2="12.5167" y2="46.2266" gradientUnits="userSpaceOnUse">
<stop stop-color="#135608"/>
<stop offset="0.5" stop-color="#19690A"/>
<stop offset="1" stop-color="#2EB516"/>
</linearGradient>
<linearGradient id="paint2_linear_1805_24463" x1="60.6926" y1="9.57216" x2="63.3971" y2="5.56257" gradientUnits="userSpaceOnUse">
<stop stop-color="#269412"/>
<stop offset="0.5" stop-color="#1C740C"/>
<stop offset="1" stop-color="#135608"/>
</linearGradient>
<linearGradient id="paint3_linear_1805_24463" x1="30.4315" y1="85.8417" x2="33.136" y2="81.8321" gradientUnits="userSpaceOnUse">
<stop stop-color="#135608"/>
<stop offset="0.5" stop-color="#1C740C"/>
<stop offset="1" stop-color="#269412"/>
</linearGradient>
<linearGradient id="paint4_linear_1805_24463" x1="66.1349" y1="34.9411" x2="78.8981" y2="16.0188" gradientUnits="userSpaceOnUse">
<stop stop-color="#2EB516"/>
<stop offset="0.5" stop-color="#19690A"/>
<stop offset="1" stop-color="#135608"/>
</linearGradient>
<linearGradient id="paint5_linear_1805_24463" x1="43.8059" y1="89.0295" x2="75.8634" y2="41.5023" gradientUnits="userSpaceOnUse">
<stop stop-color="#269412"/>
<stop offset="0.5" stop-color="#49ED2C"/>
<stop offset="1" stop-color="#2EB516"/>
</linearGradient>
<linearGradient id="paint6_linear_1805_24463" x1="-0.215482" y1="15.448" x2="93.3422" y2="18.8809" gradientUnits="userSpaceOnUse">
<stop stop-color="#25DD00"/>
<stop offset="0.504808" stop-color="#20E31D"/>
<stop offset="1" stop-color="#6EE130"/>
</linearGradient>
</defs>
</svg>
