<svg width="95" height="92" viewBox="0 0 95 92" fill="none" xmlns="http://www.w3.org/2000/svg">
<path d="M74.5077 12.3162C86.8539 20.6402 93.9949 35.4783 91.7467 51.4752C88.5262 74.3899 67.2597 91.0051 44.2467 88.5863C37.2992 87.8561 30.9868 85.4746 25.6479 81.875C13.3017 73.5511 6.16069 58.713 8.40891 42.7161C11.6294 19.8014 32.8958 3.18622 55.9089 5.605C62.8563 6.3352 69.1687 8.71664 74.5077 12.3162Z" fill="#41E225"/>
<path d="M50.9111 2.2339C27.8981 -0.18487 6.63158 16.4303 3.41113 39.345L8.40902 42.7161C11.6295 19.8014 32.8959 3.18625 55.909 5.60502L50.9111 2.2339Z" fill="url(#paint0_linear_1805_23979)"/>
<path d="M3.41123 39.3447C1.16301 55.3417 8.30399 70.1797 20.6502 78.5037L25.6345 81.8657C13.2967 73.54 6.16172 58.7069 8.40912 42.7158L3.41123 39.3447Z" fill="url(#paint1_linear_1805_23979)"/>
<path d="M69.5102 8.94562C64.1712 5.34602 57.8588 2.96458 50.9114 2.23438L55.9093 5.6055C62.8567 6.3357 69.1691 8.71714 74.5081 12.3167L69.5102 8.94562Z" fill="url(#paint2_linear_1805_23979)"/>
<path d="M20.6501 78.5039C25.9891 82.1035 32.3015 84.4849 39.2489 85.2152L44.2468 88.5863C37.2994 87.8561 30.987 85.4746 25.648 81.875L20.6501 78.5039Z" fill="url(#paint3_linear_1805_23979)"/>
<path d="M86.749 48.1053C88.9964 32.1142 81.8614 17.2811 69.5235 8.95542L74.5079 12.3174C86.8541 20.6414 93.9951 35.4794 91.7469 51.4764L86.749 48.1053Z" fill="url(#paint4_linear_1805_23979)"/>
<path d="M39.2488 85.2156C62.2619 87.6343 83.5283 71.0191 86.7488 48.1045L91.7467 51.4756C88.5262 74.3903 67.2598 91.0055 44.2467 88.5867L39.2488 85.2156Z" fill="url(#paint5_linear_1805_23979)"/>
<rect x="1.87988" y="0.753906" width="85" height="85" rx="42.5" fill="url(#paint6_linear_1805_23979)"/>
<path d="M66.3696 38.1515L59.8002 30.408C59.5786 30.1438 59.2912 29.9426 58.9672 29.8247C58.6431 29.7067 58.2937 29.6762 57.954 29.736L49.037 31.2576L43.1841 24.3602C42.9625 24.0961 42.6751 23.8949 42.3511 23.7769C42.027 23.659 41.6776 23.6284 41.3379 23.6883L31.3281 25.3975C30.9845 25.454 30.6622 25.6007 30.394 25.8228C30.1259 26.0448 29.9215 26.334 29.8019 26.661L26.3614 36.1137C26.2429 36.441 26.2135 36.794 26.2762 37.1365C26.3389 37.4789 26.4915 37.7985 26.7183 38.0626L32.5779 44.9415L29.5271 53.3234C29.4086 53.6507 29.3792 54.0037 29.4419 54.3461C29.5047 54.6886 29.6573 55.0082 29.8841 55.2723L36.4719 63.0225C36.6936 63.2867 36.9809 63.4879 37.305 63.6059C37.6291 63.7238 37.9785 63.7544 38.3181 63.6945L48.3095 61.9786C48.653 61.9221 48.9754 61.7753 49.2435 61.5533C49.5117 61.3313 49.7161 61.042 49.8357 60.7151L52.8865 52.3332L61.7968 50.8301C62.1403 50.7736 62.4626 50.6269 62.7308 50.4048C62.999 50.1828 63.2033 49.8936 63.323 49.5666L66.7635 40.1139C66.8797 39.7815 66.9044 39.424 66.8351 39.0788C66.7659 38.7336 66.6051 38.4133 66.3696 38.1515ZM30.4436 36.3868L33.1315 29.0019L40.9372 27.6613L46.0551 33.7057L43.3672 41.0906L35.5615 42.4312L30.4436 36.3868ZM46.5145 58.2936L38.7087 59.6342L33.5909 53.5898L36.2788 46.2049L44.0845 44.8643L49.2024 50.9087L46.5145 58.2936ZM59.9833 47.1384L52.1776 48.479L47.0597 42.4346L49.7476 35.0497L57.5533 33.7091L62.6712 39.7535L59.9833 47.1384Z" fill="black"/>
<defs>
<linearGradient id="paint0_linear_1805_23979" x1="7.85967" y1="42.3455" x2="39.9172" y2="-5.18163" gradientUnits="userSpaceOnUse">
<stop stop-color="#2EB516"/>
<stop offset="0.5" stop-color="#49ED2C"/>
<stop offset="1" stop-color="#269412"/>
</linearGradient>
<linearGradient id="paint1_linear_1805_23979" x1="-0.246574" y1="64.4087" x2="12.5166" y2="45.4864" gradientUnits="userSpaceOnUse">
<stop stop-color="#135608"/>
<stop offset="0.5" stop-color="#19690A"/>
<stop offset="1" stop-color="#2EB516"/>
</linearGradient>
<linearGradient id="paint2_linear_1805_23979" x1="60.6926" y1="8.83192" x2="63.3971" y2="4.82234" gradientUnits="userSpaceOnUse">
<stop stop-color="#269412"/>
<stop offset="0.5" stop-color="#1C740C"/>
<stop offset="1" stop-color="#135608"/>
</linearGradient>
<linearGradient id="paint3_linear_1805_23979" x1="30.4314" y1="85.1015" x2="33.1359" y2="81.0919" gradientUnits="userSpaceOnUse">
<stop stop-color="#135608"/>
<stop offset="0.5" stop-color="#1C740C"/>
<stop offset="1" stop-color="#269412"/>
</linearGradient>
<linearGradient id="paint4_linear_1805_23979" x1="66.1348" y1="34.2009" x2="78.8981" y2="15.2786" gradientUnits="userSpaceOnUse">
<stop stop-color="#2EB516"/>
<stop offset="0.5" stop-color="#19690A"/>
<stop offset="1" stop-color="#135608"/>
</linearGradient>
<linearGradient id="paint5_linear_1805_23979" x1="43.8057" y1="88.2893" x2="75.8632" y2="40.7621" gradientUnits="userSpaceOnUse">
<stop stop-color="#269412"/>
<stop offset="0.5" stop-color="#49ED2C"/>
<stop offset="1" stop-color="#2EB516"/>
</linearGradient>
<linearGradient id="paint6_linear_1805_23979" x1="-0.215543" y1="14.7078" x2="93.3422" y2="18.1407" gradientUnits="userSpaceOnUse">
<stop stop-color="#25DD00"/>
<stop offset="0.504808" stop-color="#20E31D"/>
<stop offset="1" stop-color="#6EE130"/>
</linearGradient>
</defs>
</svg>
