<svg width="95" height="92" viewBox="0 0 95 92" fill="none" xmlns="http://www.w3.org/2000/svg">
<path d="M74.5078 12.3162C86.854 20.6402 93.995 35.4783 91.7468 51.4752C88.5263 74.3899 67.2599 91.0051 44.2468 88.5863C37.2994 87.8561 30.987 85.4746 25.648 81.875C13.3018 73.5511 6.16081 58.713 8.40904 42.7161C11.6295 19.8014 32.896 3.18622 55.909 5.605C62.8565 6.3352 69.1688 8.71664 74.5078 12.3162Z" fill="#41E225"/>
<path d="M50.9111 2.2339C27.8981 -0.18487 6.63158 16.4303 3.41113 39.345L8.40902 42.7161C11.6295 19.8014 32.8959 3.18625 55.909 5.60502L50.9111 2.2339Z" fill="url(#paint0_linear_1805_24057)"/>
<path d="M3.41123 39.3447C1.16301 55.3417 8.30399 70.1797 20.6502 78.5037L25.6345 81.8657C13.2967 73.54 6.16172 58.7069 8.40912 42.7158L3.41123 39.3447Z" fill="url(#paint1_linear_1805_24057)"/>
<path d="M69.5102 8.94562C64.1712 5.34602 57.8588 2.96458 50.9114 2.23438L55.9093 5.6055C62.8567 6.3357 69.1691 8.71714 74.5081 12.3167L69.5102 8.94562Z" fill="url(#paint2_linear_1805_24057)"/>
<path d="M20.6501 78.5039C25.9891 82.1035 32.3015 84.4849 39.2489 85.2152L44.2468 88.5863C37.2994 87.8561 30.987 85.4746 25.648 81.875L20.6501 78.5039Z" fill="url(#paint3_linear_1805_24057)"/>
<path d="M86.749 48.1053C88.9964 32.1142 81.8614 17.2811 69.5235 8.95542L74.5079 12.3174C86.8541 20.6414 93.9951 35.4794 91.7469 51.4764L86.749 48.1053Z" fill="url(#paint4_linear_1805_24057)"/>
<path d="M39.2488 85.2156C62.2619 87.6343 83.5283 71.0191 86.7488 48.1045L91.7467 51.4756C88.5262 74.3903 67.2598 91.0055 44.2467 88.5867L39.2488 85.2156Z" fill="url(#paint5_linear_1805_24057)"/>
<rect x="1.87988" y="0.753906" width="85" height="85" rx="42.5" fill="url(#paint6_linear_1805_24057)"/>
<g clip-path="url(#clip0_1805_24057)">
<path d="M49.0247 64.7747L54.9694 66.9384L57.1331 60.9937L51.1884 58.8301L49.0247 64.7747ZM21.4222 44.5177L22.3157 42.0629C22.6272 41.207 22.8923 40.4769 23.1516 39.8918C23.4177 39.2913 23.7298 38.718 24.1932 38.2121C25.247 37.0622 26.7151 36.3783 28.2733 36.3103C28.9587 36.2804 29.598 36.4088 30.2289 36.5908C30.8439 36.7683 31.5736 37.0345 32.4295 37.346C33.3954 37.6976 33.8934 38.7658 33.542 39.7317C33.1904 40.6977 32.1223 41.1958 31.1563 40.8442C30.2526 40.5153 29.6619 40.3016 29.1973 40.1675C28.7487 40.0381 28.5485 40.0234 28.4353 40.0284C27.8635 40.0534 27.3246 40.3054 26.9379 40.7274C26.8613 40.8111 26.7439 40.9734 26.555 41.3996C26.359 41.8418 26.1428 42.4322 25.8138 43.3362L24.9204 45.7909C24.5249 46.8773 24.2682 47.5877 24.1152 48.1459C23.968 48.6828 23.9646 48.9205 23.9815 49.0585C24.0371 49.5109 24.2345 49.9342 24.5453 50.2676C24.6401 50.3692 24.8242 50.5193 25.3304 50.7518C25.8564 50.9934 26.5655 51.2533 27.6519 51.6488L41.439 56.6668C42.4049 57.0184 42.903 58.0866 42.5514 59.0525C42.1998 60.0185 41.1317 60.5166 40.1657 60.165L26.3787 55.1469C25.3498 54.7724 24.472 54.4549 23.7758 54.1351C23.0598 53.8062 22.3856 53.4109 21.8222 52.8068C20.9753 51.8985 20.4374 50.745 20.286 49.5124C20.1854 48.6925 20.3159 47.922 20.5242 47.162C20.7267 46.4231 21.0477 45.5466 21.4222 44.5177ZM40.0153 45.4539L45.96 47.6176L48.1236 41.6729L42.179 39.5092L40.0153 45.4539ZM62.3248 43.7916L63.2186 41.3359C63.614 40.2495 63.8716 39.5395 64.0247 38.9813C64.1719 38.4441 64.1744 38.2062 64.1574 38.0683C64.1018 37.6161 63.9052 37.1928 63.5945 36.8595C63.4997 36.7579 63.3148 36.6075 62.8095 36.3753C62.2835 36.1337 61.5736 35.8735 60.487 35.478L46.7 30.46C45.734 30.1084 45.2359 29.0402 45.5875 28.0743C45.9392 27.1085 47.0073 26.6103 47.9732 26.9618L61.7603 31.9799C62.7891 32.3544 63.6666 32.6728 64.3628 32.9926C65.0789 33.3215 65.753 33.7168 66.3164 34.321C67.1633 35.2292 67.7015 36.3819 67.8529 37.6144C67.9536 38.4344 67.8227 39.2057 67.6144 39.9657C67.4119 40.7045 67.0911 41.5805 66.7167 42.6091L65.8229 45.0648C65.5114 45.9208 65.2472 46.6511 64.9879 47.2363C64.7217 47.8368 64.4089 48.4097 63.9454 48.9156C62.8917 50.0654 61.4243 50.7497 59.8662 50.8178C59.1807 50.8477 58.5408 50.719 57.9097 50.5369C57.2947 50.3594 56.5655 50.0924 55.7094 49.7808C54.7434 49.4292 54.2454 48.3611 54.597 47.3951C54.9486 46.4292 56.0167 45.9311 56.9826 46.2826C57.8863 46.6115 58.477 46.8252 58.9416 46.9593C59.3902 47.0887 59.5904 47.1034 59.7037 47.0984C60.2755 47.0734 60.814 46.8223 61.2007 46.4003C61.2773 46.3167 61.3956 46.1543 61.5848 45.7275C61.7808 45.2854 61.9959 44.6952 62.3248 43.7916ZM31.0055 26.134L36.9511 28.298L39.1151 22.3524L33.1695 20.1884L31.0055 26.134ZM58.3807 68.4502C58.295 68.6858 58.1941 68.9682 58.0848 69.2061C57.9664 69.4638 57.7752 69.8162 57.4358 70.1328C56.9932 70.5454 56.4316 70.8072 55.8311 70.881C55.3704 70.9376 54.9776 70.8576 54.704 70.7826C54.4516 70.7134 54.1703 70.6091 53.9348 70.5234L47.5129 68.186C47.2774 68.1003 46.9949 67.9994 46.757 67.8901C46.4993 67.7717 46.1469 67.5805 45.8304 67.2411C45.4178 66.7985 45.1559 66.2369 45.0821 65.6364C45.0255 65.1757 45.1056 64.7829 45.1805 64.5093C45.2497 64.2569 45.354 63.9756 45.4397 63.7401L47.7771 57.3182C47.8628 57.0827 47.9638 56.8002 48.073 56.5623C48.1914 56.3046 48.3826 55.9522 48.7221 55.6357L48.8932 55.488C49.3054 55.1605 49.8013 54.952 50.3267 54.8874L50.4964 54.8723C50.884 54.8508 51.2144 54.9202 51.4538 54.9859C51.7062 55.055 51.9875 55.1593 52.2231 55.2451L58.6449 57.5824C58.8804 57.6682 59.1629 57.7691 59.4008 57.8783C59.6263 57.9819 59.9241 58.1411 60.2072 58.4067L60.3275 58.5274L60.4751 58.6985C60.8027 59.1108 61.0111 59.6066 61.0757 60.132C61.1323 60.5927 61.0522 60.9856 60.9773 61.2591C60.9081 61.5115 60.8038 61.7928 60.7181 62.0284L58.3807 68.4502ZM49.3713 49.1294C49.2855 49.3649 49.1846 49.6474 49.0754 49.8853C48.957 50.143 48.7667 50.4957 48.4272 50.8123C47.9845 51.2251 47.4221 51.4874 46.8213 51.5611C46.3606 51.6177 45.9681 51.5367 45.6946 51.4618C45.4421 51.3926 45.1609 51.2883 44.9253 51.2026L38.5035 48.8652C38.268 48.7795 37.9854 48.6785 37.7476 48.5693C37.4899 48.4509 37.1371 48.2605 36.8206 47.9212C36.4079 47.4785 36.1464 46.9162 36.0727 46.3156C36.0161 45.8548 36.0961 45.4621 36.1711 45.1885C36.2403 44.936 36.3446 44.6548 36.4303 44.4193L38.7677 37.9974C38.8534 37.7619 38.9543 37.4793 39.0636 37.2415C39.182 36.9838 39.3732 36.6313 39.7126 36.3148L39.8838 36.1672C40.296 35.8397 40.7918 35.6312 41.3173 35.5666L41.487 35.5515C41.8745 35.5299 42.205 35.5994 42.4443 35.665C42.6967 35.7342 42.9781 35.8385 43.2136 35.9242L49.6355 38.2616C49.871 38.3473 50.1535 38.4482 50.3914 38.5575C50.6169 38.6611 50.9147 38.8204 51.1977 39.0859L51.318 39.2066L51.4656 39.3777C51.7465 39.7311 51.9398 40.1459 52.0301 40.5881L52.0672 40.8115L52.0814 40.9809C52.103 41.3685 52.0334 41.6989 51.9678 41.9383C51.8986 42.1907 51.7943 42.472 51.7086 42.7075L49.3713 49.1294ZM40.3627 29.8089C40.277 30.0444 40.1752 30.3266 40.0659 30.5645C39.9475 30.8222 39.7572 31.1749 39.4178 31.4915C38.9751 31.9043 38.4127 32.1665 37.8119 32.2403C37.3512 32.2969 36.9586 32.2159 36.6851 32.1409C36.4327 32.0717 36.1511 31.9684 35.9155 31.8827L29.4937 29.5453C29.2582 29.4596 28.9759 29.3577 28.7381 29.2485C28.4805 29.1301 28.1284 28.9398 27.812 28.6007C27.3992 28.158 27.137 27.5956 27.0632 26.9948C27.0066 26.534 27.0867 26.1412 27.1617 25.8677C27.2309 25.6153 27.3351 25.334 27.4209 25.0984L29.7582 18.6766C29.8439 18.4411 29.9449 18.1585 30.0541 17.9207C30.1725 17.6631 30.3636 17.3113 30.7028 16.9949C31.1455 16.5821 31.708 16.3199 32.3087 16.2461C32.7692 16.1896 33.1614 16.2693 33.4349 16.3442C33.6872 16.4134 33.9687 16.5177 34.2042 16.6034L40.626 18.9408C40.8615 19.0265 41.144 19.1274 41.3819 19.2367C41.6396 19.3551 41.992 19.5462 42.3086 19.8857C42.6696 20.2729 42.9153 20.7514 43.0206 21.2673L43.0574 21.4916L43.0729 21.6604C43.0944 22.0478 43.024 22.3781 42.9584 22.6175C42.8892 22.8698 42.7858 23.1516 42.7001 23.3871L40.3627 29.8089Z" fill="black"/>
</g>
<defs>
<linearGradient id="paint0_linear_1805_24057" x1="7.85967" y1="42.3455" x2="39.9172" y2="-5.18163" gradientUnits="userSpaceOnUse">
<stop stop-color="#2EB516"/>
<stop offset="0.5" stop-color="#49ED2C"/>
<stop offset="1" stop-color="#269412"/>
</linearGradient>
<linearGradient id="paint1_linear_1805_24057" x1="-0.246574" y1="64.4087" x2="12.5166" y2="45.4864" gradientUnits="userSpaceOnUse">
<stop stop-color="#135608"/>
<stop offset="0.5" stop-color="#19690A"/>
<stop offset="1" stop-color="#2EB516"/>
</linearGradient>
<linearGradient id="paint2_linear_1805_24057" x1="60.6926" y1="8.83192" x2="63.3971" y2="4.82234" gradientUnits="userSpaceOnUse">
<stop stop-color="#269412"/>
<stop offset="0.5" stop-color="#1C740C"/>
<stop offset="1" stop-color="#135608"/>
</linearGradient>
<linearGradient id="paint3_linear_1805_24057" x1="30.4314" y1="85.1015" x2="33.1359" y2="81.0919" gradientUnits="userSpaceOnUse">
<stop stop-color="#135608"/>
<stop offset="0.5" stop-color="#1C740C"/>
<stop offset="1" stop-color="#269412"/>
</linearGradient>
<linearGradient id="paint4_linear_1805_24057" x1="66.1348" y1="34.2009" x2="78.8981" y2="15.2786" gradientUnits="userSpaceOnUse">
<stop stop-color="#2EB516"/>
<stop offset="0.5" stop-color="#19690A"/>
<stop offset="1" stop-color="#135608"/>
</linearGradient>
<linearGradient id="paint5_linear_1805_24057" x1="43.8057" y1="88.2893" x2="75.8632" y2="40.7621" gradientUnits="userSpaceOnUse">
<stop stop-color="#269412"/>
<stop offset="0.5" stop-color="#49ED2C"/>
<stop offset="1" stop-color="#2EB516"/>
</linearGradient>
<linearGradient id="paint6_linear_1805_24057" x1="-0.215543" y1="14.7078" x2="93.3422" y2="18.1407" gradientUnits="userSpaceOnUse">
<stop stop-color="#25DD00"/>
<stop offset="0.504808" stop-color="#20E31D"/>
<stop offset="1" stop-color="#6EE130"/>
</linearGradient>
<clipPath id="clip0_1805_24057">
<rect width="58.3212" height="58.3212" fill="white" transform="translate(26.6411 6.18848) rotate(20)"/>
</clipPath>
</defs>
</svg>
