<svg width="95" height="92" viewBox="0 0 95 92" fill="none" xmlns="http://www.w3.org/2000/svg">
<path d="M74.5076 12.3162C86.8538 20.6402 93.9947 35.4783 91.7465 51.4752C88.5261 74.3899 67.2596 91.0051 44.2465 88.5863C37.2991 87.8561 30.9867 85.4746 25.6477 81.875C13.3015 73.5511 6.16057 58.713 8.40879 42.7161C11.6292 19.8014 32.8957 3.18622 55.9088 5.605C62.8562 6.3352 69.1686 8.71664 74.5076 12.3162Z" fill="#41E225"/>
<path d="M50.9111 2.2339C27.8981 -0.18487 6.63158 16.4303 3.41113 39.345L8.40902 42.7161C11.6295 19.8014 32.8959 3.18625 55.909 5.60502L50.9111 2.2339Z" fill="url(#paint0_linear_4010_13185)"/>
<path d="M3.41123 39.3447C1.16301 55.3417 8.30399 70.1797 20.6502 78.5037L25.6345 81.8657C13.2967 73.54 6.16172 58.7069 8.40912 42.7158L3.41123 39.3447Z" fill="url(#paint1_linear_4010_13185)"/>
<path d="M69.5099 8.94562C64.1709 5.34602 57.8586 2.96458 50.9111 2.23438L55.909 5.6055C62.8564 6.3357 69.1688 8.71714 74.5078 12.3167L69.5099 8.94562Z" fill="url(#paint2_linear_4010_13185)"/>
<path d="M20.6499 78.5039C25.9889 82.1035 32.3013 84.4849 39.2487 85.2152L44.2466 88.5863C37.2992 87.8561 30.9868 85.4746 25.6478 81.875L20.6499 78.5039Z" fill="url(#paint3_linear_4010_13185)"/>
<path d="M86.7492 48.1053C88.9966 32.1142 81.8617 17.2811 69.5238 8.95542L74.5081 12.3174C86.8543 20.6414 93.9953 35.4794 91.7471 51.4764L86.7492 48.1053Z" fill="url(#paint4_linear_4010_13185)"/>
<path d="M39.249 85.2156C62.2621 87.6343 83.5286 71.0191 86.749 48.1045L91.7469 51.4756C88.5265 74.3903 67.26 91.0055 44.2469 88.5867L39.249 85.2156Z" fill="url(#paint5_linear_4010_13185)"/>
<rect x="1.87988" y="0.753906" width="85" height="85" rx="42.5" fill="url(#paint6_linear_4010_13185)"/>
<path d="M19.7301 46.5043L27.8052 24.836C28.4307 23.1578 29.9715 21.745 31.5058 20.8711C33.0149 20.0115 35.0993 19.3483 36.9696 19.9358L44.4752 22.2935C45.3897 22.5807 46.1423 22.8048 46.8009 23.2019C47.3478 23.5316 47.8316 23.9441 48.237 24.4227C49.1858 25.5432 49.5382 26.8111 49.6869 27.9468C49.7631 28.5287 49.7926 29.1961 49.812 29.8005L60.4629 33.1463C61.5775 33.4964 62.521 33.7912 63.2681 34.0949C64.0353 34.4068 64.7473 34.7859 65.3402 35.3796C66.236 36.2766 66.8073 37.4388 66.9658 38.7002C67.0702 39.5326 66.9314 40.3273 66.7066 41.1243C66.4876 41.9006 66.1408 42.8269 65.7328 43.9218L65.7311 43.9263L63.3228 50.3355C62.9612 51.2978 61.8737 51.8263 60.8941 51.5158C59.9145 51.2051 59.4133 50.173 59.7747 49.2107L62.1812 42.8061L62.7193 41.3427C62.8644 40.9343 62.977 40.5953 63.0611 40.297C63.2236 39.7211 63.2317 39.4547 63.2109 39.2892C63.1487 38.7946 62.9241 38.3358 62.5693 37.9806C62.4513 37.8625 62.2359 37.7062 61.6824 37.4812C61.1083 37.2478 60.3361 37.0031 59.163 36.6346L30.7067 27.6958L23.2817 47.6199C22.8967 48.6531 22.5078 49.706 22.3329 50.2832C22.0357 51.2636 20.9835 51.8579 19.9825 51.6108C18.9813 51.3633 18.4108 50.3674 18.7079 49.3868C18.9246 48.6717 19.3633 47.4886 19.7301 46.5043ZM35.6696 23.4241C35.2837 23.3029 34.4111 23.3876 33.3215 24.0082C33.0932 24.1383 32.8822 24.2784 32.6887 24.4217L45.9372 28.5834C45.9359 28.5739 45.9355 28.5643 45.9342 28.5549C45.8335 27.7852 45.6352 27.2424 45.2734 26.815C45.1119 26.6242 44.9213 26.4614 44.7079 26.3327C44.5089 26.2127 44.2591 26.1222 43.1752 25.7818L35.6696 23.4241Z" fill="black"/>
<path d="M63.3358 48.5742C66.2675 49.5099 67.3228 53.1139 65.3591 55.4833L59.2802 62.8169C58.1737 64.1518 56.3789 64.7014 54.715 64.2139L21.7208 54.5439C18.5176 53.605 17.5274 49.5534 19.9359 47.2422L27.8589 39.6394C29.0081 38.5368 30.6686 38.1511 32.1858 38.6351L63.3358 48.5742ZM62.2038 52.1207L31.0547 42.1819C30.8379 42.1128 30.5999 42.168 30.4358 42.3255L22.5127 49.9283C22.1686 50.2585 22.3107 50.8374 22.7683 50.9715L55.7616 60.6411C55.9993 60.7108 56.2562 60.6325 56.4142 60.4419L62.4931 53.1082C62.7737 52.7697 62.6227 52.2543 62.2038 52.1207Z" fill="black"/>
<defs>
<linearGradient id="paint0_linear_4010_13185" x1="7.85967" y1="42.3455" x2="39.9172" y2="-5.18163" gradientUnits="userSpaceOnUse">
<stop stop-color="#2EB516"/>
<stop offset="0.5" stop-color="#49ED2C"/>
<stop offset="1" stop-color="#269412"/>
</linearGradient>
<linearGradient id="paint1_linear_4010_13185" x1="-0.246574" y1="64.4087" x2="12.5166" y2="45.4864" gradientUnits="userSpaceOnUse">
<stop stop-color="#135608"/>
<stop offset="0.5" stop-color="#19690A"/>
<stop offset="1" stop-color="#2EB516"/>
</linearGradient>
<linearGradient id="paint2_linear_4010_13185" x1="60.6924" y1="8.83192" x2="63.3969" y2="4.82234" gradientUnits="userSpaceOnUse">
<stop stop-color="#269412"/>
<stop offset="0.5" stop-color="#1C740C"/>
<stop offset="1" stop-color="#135608"/>
</linearGradient>
<linearGradient id="paint3_linear_4010_13185" x1="30.4312" y1="85.1015" x2="33.1357" y2="81.0919" gradientUnits="userSpaceOnUse">
<stop stop-color="#135608"/>
<stop offset="0.5" stop-color="#1C740C"/>
<stop offset="1" stop-color="#269412"/>
</linearGradient>
<linearGradient id="paint4_linear_4010_13185" x1="66.1351" y1="34.2009" x2="78.8983" y2="15.2786" gradientUnits="userSpaceOnUse">
<stop stop-color="#2EB516"/>
<stop offset="0.5" stop-color="#19690A"/>
<stop offset="1" stop-color="#135608"/>
</linearGradient>
<linearGradient id="paint5_linear_4010_13185" x1="43.806" y1="88.2893" x2="75.8635" y2="40.7621" gradientUnits="userSpaceOnUse">
<stop stop-color="#269412"/>
<stop offset="0.5" stop-color="#49ED2C"/>
<stop offset="1" stop-color="#2EB516"/>
</linearGradient>
<linearGradient id="paint6_linear_4010_13185" x1="-0.215543" y1="14.7078" x2="93.3422" y2="18.1407" gradientUnits="userSpaceOnUse">
<stop stop-color="#25DD00"/>
<stop offset="0.504808" stop-color="#20E31D"/>
<stop offset="1" stop-color="#6EE130"/>
</linearGradient>
</defs>
</svg>
