<svg width="95" height="92" viewBox="0 0 95 92" fill="none" xmlns="http://www.w3.org/2000/svg">
<path d="M74.5081 12.3162C86.8543 20.6402 93.9952 35.4783 91.747 51.4752C88.5266 74.3899 67.2601 91.0051 44.247 88.5863C37.2996 87.8561 30.9872 85.4746 25.6482 81.875C13.302 73.5511 6.16106 58.713 8.40928 42.7161C11.6297 19.8014 32.8962 3.18622 55.9093 5.605C62.8567 6.3352 69.1691 8.71664 74.5081 12.3162Z" fill="#41E225"/>
<path d="M50.9111 2.2339C27.8981 -0.18487 6.63158 16.4303 3.41113 39.345L8.40902 42.7161C11.6295 19.8014 32.8959 3.18625 55.909 5.60502L50.9111 2.2339Z" fill="url(#paint0_linear_1947_52012)"/>
<path d="M3.41123 39.3447C1.16301 55.3417 8.30399 70.1797 20.6502 78.5037L25.6345 81.8657C13.2967 73.54 6.16172 58.7069 8.40912 42.7158L3.41123 39.3447Z" fill="url(#paint1_linear_1947_52012)"/>
<path d="M69.5099 8.94562C64.1709 5.34602 57.8586 2.96458 50.9111 2.23438L55.909 5.6055C62.8564 6.3357 69.1688 8.71714 74.5078 12.3167L69.5099 8.94562Z" fill="url(#paint2_linear_1947_52012)"/>
<path d="M20.6504 78.5039C25.9894 82.1035 32.3018 84.4849 39.2492 85.2152L44.2471 88.5863C37.2996 87.8561 30.9873 85.4746 25.6483 81.875L20.6504 78.5039Z" fill="url(#paint3_linear_1947_52012)"/>
<path d="M86.7487 48.1053C88.9961 32.1142 81.8612 17.2811 69.5233 8.95542L74.5077 12.3174C86.8539 20.6414 93.9948 35.4794 91.7466 51.4764L86.7487 48.1053Z" fill="url(#paint4_linear_1947_52012)"/>
<path d="M39.249 85.2156C62.2621 87.6343 83.5286 71.0191 86.749 48.1045L91.7469 51.4756C88.5265 74.3903 67.26 91.0055 44.2469 88.5867L39.249 85.2156Z" fill="url(#paint5_linear_1947_52012)"/>
<rect x="1.87988" y="0.753906" width="85" height="85" rx="42.5" fill="url(#paint6_linear_1947_52012)"/>
<g clip-path="url(#clip0_1947_52012)">
<path d="M61.6256 40.6796C60.7349 40.7967 59.7725 40.8367 58.7697 40.8082C55.2103 40.7071 50.7073 39.7735 46.0643 38.0835C41.4214 36.3937 37.3725 34.2146 34.5809 32.0042C33.7942 31.3813 33.0821 30.732 32.4749 30.0696L30.1519 36.452C30.1491 36.4596 30.1287 36.5138 30.1583 36.6601C30.1911 36.8218 30.2823 37.0727 30.493 37.4137C30.9219 38.1081 31.7189 38.9697 32.9242 39.925C35.319 41.8231 38.9898 43.8277 43.3906 45.4295C47.7914 47.0312 51.8919 47.8551 54.9464 47.9405C56.4838 47.9834 57.6481 47.8357 58.4231 47.5795C58.8036 47.4537 59.0348 47.3201 59.164 47.2173C59.2806 47.1243 59.2998 47.0696 59.3026 47.062L61.6256 40.6796ZM39.4861 56.157C38.4428 55.7774 37.3015 56.3147 36.9286 57.3389C36.5557 58.3634 37.0847 59.5084 38.128 59.8883C39.1714 60.268 40.3126 59.7308 40.6855 58.7063C41.0582 57.6819 40.5294 56.5368 39.4861 56.157ZM63.2495 36.2179C63.2503 36.2158 63.2722 36.1648 63.2417 36.0165C63.2084 35.8546 63.1162 35.6023 62.9031 35.2594C62.4696 34.5618 61.6669 33.6963 60.4576 32.7387C58.0552 30.8364 54.3838 28.8309 50.0112 27.2394C45.6385 25.6479 41.537 24.8243 38.4739 24.7373C36.932 24.6935 35.7608 24.8405 34.9803 25.0963C34.5968 25.222 34.3638 25.3561 34.2342 25.4587C34.1157 25.5526 34.0996 25.6058 34.0988 25.6079C34.0968 25.6133 34.0771 25.666 34.1066 25.8092C34.14 25.9711 34.2327 26.2229 34.4456 26.5655C34.8791 27.2631 35.6818 28.1286 36.8911 29.0861C39.2935 30.9884 42.9648 32.9938 47.3375 34.5854C51.7101 36.1769 55.8116 37.0005 58.8748 37.0875C60.4167 37.1313 61.5879 36.9843 62.3684 36.7285C62.7517 36.603 62.9844 36.4696 63.1141 36.3671C63.2289 36.2763 63.2477 36.2233 63.2495 36.2179ZM62.8007 48.3352C62.2502 49.8474 60.9099 50.6787 59.5922 51.1144C58.251 51.5578 56.6088 51.7118 54.842 51.6624C51.7368 51.5756 47.908 50.8498 43.8771 49.5349L42.4021 53.5873C43.7667 54.69 44.5551 56.37 44.5266 58.1236L55.768 62.2152C56.7339 62.5667 57.2319 63.6349 56.8805 64.6009C56.5289 65.5668 55.4608 66.0649 54.4948 65.7133L43.2534 61.6218C41.7591 63.4629 39.2064 64.2423 36.8548 63.3864C34.5032 62.5304 33.0486 60.2925 33.0875 57.9217L21.846 53.8301C20.88 53.4785 20.382 52.4104 20.7335 51.4444C21.0852 50.4786 22.1534 49.9804 23.1192 50.332L34.3607 54.4235C35.466 53.0619 37.15 52.2817 38.904 52.3141L40.379 48.2617C36.4459 46.6779 33.0463 44.7728 30.6118 42.8434C29.2267 41.7455 28.0685 40.5722 27.3261 39.3705C26.5967 38.1897 26.1034 36.6912 26.6538 35.1788L30.6007 24.3347C31.1528 22.8177 32.5039 21.9906 33.8215 21.5589C35.1653 21.1186 36.8105 20.9667 38.5799 21.017C42.1392 21.1181 46.6416 22.0515 51.2844 23.7413C55.9275 25.4312 59.9771 27.6104 62.7687 29.821C64.1564 30.9198 65.3192 32.0937 66.0656 33.2948C66.7973 34.4723 67.2997 35.9743 66.7477 37.4911L62.8007 48.3352Z" fill="black"/>
</g>
<defs>
<linearGradient id="paint0_linear_1947_52012" x1="7.85967" y1="42.3455" x2="39.9172" y2="-5.18163" gradientUnits="userSpaceOnUse">
<stop stop-color="#2EB516"/>
<stop offset="0.5" stop-color="#49ED2C"/>
<stop offset="1" stop-color="#269412"/>
</linearGradient>
<linearGradient id="paint1_linear_1947_52012" x1="-0.246574" y1="64.4087" x2="12.5166" y2="45.4864" gradientUnits="userSpaceOnUse">
<stop stop-color="#135608"/>
<stop offset="0.5" stop-color="#19690A"/>
<stop offset="1" stop-color="#2EB516"/>
</linearGradient>
<linearGradient id="paint2_linear_1947_52012" x1="60.6924" y1="8.83192" x2="63.3969" y2="4.82234" gradientUnits="userSpaceOnUse">
<stop stop-color="#269412"/>
<stop offset="0.5" stop-color="#1C740C"/>
<stop offset="1" stop-color="#135608"/>
</linearGradient>
<linearGradient id="paint3_linear_1947_52012" x1="30.4317" y1="85.1015" x2="33.1362" y2="81.0919" gradientUnits="userSpaceOnUse">
<stop stop-color="#135608"/>
<stop offset="0.5" stop-color="#1C740C"/>
<stop offset="1" stop-color="#269412"/>
</linearGradient>
<linearGradient id="paint4_linear_1947_52012" x1="66.1346" y1="34.2009" x2="78.8978" y2="15.2786" gradientUnits="userSpaceOnUse">
<stop stop-color="#2EB516"/>
<stop offset="0.5" stop-color="#19690A"/>
<stop offset="1" stop-color="#135608"/>
</linearGradient>
<linearGradient id="paint5_linear_1947_52012" x1="43.806" y1="88.2893" x2="75.8635" y2="40.7621" gradientUnits="userSpaceOnUse">
<stop stop-color="#269412"/>
<stop offset="0.5" stop-color="#49ED2C"/>
<stop offset="1" stop-color="#2EB516"/>
</linearGradient>
<linearGradient id="paint6_linear_1947_52012" x1="-0.215543" y1="14.7078" x2="93.3422" y2="18.1407" gradientUnits="userSpaceOnUse">
<stop stop-color="#25DD00"/>
<stop offset="0.504808" stop-color="#20E31D"/>
<stop offset="1" stop-color="#6EE130"/>
</linearGradient>
<clipPath id="clip0_1947_52012">
<rect width="58.3212" height="58.3212" fill="white" transform="translate(26.6416 6.18848) rotate(20)"/>
</clipPath>
</defs>
</svg>
