<svg width="95" height="93" viewBox="0 0 95 93" fill="none" xmlns="http://www.w3.org/2000/svg">
<path d="M74.5076 13.0565C86.8538 21.3804 93.9948 36.2185 91.7465 52.2154C88.5261 75.1301 67.2596 91.7453 44.2465 89.3265C37.2991 88.5963 30.9867 86.2149 25.6477 82.6153C13.3015 74.2913 6.16057 59.4532 8.40879 43.4563C11.6292 20.5416 32.8957 3.92646 55.9088 6.34523C62.8562 7.07543 69.1686 9.45687 74.5076 13.0565Z" fill="#41E225"/>
<path d="M50.9111 2.97414C27.8981 0.555365 6.63158 17.1706 3.41113 40.0852L8.40902 43.4563C11.6295 20.5417 32.8959 3.92648 55.909 6.34526L50.9111 2.97414Z" fill="url(#paint0_linear_1947_52069)"/>
<path d="M3.41123 40.085C1.16301 56.0819 8.30399 70.92 20.6502 79.2439L25.6345 82.6059C13.2967 74.2802 6.16172 59.4472 8.40912 43.4561L3.41123 40.085Z" fill="url(#paint1_linear_1947_52069)"/>
<path d="M69.5099 9.68586C64.1709 6.08625 57.8586 3.70481 50.9111 2.97461L55.909 6.34573C62.8564 7.07593 69.1688 9.45737 74.5078 13.057L69.5099 9.68586Z" fill="url(#paint2_linear_1947_52069)"/>
<path d="M20.6499 79.2441C25.9889 82.8437 32.3013 85.2252 39.2487 85.9554L44.2466 89.3265C37.2992 88.5963 30.9868 86.2149 25.6478 82.6153L20.6499 79.2441Z" fill="url(#paint3_linear_1947_52069)"/>
<path d="M86.7492 48.8455C88.9966 32.8544 81.8617 18.0213 69.5238 9.69565L74.5081 13.0576C86.8543 21.3816 93.9953 36.2197 91.7471 52.2166L86.7492 48.8455Z" fill="url(#paint4_linear_1947_52069)"/>
<path d="M39.249 85.9558C62.2621 88.3746 83.5286 71.7594 86.749 48.8447L91.7469 52.2158C88.5265 75.1305 67.26 91.7457 44.2469 89.3269L39.249 85.9558Z" fill="url(#paint5_linear_1947_52069)"/>
<rect x="1.87988" y="1.49414" width="85" height="85" rx="42.5" fill="url(#paint6_linear_1947_52069)"/>
<g clip-path="url(#clip0_1947_52069)">
<path d="M64.3689 38.6874C65.0941 36.6952 65.2275 36.2281 65.2218 35.8303C65.2155 35.3937 65.1029 34.9646 64.8939 34.5812C64.7032 34.2321 64.3569 33.8902 62.7465 32.5121L53.4476 24.5539L39.1856 63.7383C41.9309 63.1358 45.8477 62.0444 49.6366 60.1823C54.3944 57.844 58.6311 54.452 60.3943 49.6077L64.3689 38.6874ZM27.94 37.7953C26.1769 42.6395 27.2412 47.9611 29.3827 52.8105C31.0883 56.6725 33.3881 60.0264 35.1038 62.2527L49.3658 23.0682L37.127 23.1873C35.0065 23.2079 34.5216 23.2467 34.151 23.3918C33.7446 23.551 33.3834 23.8078 33.0979 24.1381C32.8378 24.4392 32.6398 24.8828 31.9147 26.875L27.94 37.7953ZM64.4761 51.0933C62.1597 57.4575 56.7594 61.5216 51.5527 64.0805C46.3146 66.6548 40.9466 67.8696 38.1559 68.3747C37.6212 68.4715 36.9584 68.6118 36.1673 68.502C35.5648 68.4185 34.8692 68.1653 34.3539 67.8421C33.6774 67.4176 33.2598 66.8841 32.9124 66.4662C31.0993 64.2855 27.768 59.9044 25.4101 54.5654C23.0664 49.2583 21.5419 42.6738 23.8582 36.3097L27.8329 25.3894C28.4366 23.7308 28.9034 22.3488 29.8115 21.2979C30.5582 20.4339 31.5041 19.7649 32.5673 19.3485C33.8606 18.8419 35.3194 18.8616 37.0844 18.8444L50.999 18.7096C51.4453 18.7053 51.9898 18.6886 52.5297 18.8012C52.9614 18.8912 53.3781 19.0429 53.7667 19.2514C54.2526 19.5122 54.6591 19.875 54.9982 20.1652L65.5707 29.2126C66.9117 30.3602 68.0419 31.2829 68.707 32.5022C69.2537 33.5047 69.5483 34.6252 69.5649 35.767C69.5851 37.1557 69.0544 38.5145 68.4507 40.1731L64.4761 51.0933Z" fill="#161821"/>
</g>
<defs>
<linearGradient id="paint0_linear_1947_52069" x1="7.85967" y1="43.0858" x2="39.9172" y2="-4.4414" gradientUnits="userSpaceOnUse">
<stop stop-color="#2EB516"/>
<stop offset="0.5" stop-color="#49ED2C"/>
<stop offset="1" stop-color="#269412"/>
</linearGradient>
<linearGradient id="paint1_linear_1947_52069" x1="-0.246574" y1="65.1489" x2="12.5166" y2="46.2266" gradientUnits="userSpaceOnUse">
<stop stop-color="#135608"/>
<stop offset="0.5" stop-color="#19690A"/>
<stop offset="1" stop-color="#2EB516"/>
</linearGradient>
<linearGradient id="paint2_linear_1947_52069" x1="60.6924" y1="9.57216" x2="63.3969" y2="5.56257" gradientUnits="userSpaceOnUse">
<stop stop-color="#269412"/>
<stop offset="0.5" stop-color="#1C740C"/>
<stop offset="1" stop-color="#135608"/>
</linearGradient>
<linearGradient id="paint3_linear_1947_52069" x1="30.4312" y1="85.8417" x2="33.1357" y2="81.8321" gradientUnits="userSpaceOnUse">
<stop stop-color="#135608"/>
<stop offset="0.5" stop-color="#1C740C"/>
<stop offset="1" stop-color="#269412"/>
</linearGradient>
<linearGradient id="paint4_linear_1947_52069" x1="66.1351" y1="34.9411" x2="78.8983" y2="16.0188" gradientUnits="userSpaceOnUse">
<stop stop-color="#2EB516"/>
<stop offset="0.5" stop-color="#19690A"/>
<stop offset="1" stop-color="#135608"/>
</linearGradient>
<linearGradient id="paint5_linear_1947_52069" x1="43.806" y1="89.0295" x2="75.8635" y2="41.5023" gradientUnits="userSpaceOnUse">
<stop stop-color="#269412"/>
<stop offset="0.5" stop-color="#49ED2C"/>
<stop offset="1" stop-color="#2EB516"/>
</linearGradient>
<linearGradient id="paint6_linear_1947_52069" x1="-0.215543" y1="15.448" x2="93.3422" y2="18.8809" gradientUnits="userSpaceOnUse">
<stop stop-color="#25DD00"/>
<stop offset="0.504808" stop-color="#20E31D"/>
<stop offset="1" stop-color="#6EE130"/>
</linearGradient>
<clipPath id="clip0_1947_52069">
<rect width="58.3212" height="58.3212" fill="white" transform="translate(26.7383 6.32617) rotate(20)"/>
</clipPath>
</defs>
</svg>
