<svg width="95" height="93" viewBox="0 0 95 93" fill="none" xmlns="http://www.w3.org/2000/svg">
<path d="M74.5081 13.0565C86.8543 21.3804 93.9952 36.2185 91.747 52.2154C88.5266 75.1301 67.2601 91.7453 44.247 89.3265C37.2996 88.5963 30.9872 86.2149 25.6482 82.6153C13.302 74.2913 6.16106 59.4532 8.40928 43.4563C11.6297 20.5416 32.8962 3.92646 55.9093 6.34523C62.8567 7.07543 69.1691 9.45687 74.5081 13.0565Z" fill="#41E225"/>
<path d="M50.9111 2.97414C27.8981 0.555365 6.63158 17.1706 3.41113 40.0852L8.40902 43.4563C11.6295 20.5417 32.8959 3.92648 55.909 6.34526L50.9111 2.97414Z" fill="url(#paint0_linear_1947_52127)"/>
<path d="M3.41123 40.085C1.16301 56.0819 8.30399 70.92 20.6502 79.2439L25.6345 82.6059C13.2967 74.2802 6.16172 59.4472 8.40912 43.4561L3.41123 40.085Z" fill="url(#paint1_linear_1947_52127)"/>
<path d="M69.5099 9.68586C64.1709 6.08625 57.8586 3.70481 50.9111 2.97461L55.909 6.34573C62.8564 7.07593 69.1688 9.45737 74.5078 13.057L69.5099 9.68586Z" fill="url(#paint2_linear_1947_52127)"/>
<path d="M20.6504 79.2441C25.9894 82.8437 32.3018 85.2252 39.2492 85.9554L44.2471 89.3265C37.2996 88.5963 30.9873 86.2149 25.6483 82.6153L20.6504 79.2441Z" fill="url(#paint3_linear_1947_52127)"/>
<path d="M86.7487 48.8455C88.9961 32.8544 81.8612 18.0213 69.5233 9.69565L74.5077 13.0576C86.8539 21.3816 93.9948 36.2197 91.7466 52.2166L86.7487 48.8455Z" fill="url(#paint4_linear_1947_52127)"/>
<path d="M39.249 85.9558C62.2621 88.3746 83.5286 71.7594 86.749 48.8447L91.7469 52.2158C88.5265 75.1305 67.26 91.7457 44.2469 89.3269L39.249 85.9558Z" fill="url(#paint5_linear_1947_52127)"/>
<rect x="1.87988" y="1.49414" width="85" height="85" rx="42.5" fill="url(#paint6_linear_1947_52127)"/>
<path d="M60.0757 54.7508C61.0846 51.9787 61.7897 50.0329 62.1786 48.4847C62.5606 46.964 62.5757 46.0468 62.3746 45.3022C62.2513 44.8459 62.0727 44.4167 61.8466 44.0261C61.4951 43.419 60.9149 42.8817 59.6809 42.2527C58.4028 41.6011 56.6498 40.9593 54.0984 40.0306L39.134 34.584C36.5829 33.6555 34.8279 33.0206 33.4301 32.6982C32.0806 32.3869 31.2907 32.4256 30.6312 32.6646C30.2069 32.8185 29.7943 33.0325 29.4064 33.3028C28.7737 33.7439 28.1949 34.4558 27.51 35.8664C26.8128 37.3024 26.1031 39.2465 25.0941 42.0186C24.0851 44.7908 23.3788 46.7369 22.9899 48.2852C22.6079 49.8061 22.5937 50.7234 22.7948 51.468C22.9182 51.9244 23.0967 52.3535 23.3228 52.7441C23.6744 53.3512 24.2547 53.8886 25.4885 54.5176C26.7665 55.169 28.5191 55.8108 31.0701 56.7393L46.0345 62.1859C48.586 63.1145 50.3414 63.7497 51.7393 64.0721C53.0889 64.3834 53.8787 64.3447 54.5383 64.1056C54.9626 63.9518 55.3752 63.7378 55.763 63.4675C56.3957 63.0263 56.9736 62.3141 57.6585 60.9035C58.3558 59.4675 59.0666 57.5231 60.0757 54.7508ZM30.7285 48.9121L31.6484 46.3849L29.122 45.4654C28.156 45.1138 27.658 44.0457 28.0096 43.0797C28.3613 42.114 29.4294 41.6157 30.3952 41.9672L32.9216 42.8867L33.8411 40.3604C34.1928 39.3946 35.2609 38.8964 36.2268 39.2479C37.1925 39.5996 37.6906 40.6678 37.3393 41.6336L36.4197 44.16L38.9461 45.0795C39.9118 45.4311 40.4098 46.4994 40.0585 47.4652C39.707 48.4311 38.6388 48.9291 37.6729 48.5776L35.1465 47.6581L34.2267 50.1854C33.875 51.151 32.8067 51.6492 31.841 51.2978C30.8751 50.9463 30.3772 49.878 30.7285 48.9121ZM63.5738 56.024C62.5919 58.7217 61.8083 60.8804 61.0074 62.5298C60.1943 64.2044 59.269 65.5604 57.8909 66.521C57.2432 66.9725 56.5434 67.3384 55.8075 67.6053C54.2138 68.1832 52.6232 68.0958 50.9025 67.6989C49.23 67.3131 47.2241 66.5804 44.7613 65.6841L29.7969 60.2375C27.3343 59.3411 25.3265 58.613 23.7973 57.8335C22.2244 57.0316 20.9503 56.0761 20.101 54.6092C19.7088 53.9317 19.407 53.2012 19.2011 52.4391C18.763 50.8174 18.9267 49.1841 19.3801 47.3787C19.8268 45.6004 20.6141 43.443 21.596 40.7453C22.5778 38.0478 23.3612 35.8898 24.1621 34.2405C24.9752 32.5658 25.8998 31.2087 27.278 30.248C27.9256 29.7966 28.6261 29.4318 29.3619 29.165C30.9555 28.5872 32.5459 28.6733 34.2664 29.0701C35.9388 29.4558 37.9446 30.1896 40.4072 31.0859L50.2813 34.6798C50.2973 33.9473 50.0135 33.2335 49.4849 32.7105C49.3368 32.5639 49.123 32.4092 48.2728 31.8349L48.157 31.7564C47.3352 31.2014 46.6816 30.773 46.1754 30.2453C44.8191 28.8311 44.1836 26.8739 44.4509 24.9328C44.5506 24.2082 44.8278 23.4775 45.167 22.5455L45.8971 20.5394C46.2487 19.5735 47.3169 19.0754 48.2828 19.427C49.2487 19.7786 49.7469 20.8467 49.3953 21.8127L48.6652 23.8187C48.2647 24.9191 48.1717 25.205 48.1392 25.4407C48.0272 26.2545 48.293 27.0748 48.8615 27.6678C49.0262 27.8395 49.2698 28.0161 50.24 28.6715L50.3559 28.75C51.0765 29.2367 51.6483 29.6131 52.1038 30.0638C53.5803 31.525 54.2579 33.6117 53.9209 35.6615C53.9035 35.7675 53.8804 35.8734 53.8556 35.9807L55.3716 36.5325C57.8343 37.4288 59.8423 38.156 61.3715 38.9355C62.9448 39.7375 64.219 40.6939 65.0684 42.1611C65.4605 42.8384 65.7618 43.568 65.9678 44.3299C66.406 45.9517 66.2428 47.586 65.7893 49.3915C65.3427 51.1698 64.5556 53.3265 63.5738 56.024Z" fill="black"/>
<path d="M46.7168 55.1717C47.0684 54.2057 46.5703 53.1376 45.6044 52.786C44.6384 52.4344 43.5703 52.9325 43.2187 53.8985C42.8891 54.8041 43.3062 55.7993 44.1555 56.2099L44.3311 56.2842C45.2367 56.6138 46.2319 56.1966 46.6425 55.3473L46.7168 55.1717ZM49.6323 56.2328C48.6947 58.8088 45.8459 60.1372 43.27 59.1996C40.7747 58.2914 39.4504 55.5899 40.2221 53.0801L40.3032 52.8374L40.3972 52.5993C41.4192 50.1806 44.1702 48.9624 46.6655 49.8706L46.9036 49.9645C49.3222 50.9866 50.5405 53.7375 49.6323 56.2328Z" fill="black"/>
<path d="M56.5254 48.1776C56.877 47.2116 56.3789 46.1435 55.4129 45.7919C54.447 45.4403 53.3788 45.9384 53.0273 46.9044C52.6977 47.8099 53.1148 48.8051 53.9641 49.2157L54.1397 49.29C55.0453 49.6196 56.0405 49.2025 56.4511 48.3532L56.5254 48.1776ZM59.4408 49.2387C58.5033 51.8146 55.6545 53.143 53.0786 52.2055C50.5833 51.2973 49.259 48.5957 50.0307 46.086L50.1118 45.8432L50.2058 45.6051C51.2278 43.1865 53.9788 41.9682 56.4741 42.8765L56.7122 42.9704C59.1308 43.9924 60.3491 46.7434 59.4408 49.2387Z" fill="black"/>
<defs>
<linearGradient id="paint0_linear_1947_52127" x1="7.85967" y1="43.0858" x2="39.9172" y2="-4.4414" gradientUnits="userSpaceOnUse">
<stop stop-color="#2EB516"/>
<stop offset="0.5" stop-color="#49ED2C"/>
<stop offset="1" stop-color="#269412"/>
</linearGradient>
<linearGradient id="paint1_linear_1947_52127" x1="-0.246574" y1="65.1489" x2="12.5166" y2="46.2266" gradientUnits="userSpaceOnUse">
<stop stop-color="#135608"/>
<stop offset="0.5" stop-color="#19690A"/>
<stop offset="1" stop-color="#2EB516"/>
</linearGradient>
<linearGradient id="paint2_linear_1947_52127" x1="60.6924" y1="9.57216" x2="63.3969" y2="5.56257" gradientUnits="userSpaceOnUse">
<stop stop-color="#269412"/>
<stop offset="0.5" stop-color="#1C740C"/>
<stop offset="1" stop-color="#135608"/>
</linearGradient>
<linearGradient id="paint3_linear_1947_52127" x1="30.4317" y1="85.8417" x2="33.1362" y2="81.8321" gradientUnits="userSpaceOnUse">
<stop stop-color="#135608"/>
<stop offset="0.5" stop-color="#1C740C"/>
<stop offset="1" stop-color="#269412"/>
</linearGradient>
<linearGradient id="paint4_linear_1947_52127" x1="66.1346" y1="34.9411" x2="78.8978" y2="16.0188" gradientUnits="userSpaceOnUse">
<stop stop-color="#2EB516"/>
<stop offset="0.5" stop-color="#19690A"/>
<stop offset="1" stop-color="#135608"/>
</linearGradient>
<linearGradient id="paint5_linear_1947_52127" x1="43.806" y1="89.0295" x2="75.8635" y2="41.5023" gradientUnits="userSpaceOnUse">
<stop stop-color="#269412"/>
<stop offset="0.5" stop-color="#49ED2C"/>
<stop offset="1" stop-color="#2EB516"/>
</linearGradient>
<linearGradient id="paint6_linear_1947_52127" x1="-0.215543" y1="15.448" x2="93.3422" y2="18.8809" gradientUnits="userSpaceOnUse">
<stop stop-color="#25DD00"/>
<stop offset="0.504808" stop-color="#20E31D"/>
<stop offset="1" stop-color="#6EE130"/>
</linearGradient>
</defs>
</svg>
