<svg width="23" height="16" viewBox="0 0 23 16" fill="none" xmlns="http://www.w3.org/2000/svg">
<g clip-path="url(#clip0_1971_14223)">
<rect x="0.5" width="22" height="16" rx="2" fill="#1A47B8"/>
<path fill-rule="evenodd" clip-rule="evenodd" d="M0.5 11H22.5V16H0.5V11Z" fill="white"/>
<path fill-rule="evenodd" clip-rule="evenodd" d="M0.5 0H22.5V5.41667H0.5V0ZM8.88095 10.8333V5.41667H4.69048V10.8333C4.69048 12.0304 5.6281 13 6.78571 13C7.94333 13 8.88095 12.0304 8.88095 10.8333Z" fill="#F93939"/>
<path fill-rule="evenodd" clip-rule="evenodd" d="M5.73805 5.33328L4.69043 4.26662C4.69043 4.26662 5.73805 3.19995 6.78567 3.19995C7.83329 3.19995 8.88091 4.26662 8.88091 4.26662L7.83329 5.33328H5.73805Z" fill="#FFDA2C"/>
<path fill-rule="evenodd" clip-rule="evenodd" d="M5.73805 6.40002L4.69043 7.46669L6.78567 8.53336L5.73805 10.6667L6.78567 12.8L7.83329 10.6667L6.78567 8.53336L8.88091 7.46669L7.83329 6.40002L6.78567 7.46669L5.73805 6.40002Z" fill="white"/>
<path fill-rule="evenodd" clip-rule="evenodd" d="M5.73805 6.40002H4.69043V7.46669L5.73805 6.40002ZM7.83329 6.40002H8.88091V7.46669L7.83329 6.40002Z" fill="#FFDA2C"/>
<path fill-rule="evenodd" clip-rule="evenodd" d="M6.7859 3.19995L5.73828 4.26662L6.7859 5.33328L7.83352 4.26662L6.7859 3.19995Z" fill="#A75835"/>
<path fill-rule="evenodd" clip-rule="evenodd" d="M6.78567 8.53333L4.69043 9.59999H8.88091L6.78567 8.53333Z" fill="#88605F"/>
</g>
<defs>
<clipPath id="clip0_1971_14223">
<rect x="0.5" width="22" height="16" rx="2" fill="white"/>
</clipPath>
</defs>
</svg>
