<svg width="22" height="16" viewBox="0 0 22 16" fill="none" xmlns="http://www.w3.org/2000/svg">
<g clip-path="url(#clip0_3001_8549)">
<rect width="22" height="16" rx="2" fill="white"/>
<path fill-rule="evenodd" clip-rule="evenodd" d="M10.9999 10.6667C12.4456 10.6667 13.619 9.47204 13.619 8.00004C13.619 6.52804 12.4456 5.33337 10.9999 5.33337C9.55419 5.33337 8.38086 6.52804 8.38086 8.00004C8.38086 9.47204 9.55419 10.6667 10.9999 10.6667ZM10.9999 9.60004C11.8673 9.60004 12.5713 8.88324 12.5713 8.00004C12.5713 7.11684 11.8673 6.40004 10.9999 6.40004C10.1325 6.40004 9.42848 7.11684 9.42848 8.00004C9.42848 8.88324 10.1325 9.60004 10.9999 9.60004Z" fill="#1A47B8"/>
<path d="M11.0004 8.53334C11.2897 8.53334 11.5242 8.29456 11.5242 8.00001C11.5242 7.70546 11.2897 7.46667 11.0004 7.46667C10.7111 7.46667 10.4766 7.70546 10.4766 8.00001C10.4766 8.29456 10.7111 8.53334 11.0004 8.53334Z" fill="#1A47B8"/>
<path fill-rule="evenodd" clip-rule="evenodd" d="M0 11H22V16H0V11Z" fill="#249F58"/>
<path fill-rule="evenodd" clip-rule="evenodd" d="M0 0H22V5H0V0Z" fill="#FF6C2D"/>
</g>
<defs>
<clipPath id="clip0_3001_8549">
<rect width="22" height="16" rx="2" fill="white"/>
</clipPath>
</defs>
</svg>
