<svg width="22" height="16" viewBox="0 0 22 16" fill="none" xmlns="http://www.w3.org/2000/svg">
<rect width="22" height="16" rx="2" fill="#F93939"/>
<path fill-rule="evenodd" clip-rule="evenodd" d="M10.6919 10.1174C10.7935 10.128 10.8962 10.1334 10.9999 10.1334C11.1047 10.1334 11.2063 10.128 11.3079 10.1174L10.9999 9.33337L10.6919 10.1174ZM9.27134 9.53604C8.72343 9.09444 8.38086 8.45017 8.38086 7.73337C8.38086 6.88751 8.85857 6.14404 9.57934 5.71737L10.4761 8.00004L9.27134 9.53604ZM12.4205 5.71737C13.1412 6.14404 13.619 6.88751 13.619 7.73337C13.619 8.45124 13.2753 9.09551 12.7285 9.53604L11.5237 8.00004L12.4205 5.71737ZM12.3157 5.65764C11.9281 5.45071 11.4797 5.33337 10.9999 5.33337C10.5201 5.33337 10.0707 5.45071 9.6841 5.65764L10.9999 7.33231L12.3157 5.65764Z" fill="#FFDA2C"/>
<path fill-rule="evenodd" clip-rule="evenodd" d="M11.0004 12.8C13.6038 12.8 15.7147 10.6506 15.7147 7.99995C15.7147 5.34928 13.6038 3.19995 11.0004 3.19995C8.39709 3.19995 6.28613 5.34928 6.28613 7.99995C6.28613 10.6506 8.39709 12.8 11.0004 12.8ZM11.0004 11.7333C13.0255 11.7333 14.6671 10.0618 14.6671 7.99995C14.6671 5.93808 13.0255 4.26662 11.0004 4.26662C8.97537 4.26662 7.33375 5.93808 7.33375 7.99995C7.33375 10.0618 8.97537 11.7333 11.0004 11.7333Z" fill="#FFDA2C"/>
</svg>
