<svg width="23" height="16" viewBox="0 0 23 16" fill="none" xmlns="http://www.w3.org/2000/svg">
<rect x="0.5" width="22" height="16" rx="2" fill="white"/>
<path fill-rule="evenodd" clip-rule="evenodd" d="M15.1663 8.00002C15.1663 10.0619 13.5247 11.7334 11.4997 11.7334C9.47463 11.7334 7.83301 10.0619 7.83301 8.00002C7.83301 6.80536 10.2949 6.30402 12.3671 6.49282C12.5871 6.43309 12.8239 6.40002 13.0711 6.40002C14.2287 6.40002 15.1663 7.11682 15.1663 8.00002Z" fill="#232C80"/>
<path fill-rule="evenodd" clip-rule="evenodd" d="M10.9759 7.46672C10.9759 7.46672 11.9135 6.40006 13.0711 6.40006C14.2287 6.40006 15.1663 7.11686 15.1663 8.00006C15.1663 5.93819 13.5247 4.26672 11.4997 4.26672C10.0362 4.26672 8.77272 5.13926 8.18501 6.40219C7.83301 7.46672 7.83301 7.77819 7.83301 8.00006C8.35682 8.53339 8.93929 8.53339 9.40444 8.53339C9.86958 8.53339 10.2876 8.32752 10.5757 8.00006L10.9759 7.46672Z" fill="#F93939"/>
<path fill-rule="evenodd" clip-rule="evenodd" d="M16.2142 5.33328H18.3095L16.2142 3.19995H15.1666L16.2142 5.33328ZM6.78567 5.33328H4.69043L6.78567 3.19995H7.83329L6.78567 5.33328ZM16.2142 10.6666H18.3095L16.2142 12.8H15.1666L16.2142 10.6666ZM6.78567 10.6666H4.69043L6.78567 12.8H7.83329L6.78567 10.6666Z" fill="#151515"/>
</svg>
