<svg width="23" height="16" viewBox="0 0 23 16" fill="none" xmlns="http://www.w3.org/2000/svg">
<g clip-path="url(#clip0_3001_7581)">
<rect x="0.5" width="22" height="16" rx="2" fill="white"/>
<path fill-rule="evenodd" clip-rule="evenodd" d="M0.5 0H22.5V10H0.5V0Z" fill="#F93939"/>
<path fill-rule="evenodd" clip-rule="evenodd" d="M6.78618 8.38717C6.48237 8.48317 6.15761 8.5333 5.81923 8.5333C4.03827 8.5333 2.5957 7.10077 2.5957 5.3333C2.5957 3.56583 4.03932 2.1333 5.81923 2.1333C6.15656 2.1333 6.48132 2.1845 6.78618 2.27943C5.47875 2.68797 4.52961 3.90077 4.52961 5.3333C4.52961 6.76583 5.47875 7.97863 6.78618 8.38717ZM8.88142 3.19997H9.92904V4.26663H8.88142V3.19997ZM10.9767 4.26663H12.0243V5.3333H10.9767V4.26663ZM9.92904 6.39997H10.9767V7.46663H9.92904V6.39997ZM6.78618 4.26663H7.8338V5.3333H6.78618V4.26663ZM7.8338 6.39997H8.88142V7.46663H7.8338V6.39997Z" fill="white"/>
</g>
<defs>
<clipPath id="clip0_3001_7581">
<rect x="0.5" width="22" height="16" rx="2" fill="white"/>
</clipPath>
</defs>
</svg>
