<svg width="23" height="16" viewBox="0 0 23 16" fill="none" xmlns="http://www.w3.org/2000/svg">
<g clip-path="url(#clip0_1971_14262)">
<rect x="0.5" width="22" height="16" rx="2" fill="#1A47B8"/>
<path fill-rule="evenodd" clip-rule="evenodd" d="M0.5 11H22.5V16H0.5V11Z" fill="#F93939"/>
<path fill-rule="evenodd" clip-rule="evenodd" d="M0.5 0H22.5V5H0.5V0Z" fill="white"/>
<path d="M7.30985 3.19995H5.21461C4.63603 3.19995 4.16699 3.67751 4.16699 4.26662V6.93328C4.16699 7.52239 4.63603 7.99995 5.21461 7.99995H7.30985C7.88843 7.99995 8.35747 7.52239 8.35747 6.93328V4.26662C8.35747 3.67751 7.88843 3.19995 7.30985 3.19995Z" fill="#F93939"/>
<path d="M6.78567 3.19995H5.73805C5.15946 3.19995 4.69043 3.67751 4.69043 4.26662V6.39995C4.69043 6.98906 5.15946 7.46662 5.73805 7.46662H6.78567C7.36425 7.46662 7.83329 6.98906 7.83329 6.39995V4.26662C7.83329 3.67751 7.36425 3.19995 6.78567 3.19995Z" fill="#1A47B8"/>
<path fill-rule="evenodd" clip-rule="evenodd" d="M5.73828 4.26672H6.7859V5.33339H5.73828V4.26672Z" fill="#FFDA2C"/>
<path fill-rule="evenodd" clip-rule="evenodd" d="M4.69043 6.40003L6.26186 5.8667L7.83329 6.40003L6.78567 7.4667H5.73805L4.69043 6.40003Z" fill="white"/>
</g>
<defs>
<clipPath id="clip0_1971_14262">
<rect x="0.5" width="22" height="16" rx="2" fill="white"/>
</clipPath>
</defs>
</svg>
