<svg width="23" height="16" viewBox="0 0 23 16" fill="none" xmlns="http://www.w3.org/2000/svg">
<rect x="0.5" width="22" height="16" rx="2" fill="#F93939"/>
<path fill-rule="evenodd" clip-rule="evenodd" d="M15.1687 9.2288L13.9514 9.87946L14.184 8.50026L13.1992 7.52213L14.5611 7.31946L15.1687 6.06506L15.7764 7.32053L17.1383 7.5232L16.1535 8.4992L16.3861 9.8784" fill="white"/>
<path fill-rule="evenodd" clip-rule="evenodd" d="M10.4528 11.7334C12.4778 11.7334 14.1195 10.0619 14.1195 8.00006C14.1195 5.93819 12.4778 4.26672 10.4528 4.26672C8.42775 4.26672 6.78613 5.93819 6.78613 8.00006C6.78613 10.0619 8.42775 11.7334 10.4528 11.7334ZM11.5004 10.6667C12.9461 10.6667 14.1195 9.47206 14.1195 8.00006C14.1195 6.52806 12.9461 5.33339 11.5004 5.33339C10.0547 5.33339 8.88137 6.52806 8.88137 8.00006C8.88137 9.47206 10.0547 10.6667 11.5004 10.6667Z" fill="white"/>
</svg>
