<svg width="23" height="16" viewBox="0 0 23 16" fill="none" xmlns="http://www.w3.org/2000/svg">
<g clip-path="url(#clip0_3001_12875)">
<rect x="0.5" width="22" height="16" rx="2" fill="white"/>
<path fill-rule="evenodd" clip-rule="evenodd" d="M0.5 0H9.92857V7.46667H0.5V0Z" fill="#1A47B8"/>
<path fill-rule="evenodd" clip-rule="evenodd" d="M9.92857 0V1.06667H22.5V0H9.92857ZM9.92857 2.13333V3.2H22.5V2.13333H9.92857ZM9.92857 4.26667V5.33333H22.5V4.26667H9.92857ZM9.92857 6.4V7.46667H22.5V6.4H9.92857ZM0.5 8.53333V9.6H22.5V8.53333H0.5ZM0.5 10.6667V11.7333H22.5V10.6667H0.5ZM0.5 12.8V13.8667H22.5V12.8H0.5ZM0.5 14.9333V16H22.5V14.9333H0.5Z" fill="#F93939"/>
<path fill-rule="evenodd" clip-rule="evenodd" d="M1.54688 1.06665V2.13332H2.59449V1.06665H1.54688ZM3.64211 1.06665V2.13332H4.68973V1.06665H3.64211ZM5.73735 1.06665V2.13332H6.78497V1.06665H5.73735ZM7.83259 1.06665V2.13332H8.88021V1.06665H7.83259ZM6.78497 2.13332V3.19998H7.83259V2.13332H6.78497ZM4.68973 2.13332V3.19998H5.73735V2.13332H4.68973ZM2.59449 2.13332V3.19998H3.64211V2.13332H2.59449ZM1.54688 3.19998V4.26665H2.59449V3.19998H1.54688ZM3.64211 3.19998V4.26665H4.68973V3.19998H3.64211ZM5.73735 3.19998V4.26665H6.78497V3.19998H5.73735ZM7.83259 3.19998V4.26665H8.88021V3.19998H7.83259ZM1.54688 5.33332V6.39998H2.59449V5.33332H1.54688ZM3.64211 5.33332V6.39998H4.68973V5.33332H3.64211ZM5.73735 5.33332V6.39998H6.78497V5.33332H5.73735ZM7.83259 5.33332V6.39998H8.88021V5.33332H7.83259ZM6.78497 4.26665V5.33332H7.83259V4.26665H6.78497ZM4.68973 4.26665V5.33332H5.73735V4.26665H4.68973ZM2.59449 4.26665V5.33332H3.64211V4.26665H2.59449Z" fill="white"/>
</g>
<defs>
<clipPath id="clip0_3001_12875">
<rect x="0.5" width="22" height="16" rx="2" fill="white"/>
</clipPath>
</defs>
</svg>
